<svg width="14" height="31" viewBox="0 0 14 31" fill="none" xmlns="http://www.w3.org/2000/svg">
<path d="M11.9572 0H1.08702C0.798721 0 0.52225 0.162963 0.318395 0.453042C0.11454 0.743121 0 1.13655 0 1.54679C0 1.95702 0.11454 2.35045 0.318395 2.64053C0.52225 2.93061 0.798721 3.09357 1.08702 3.09357H11.9572C12.2455 3.09357 12.5219 2.93061 12.7258 2.64053C12.9296 2.35045 13.0442 1.95702 13.0442 1.54679C13.0442 1.13655 12.9296 0.743121 12.7258 0.453042C12.5219 0.162963 12.2455 0 11.9572 0Z" fill="#07AA3D"/>
<path d="M11.4571 5.3209C11.4571 4.92708 11.3472 4.54938 11.1515 4.2709C10.9558 3.99243 10.6903 3.83599 10.4136 3.83599H2.84795C2.57118 3.83599 2.30578 3.99243 2.11008 4.2709C1.91438 4.54938 1.80442 4.92708 1.80442 5.3209C1.80145 5.51706 1.82641 5.71204 1.8778 5.8941C1.92919 6.07617 2.00594 6.24156 2.10344 6.38029C2.20094 6.51903 2.31718 6.62825 2.44513 6.70138C2.57307 6.77451 2.71009 6.81004 2.84795 6.80582H10.4136C10.5514 6.81004 10.6885 6.77451 10.8164 6.70138C10.9444 6.62825 11.0606 6.51903 11.1581 6.38029C11.2556 6.24156 11.3323 6.07617 11.3837 5.8941C11.4351 5.71204 11.4601 5.51706 11.4571 5.3209Z" fill="#07AA3D"/>
<path d="M8.69606 7.70275H4.54366C4.26689 7.70275 4.00149 7.85919 3.80579 8.13767C3.61009 8.41614 3.50013 8.79384 3.50013 9.18767C3.50569 9.57901 3.61741 9.95213 3.81192 10.2289C4.00643 10.5057 4.26863 10.6647 4.54366 10.6726H8.69606C8.97283 10.6726 9.23827 10.5161 9.43397 10.2377C9.62967 9.95918 9.73959 9.58149 9.73959 9.18767C9.74256 8.99151 9.7176 8.79652 9.66621 8.61445C9.61482 8.43239 9.53807 8.26701 9.44057 8.12827C9.34307 7.98954 9.22683 7.88031 9.09889 7.80718C8.97094 7.73405 8.83392 7.69853 8.69606 7.70275Z" fill="#07AA3D"/>
<path d="M6.08726 14.5397H7.17427C7.44929 14.5318 7.71149 14.3728 7.906 14.0961C8.10051 13.8193 8.21224 13.4462 8.2178 13.0548C8.2178 12.661 8.10784 12.2833 7.91214 12.0048C7.71644 11.7263 7.45103 11.5699 7.17427 11.5699H6.08726C5.94941 11.5657 5.81238 11.6012 5.68444 11.6743C5.55649 11.7475 5.44025 11.8567 5.34275 11.9954C5.24526 12.1342 5.1685 12.2995 5.11711 12.4816C5.06572 12.6637 5.04077 12.8587 5.04373 13.0548C5.04373 13.4486 5.15365 13.8263 5.34936 14.1048C5.54506 14.3833 5.81049 14.5397 6.08726 14.5397Z" fill="#07AA3D"/>
<path d="M11.9572 27.007H1.08702C0.798722 27.007 0.522251 27.1699 0.318395 27.46C0.11454 27.7501 0 28.1435 0 28.5537C0 28.964 0.11454 29.3574 0.318395 29.6475C0.522251 29.9376 0.798722 30.1005 1.08702 30.1005H11.9572C12.2455 30.1005 12.5219 29.9376 12.7258 29.6475C12.9297 29.3574 13.0442 28.964 13.0442 28.5537C13.0442 28.1435 12.9297 27.7501 12.7258 27.46C12.5219 27.1699 12.2455 27.007 11.9572 27.007Z" fill="#07AA3D"/>
<path d="M2.84795 26.11H10.4136C10.6903 26.11 10.9558 25.9535 11.1515 25.6751C11.3472 25.3966 11.4571 25.0189 11.4571 24.6251C11.4601 24.4289 11.4351 24.2339 11.3837 24.0519C11.3323 23.8698 11.2556 23.7044 11.1581 23.5657C11.0606 23.4269 10.9444 23.3177 10.8164 23.2446C10.6885 23.1715 10.5514 23.1359 10.4136 23.1402H2.84795C2.71009 23.1359 2.57307 23.1715 2.44513 23.2446C2.31718 23.3177 2.20094 23.4269 2.10344 23.5657C2.00594 23.7044 1.92919 23.8698 1.8778 24.0519C1.82641 24.2339 1.80145 24.4289 1.80442 24.6251C1.80442 25.0189 1.91438 25.3966 2.11008 25.6751C2.30578 25.9535 2.57118 26.11 2.84795 26.11Z" fill="#07AA3D"/>
<path d="M3.50013 20.7576C3.50013 21.1514 3.61009 21.5291 3.80579 21.8076C4.00149 22.0861 4.26689 22.2425 4.54366 22.2425H8.69606C8.83392 22.2467 8.97094 22.2112 9.09889 22.1381C9.22683 22.065 9.34307 21.9557 9.44057 21.817C9.53807 21.6783 9.61482 21.5129 9.66621 21.3308C9.7176 21.1487 9.74256 20.9538 9.73959 20.7576C9.73959 20.3638 9.62967 19.9861 9.43397 19.7076C9.23827 19.4291 8.97283 19.2727 8.69606 19.2727H4.54366C4.26863 19.2806 4.00643 19.4396 3.81192 19.7164C3.61741 19.9931 3.50569 20.3663 3.50013 20.7576Z" fill="#07AA3D"/>
<path d="M6.08726 18.3761H7.17427C7.45103 18.3761 7.71644 18.2196 7.91214 17.9412C8.10784 17.6627 8.2178 17.285 8.2178 16.8912C8.21224 16.4998 8.10051 16.1267 7.906 15.8499C7.71149 15.5731 7.44929 15.4142 7.17427 15.4062H6.08726C5.81049 15.4063 5.54506 15.5627 5.34936 15.8412C5.15365 16.1197 5.04373 16.4973 5.04373 16.8912C5.04077 17.0873 5.06572 17.2823 5.11711 17.4644C5.1685 17.6464 5.24526 17.8118 5.34275 17.9506C5.44025 18.0893 5.55649 18.1985 5.68444 18.2716C5.81238 18.3448 5.94941 18.3803 6.08726 18.3761Z" fill="#07AA3D"/>
</svg>
