<svg width="64" height="65" viewBox="0 0 64 65" fill="none" xmlns="http://www.w3.org/2000/svg">
<path d="M61.6019 52.0833C61.3952 51.4566 61.2455 50.5132 61.6621 49.6032C63.1821 46.3399 63.9855 42.73 63.9855 39.1666C63.9855 29.1833 57.8685 20.0833 48.7219 16.2166C44.9452 7.19326 36.0288 0.836548 25.6555 0.836548C11.8721 0.836548 0.658712 12.05 0.658712 25.8333C0.658712 29.4233 1.45568 33.0366 2.97235 36.2966C3.30235 36.9899 3.32544 37.8634 3.0521 38.73L0.871928 45.2134C0.361928 46.75 0.758634 48.4232 1.91197 49.5766C2.73197 50.3966 3.81222 50.8333 4.92222 50.8333C5.37555 50.8333 5.82891 50.76 6.27557 50.6134L12.7355 48.4434C13.6322 48.16 14.4988 48.1866 15.2054 48.5233C15.4554 48.64 15.7219 48.7234 15.9785 48.8334C19.8419 58.0234 28.9722 64.1699 38.9855 64.1699C42.5522 64.1699 46.1586 63.3667 49.412 61.8534C50.3286 61.4334 51.2792 61.5832 51.8892 61.7832L58.3654 63.9532C59.9054 64.4632 61.579 64.0566 62.729 62.9099C63.8757 61.7632 64.2758 60.09 63.7658 58.54L61.6019 52.0833ZM11.6955 45.2732L5.21926 47.4499C4.73926 47.6099 4.3954 47.3432 4.26874 47.2166C4.1454 47.0932 3.87518 46.7532 4.03518 46.2699L6.22186 39.7633C6.76186 38.0633 6.67912 36.3199 5.98912 34.8732C4.68245 32.0632 3.99204 28.9367 3.99204 25.83C3.99204 13.8867 13.7088 4.16663 25.6555 4.16663C37.6021 4.16663 47.3189 13.8867 47.3189 25.83C47.3189 37.7734 37.6021 47.4932 25.6555 47.4932C22.5455 47.4932 19.4222 46.8033 16.6255 45.5033C15.1655 44.81 13.4222 44.7165 11.6955 45.2732ZM58.4387 53.13L60.6026 59.5866C60.7659 60.0832 60.4923 60.4266 60.369 60.5499C60.2423 60.6732 59.8886 60.9434 59.4152 60.7867L52.9357 58.6167C51.2291 58.0634 49.5321 58.1332 48.0155 58.8232C45.1921 60.1399 42.0689 60.8333 38.9855 60.8333C31.3322 60.8333 24.2722 56.6934 20.4089 50.2567C22.1322 50.6301 23.8955 50.8266 25.6555 50.8266C39.4388 50.8266 50.6522 39.6134 50.6522 25.83C50.6522 24.04 50.4556 22.3 50.0956 20.6166C56.5189 24.4733 60.6522 31.5233 60.6522 39.1666C60.6522 42.25 59.9556 45.3732 58.6356 48.2065C57.9456 49.7099 57.8787 51.4067 58.4387 53.13ZM23.1522 25.8333C23.1522 24.4533 24.2422 23.3333 25.6156 23.3333H25.6652C27.0419 23.3333 28.1522 24.4533 28.1522 25.8333C28.1522 27.2133 27.0386 28.3333 25.6652 28.3333C24.2952 28.3333 23.1522 27.2133 23.1522 25.8333ZM33.1522 25.8333C33.1522 24.4533 34.2422 23.3333 35.6156 23.3333H35.6652C37.0419 23.3333 38.1522 24.4533 38.1522 25.8333C38.1522 27.2133 37.0386 28.3333 35.6652 28.3333C34.2952 28.3333 33.1522 27.2133 33.1522 25.8333ZM15.6652 28.3333C14.2952 28.3333 13.1522 27.2133 13.1522 25.8333C13.1522 24.4533 14.2422 23.3333 15.6156 23.3333H15.6652C17.0419 23.3333 18.1522 24.4533 18.1522 25.8333C18.1522 27.2133 17.0386 28.3333 15.6652 28.3333Z" fill="#25373F"/>
</svg>
