<svg width="51" height="51" viewBox="0 0 51 51" fill="none" xmlns="http://www.w3.org/2000/svg">
<path d="M13.0547 42.0278C13.0547 44.0353 13.6598 45.8502 14.7873 47.4177C7.41723 46.9502 0.679688 44.2553 0.679688 39.2778V36.8578C3.5672 39.1128 7.82972 40.6253 13.0547 41.1203V42.0278ZM13.1647 30.8353C13.1372 30.8628 13.1373 30.8902 13.1373 30.9177C13.0823 31.1927 13.0547 31.4678 13.0547 31.7428V36.9953C6.39971 36.2253 0.679688 33.5853 0.679688 28.9928V26.5728C3.5672 28.8553 7.8573 30.3678 13.1373 30.8353H13.1647ZM23.8898 20.7703C19.7098 22.0628 16.4373 24.1802 14.6223 26.8202C7.30724 26.3527 0.679688 23.6578 0.679688 18.7078V16.8376C4.2822 19.6701 10.0572 21.3202 17.1798 21.3202C19.5723 21.3202 21.8273 21.1278 23.8898 20.7703ZM33.6798 16.8376V18.7078C33.6798 18.9553 33.6523 19.1753 33.6248 19.3953C31.4523 19.3953 29.3898 19.5876 27.4648 19.9176C29.9398 19.1751 32.0298 18.1301 33.6798 16.8376ZM17.1798 0.750122C8.92972 0.750122 0.679688 3.50011 0.679688 8.97263C0.679688 14.5002 8.92972 17.1951 17.1798 17.1951C25.4298 17.1951 33.6798 14.5002 33.6798 8.97263C33.6798 3.50011 25.4298 0.750122 17.1798 0.750122ZM33.6798 44.0903C26.7773 44.0903 20.8923 42.2754 17.1798 39.3329V42.0278C17.1798 47.5004 25.4298 50.2503 33.6798 50.2503C41.9299 50.2503 50.1799 47.5004 50.1799 42.0278V39.3329C46.4674 42.2754 40.5824 44.0903 33.6798 44.0903ZM33.6798 23.5203C24.5773 23.5203 17.1798 27.2053 17.1798 31.7428C17.1798 36.2803 24.5773 39.9653 33.6798 39.9653C42.7824 39.9653 50.1799 36.2803 50.1799 31.7428C50.1799 27.2053 42.7824 23.5203 33.6798 23.5203Z" fill="#25373F"/>
</svg>
