<svg width="140" height="143" viewBox="0 0 140 143" fill="none" xmlns="http://www.w3.org/2000/svg">
<g clip-path="url(#clip0_3344_28948)">
<path d="M5.64615 82.0481C5.64615 83.9416 4.27365 85.4725 2.57609 85.4725C0.87852 85.4725 -0.5 83.9416 -0.5 82.0481C-0.5 80.1547 0.872501 78.6238 2.57007 78.6238C4.26763 78.6238 5.64615 80.1547 5.64615 82.0481Z" fill="#7984EE"/>
<path d="M21.6101 85.4725C23.3057 85.4725 24.6802 83.9393 24.6802 82.0481C24.6802 80.1569 23.3057 78.6238 21.6101 78.6238C19.9146 78.6238 18.54 80.1569 18.54 82.0481C18.54 83.9393 19.9146 85.4725 21.6101 85.4725Z" fill="#7984EE"/>
<path d="M40.6511 85.4725C42.3467 85.4725 43.7212 83.9393 43.7212 82.0481C43.7212 80.1569 42.3467 78.6238 40.6511 78.6238C38.9556 78.6238 37.5811 80.1569 37.5811 82.0481C37.5811 83.9393 38.9556 85.4725 40.6511 85.4725Z" fill="#7984EE"/>
<path d="M62.7554 82.0481C62.7554 83.9416 61.3829 85.4725 59.6853 85.4725C57.9877 85.4725 56.6152 83.9416 56.6152 82.0481C56.6152 80.1547 57.9877 78.6238 59.6853 78.6238C61.3829 78.6238 62.7554 80.1547 62.7554 82.0481Z" fill="#7984EE"/>
<path d="M5.64615 101.063C5.64615 102.957 4.27365 104.488 2.57609 104.488C0.87852 104.488 -0.5 102.957 -0.5 101.063C-0.5 99.1698 0.872501 97.6389 2.57007 97.6389C4.26763 97.6389 5.64615 99.1698 5.64615 101.063Z" fill="#7984EE"/>
<path d="M21.6101 104.488C23.3057 104.488 24.6802 102.954 24.6802 101.063C24.6802 99.172 23.3057 97.6389 21.6101 97.6389C19.9146 97.6389 18.54 99.172 18.54 101.063C18.54 102.954 19.9146 104.488 21.6101 104.488Z" fill="#7984EE"/>
<path d="M40.6511 104.488C42.3467 104.488 43.7212 102.954 43.7212 101.063C43.7212 99.172 42.3467 97.6389 40.6511 97.6389C38.9556 97.6389 37.5811 99.172 37.5811 101.063C37.5811 102.954 38.9556 104.488 40.6511 104.488Z" fill="#7984EE"/>
<path d="M62.7554 101.063C62.7554 102.957 61.3829 104.488 59.6853 104.488C57.9877 104.488 56.6152 102.957 56.6152 101.063C56.6152 99.1698 57.9877 97.6389 59.6853 97.6389C61.3829 97.6389 62.7554 99.1698 62.7554 101.063Z" fill="#7984EE"/>
<path d="M5.64615 120.079C5.64615 121.972 4.27365 123.503 2.57609 123.503C0.87852 123.503 -0.5 121.972 -0.5 120.079C-0.5 118.185 0.872501 116.654 2.57007 116.654C4.26763 116.654 5.64615 118.185 5.64615 120.079Z" fill="#7984EE"/>
<path d="M21.6101 123.503C23.3057 123.503 24.6802 121.97 24.6802 120.079C24.6802 118.187 23.3057 116.654 21.6101 116.654C19.9146 116.654 18.54 118.187 18.54 120.079C18.54 121.97 19.9146 123.503 21.6101 123.503Z" fill="#7984EE"/>
<path d="M40.6511 123.503C42.3467 123.503 43.7212 121.97 43.7212 120.079C43.7212 118.187 42.3467 116.654 40.6511 116.654C38.9556 116.654 37.5811 118.187 37.5811 120.079C37.5811 121.97 38.9556 123.503 40.6511 123.503Z" fill="#7984EE"/>
<path d="M62.7554 120.079C62.7554 121.972 61.3829 123.503 59.6853 123.503C57.9877 123.503 56.6152 121.972 56.6152 120.079C56.6152 118.185 57.9877 116.654 59.6853 116.654C61.3829 116.654 62.7554 118.185 62.7554 120.079Z" fill="#7984EE"/>
<path d="M5.64615 139.094C5.64615 140.987 4.27365 142.518 2.57609 142.518C0.87852 142.518 -0.5 140.981 -0.5 139.094C-0.5 137.207 0.872501 135.669 2.57007 135.669C4.26763 135.669 5.64615 137.2 5.64615 139.094Z" fill="#7984EE"/>
<path d="M21.6101 142.518C23.3057 142.518 24.6802 140.985 24.6802 139.094C24.6802 137.203 23.3057 135.669 21.6101 135.669C19.9146 135.669 18.54 137.203 18.54 139.094C18.54 140.985 19.9146 142.518 21.6101 142.518Z" fill="#7984EE"/>
<path d="M40.6511 142.518C42.3467 142.518 43.7212 140.985 43.7212 139.094C43.7212 137.203 42.3467 135.669 40.6511 135.669C38.9556 135.669 37.5811 137.203 37.5811 139.094C37.5811 140.985 38.9556 142.518 40.6511 142.518Z" fill="#7984EE"/>
<path d="M62.7554 139.094C62.7554 140.987 61.3829 142.518 59.6853 142.518C57.9877 142.518 56.6152 140.987 56.6152 139.094C56.6152 137.2 57.9877 135.669 59.6853 135.669C61.3829 135.669 62.7554 137.2 62.7554 139.094Z" fill="#7984EE"/>
</g>
<g clip-path="url(#clip1_3344_28948)">
<path d="M5.64615 3.47721C5.64615 5.37067 4.27365 6.90156 2.57609 6.90156C0.87852 6.90156 -0.5 5.37067 -0.5 3.47721C-0.5 1.58374 0.872501 0.0528564 2.57007 0.0528564C4.26763 0.0528564 5.64615 1.58374 5.64615 3.47721Z" fill="#7984EE"/>
<path d="M21.6101 6.90156C23.3057 6.90156 24.6802 5.36842 24.6802 3.47721C24.6802 1.58599 23.3057 0.0528564 21.6101 0.0528564C19.9146 0.0528564 18.54 1.58599 18.54 3.47721C18.54 5.36842 19.9146 6.90156 21.6101 6.90156Z" fill="#7984EE"/>
<path d="M40.6511 6.90156C42.3467 6.90156 43.7212 5.36842 43.7212 3.47721C43.7212 1.58599 42.3467 0.0528564 40.6511 0.0528564C38.9556 0.0528564 37.5811 1.58599 37.5811 3.47721C37.5811 5.36842 38.9556 6.90156 40.6511 6.90156Z" fill="#7984EE"/>
<path d="M62.7554 3.47721C62.7554 5.37067 61.3829 6.90156 59.6853 6.90156C57.9877 6.90156 56.6152 5.37067 56.6152 3.47721C56.6152 1.58374 57.9877 0.0528564 59.6853 0.0528564C61.3829 0.0528564 62.7554 1.58374 62.7554 3.47721Z" fill="#7984EE"/>
<path d="M5.64615 22.4925C5.64615 24.3859 4.27365 25.9168 2.57609 25.9168C0.87852 25.9168 -0.5 24.3859 -0.5 22.4925C-0.5 20.599 0.872501 19.0681 2.57007 19.0681C4.26763 19.0681 5.64615 20.599 5.64615 22.4925Z" fill="#7984EE"/>
<path d="M21.6101 25.9168C23.3057 25.9168 24.6802 24.3837 24.6802 22.4925C24.6802 20.6012 23.3057 19.0681 21.6101 19.0681C19.9146 19.0681 18.54 20.6012 18.54 22.4925C18.54 24.3837 19.9146 25.9168 21.6101 25.9168Z" fill="#7984EE"/>
<path d="M40.6511 25.9168C42.3467 25.9168 43.7212 24.3837 43.7212 22.4925C43.7212 20.6012 42.3467 19.0681 40.6511 19.0681C38.9556 19.0681 37.5811 20.6012 37.5811 22.4925C37.5811 24.3837 38.9556 25.9168 40.6511 25.9168Z" fill="#7984EE"/>
<path d="M62.7554 22.4925C62.7554 24.3859 61.3829 25.9168 59.6853 25.9168C57.9877 25.9168 56.6152 24.3859 56.6152 22.4925C56.6152 20.599 57.9877 19.0681 59.6853 19.0681C61.3829 19.0681 62.7554 20.599 62.7554 22.4925Z" fill="#7984EE"/>
<path d="M5.64615 41.5076C5.64615 43.4011 4.27365 44.9319 2.57609 44.9319C0.87852 44.9319 -0.5 43.4011 -0.5 41.5076C-0.5 39.6141 0.872501 38.0833 2.57007 38.0833C4.26763 38.0833 5.64615 39.6141 5.64615 41.5076Z" fill="#7984EE"/>
<path d="M21.6101 44.9319C23.3057 44.9319 24.6802 43.3988 24.6802 41.5076C24.6802 39.6164 23.3057 38.0833 21.6101 38.0833C19.9146 38.0833 18.54 39.6164 18.54 41.5076C18.54 43.3988 19.9146 44.9319 21.6101 44.9319Z" fill="#7984EE"/>
<path d="M40.6511 44.9319C42.3467 44.9319 43.7212 43.3988 43.7212 41.5076C43.7212 39.6164 42.3467 38.0833 40.6511 38.0833C38.9556 38.0833 37.5811 39.6164 37.5811 41.5076C37.5811 43.3988 38.9556 44.9319 40.6511 44.9319Z" fill="#7984EE"/>
<path d="M62.7554 41.5076C62.7554 43.4011 61.3829 44.9319 59.6853 44.9319C57.9877 44.9319 56.6152 43.4011 56.6152 41.5076C56.6152 39.6141 57.9877 38.0833 59.6853 38.0833C61.3829 38.0833 62.7554 39.6141 62.7554 41.5076Z" fill="#7984EE"/>
<path d="M5.64615 60.5229C5.64615 62.4163 4.27365 63.9472 2.57609 63.9472C0.87852 63.9472 -0.5 62.4096 -0.5 60.5229C-0.5 58.6361 0.872501 57.0985 2.57007 57.0985C4.26763 57.0985 5.64615 58.6294 5.64615 60.5229Z" fill="#7984EE"/>
<path d="M21.6101 63.9472C23.3057 63.9472 24.6802 62.4141 24.6802 60.5229C24.6802 58.6316 23.3057 57.0985 21.6101 57.0985C19.9146 57.0985 18.54 58.6316 18.54 60.5229C18.54 62.4141 19.9146 63.9472 21.6101 63.9472Z" fill="#7984EE"/>
<path d="M40.6511 63.9472C42.3467 63.9472 43.7212 62.4141 43.7212 60.5229C43.7212 58.6316 42.3467 57.0985 40.6511 57.0985C38.9556 57.0985 37.5811 58.6316 37.5811 60.5229C37.5811 62.4141 38.9556 63.9472 40.6511 63.9472Z" fill="#7984EE"/>
<path d="M62.7554 60.5229C62.7554 62.4163 61.3829 63.9472 59.6853 63.9472C57.9877 63.9472 56.6152 62.4163 56.6152 60.5229C56.6152 58.6294 57.9877 57.0985 59.6853 57.0985C61.3829 57.0985 62.7554 58.6294 62.7554 60.5229Z" fill="#7984EE"/>
</g>
<g clip-path="url(#clip2_3344_28948)">
<path d="M82.11 82.0481C82.11 83.9416 80.7375 85.4725 79.04 85.4725C77.3424 85.4725 75.9639 83.9416 75.9639 82.0481C75.9639 80.1547 77.3364 78.6238 79.0339 78.6238C80.7315 78.6238 82.11 80.1547 82.11 82.0481Z" fill="#7984EE"/>
<path d="M98.0749 85.4725C99.7705 85.4725 101.145 83.9393 101.145 82.0481C101.145 80.1569 99.7705 78.6238 98.0749 78.6238C96.3794 78.6238 95.0049 80.1569 95.0049 82.0481C95.0049 83.9393 96.3794 85.4725 98.0749 85.4725Z" fill="#7984EE"/>
<path d="M117.115 85.4725C118.811 85.4725 120.185 83.9393 120.185 82.0481C120.185 80.1569 118.811 78.6238 117.115 78.6238C115.419 78.6238 114.045 80.1569 114.045 82.0481C114.045 83.9393 115.419 85.4725 117.115 85.4725Z" fill="#7984EE"/>
<path d="M139.219 82.0481C139.219 83.9416 137.847 85.4725 136.149 85.4725C134.452 85.4725 133.079 83.9416 133.079 82.0481C133.079 80.1547 134.452 78.6238 136.149 78.6238C137.847 78.6238 139.219 80.1547 139.219 82.0481Z" fill="#7984EE"/>
<path d="M82.11 101.063C82.11 102.957 80.7375 104.488 79.04 104.488C77.3424 104.488 75.9639 102.957 75.9639 101.063C75.9639 99.1698 77.3364 97.6389 79.0339 97.6389C80.7315 97.6389 82.11 99.1698 82.11 101.063Z" fill="#7984EE"/>
<path d="M98.0749 104.488C99.7705 104.488 101.145 102.954 101.145 101.063C101.145 99.172 99.7705 97.6389 98.0749 97.6389C96.3794 97.6389 95.0049 99.172 95.0049 101.063C95.0049 102.954 96.3794 104.488 98.0749 104.488Z" fill="#7984EE"/>
<path d="M117.115 104.488C118.811 104.488 120.185 102.954 120.185 101.063C120.185 99.172 118.811 97.6389 117.115 97.6389C115.419 97.6389 114.045 99.172 114.045 101.063C114.045 102.954 115.419 104.488 117.115 104.488Z" fill="#7984EE"/>
<path d="M139.219 101.063C139.219 102.957 137.847 104.488 136.149 104.488C134.452 104.488 133.079 102.957 133.079 101.063C133.079 99.1698 134.452 97.6389 136.149 97.6389C137.847 97.6389 139.219 99.1698 139.219 101.063Z" fill="#7984EE"/>
<path d="M82.11 120.079C82.11 121.972 80.7375 123.503 79.04 123.503C77.3424 123.503 75.9639 121.972 75.9639 120.079C75.9639 118.185 77.3364 116.654 79.0339 116.654C80.7315 116.654 82.11 118.185 82.11 120.079Z" fill="#7984EE"/>
<path d="M98.0749 123.503C99.7705 123.503 101.145 121.97 101.145 120.079C101.145 118.187 99.7705 116.654 98.0749 116.654C96.3794 116.654 95.0049 118.187 95.0049 120.079C95.0049 121.97 96.3794 123.503 98.0749 123.503Z" fill="#7984EE"/>
<path d="M117.115 123.503C118.811 123.503 120.185 121.97 120.185 120.079C120.185 118.187 118.811 116.654 117.115 116.654C115.419 116.654 114.045 118.187 114.045 120.079C114.045 121.97 115.419 123.503 117.115 123.503Z" fill="#7984EE"/>
<path d="M139.219 120.079C139.219 121.972 137.847 123.503 136.149 123.503C134.452 123.503 133.079 121.972 133.079 120.079C133.079 118.185 134.452 116.654 136.149 116.654C137.847 116.654 139.219 118.185 139.219 120.079Z" fill="#7984EE"/>
<path d="M82.11 139.094C82.11 140.987 80.7375 142.518 79.04 142.518C77.3424 142.518 75.9639 140.981 75.9639 139.094C75.9639 137.207 77.3364 135.669 79.0339 135.669C80.7315 135.669 82.11 137.2 82.11 139.094Z" fill="#7984EE"/>
<path d="M98.0749 142.518C99.7705 142.518 101.145 140.985 101.145 139.094C101.145 137.203 99.7705 135.669 98.0749 135.669C96.3794 135.669 95.0049 137.203 95.0049 139.094C95.0049 140.985 96.3794 142.518 98.0749 142.518Z" fill="#7984EE"/>
<path d="M117.115 142.518C118.811 142.518 120.185 140.985 120.185 139.094C120.185 137.203 118.811 135.669 117.115 135.669C115.419 135.669 114.045 137.203 114.045 139.094C114.045 140.985 115.419 142.518 117.115 142.518Z" fill="#7984EE"/>
<path d="M139.219 139.094C139.219 140.987 137.847 142.518 136.149 142.518C134.452 142.518 133.079 140.987 133.079 139.094C133.079 137.2 134.452 135.669 136.149 135.669C137.847 135.669 139.219 137.2 139.219 139.094Z" fill="#7984EE"/>
</g>
<g clip-path="url(#clip3_3344_28948)">
<path d="M82.11 3.47721C82.11 5.37067 80.7375 6.90156 79.04 6.90156C77.3424 6.90156 75.9639 5.37067 75.9639 3.47721C75.9639 1.58374 77.3364 0.0528564 79.0339 0.0528564C80.7315 0.0528564 82.11 1.58374 82.11 3.47721Z" fill="#7984EE"/>
<path d="M98.0749 6.90156C99.7705 6.90156 101.145 5.36842 101.145 3.47721C101.145 1.58599 99.7705 0.0528564 98.0749 0.0528564C96.3794 0.0528564 95.0049 1.58599 95.0049 3.47721C95.0049 5.36842 96.3794 6.90156 98.0749 6.90156Z" fill="#7984EE"/>
<path d="M117.115 6.90156C118.811 6.90156 120.185 5.36842 120.185 3.47721C120.185 1.58599 118.811 0.0528564 117.115 0.0528564C115.419 0.0528564 114.045 1.58599 114.045 3.47721C114.045 5.36842 115.419 6.90156 117.115 6.90156Z" fill="#7984EE"/>
<path d="M139.219 3.47721C139.219 5.37067 137.847 6.90156 136.149 6.90156C134.452 6.90156 133.079 5.37067 133.079 3.47721C133.079 1.58374 134.452 0.0528564 136.149 0.0528564C137.847 0.0528564 139.219 1.58374 139.219 3.47721Z" fill="#7984EE"/>
<path d="M82.11 22.4923C82.11 24.3858 80.7375 25.9167 79.04 25.9167C77.3424 25.9167 75.9639 24.3858 75.9639 22.4923C75.9639 20.5989 77.3364 19.068 79.0339 19.068C80.7315 19.068 82.11 20.5989 82.11 22.4923Z" fill="#7984EE"/>
<path d="M98.0749 25.9167C99.7705 25.9167 101.145 24.3836 101.145 22.4923C101.145 20.6011 99.7705 19.068 98.0749 19.068C96.3794 19.068 95.0049 20.6011 95.0049 22.4923C95.0049 24.3836 96.3794 25.9167 98.0749 25.9167Z" fill="#7984EE"/>
<path d="M117.115 25.9167C118.811 25.9167 120.185 24.3836 120.185 22.4923C120.185 20.6011 118.811 19.068 117.115 19.068C115.419 19.068 114.045 20.6011 114.045 22.4923C114.045 24.3836 115.419 25.9167 117.115 25.9167Z" fill="#7984EE"/>
<path d="M139.219 22.4923C139.219 24.3858 137.847 25.9167 136.149 25.9167C134.452 25.9167 133.079 24.3858 133.079 22.4923C133.079 20.5989 134.452 19.068 136.149 19.068C137.847 19.068 139.219 20.5989 139.219 22.4923Z" fill="#7984EE"/>
<path d="M82.11 41.5076C82.11 43.4011 80.7375 44.9319 79.04 44.9319C77.3424 44.9319 75.9639 43.4011 75.9639 41.5076C75.9639 39.6141 77.3364 38.0833 79.0339 38.0833C80.7315 38.0833 82.11 39.6141 82.11 41.5076Z" fill="#7984EE"/>
<path d="M98.0749 44.9319C99.7705 44.9319 101.145 43.3988 101.145 41.5076C101.145 39.6164 99.7705 38.0833 98.0749 38.0833C96.3794 38.0833 95.0049 39.6164 95.0049 41.5076C95.0049 43.3988 96.3794 44.9319 98.0749 44.9319Z" fill="#7984EE"/>
<path d="M117.115 44.9319C118.811 44.9319 120.185 43.3988 120.185 41.5076C120.185 39.6164 118.811 38.0833 117.115 38.0833C115.419 38.0833 114.045 39.6164 114.045 41.5076C114.045 43.3988 115.419 44.9319 117.115 44.9319Z" fill="#7984EE"/>
<path d="M139.219 41.5076C139.219 43.4011 137.847 44.9319 136.149 44.9319C134.452 44.9319 133.079 43.4011 133.079 41.5076C133.079 39.6141 134.452 38.0833 136.149 38.0833C137.847 38.0833 139.219 39.6141 139.219 41.5076Z" fill="#7984EE"/>
<path d="M82.11 60.5229C82.11 62.4163 80.7375 63.9472 79.04 63.9472C77.3424 63.9472 75.9639 62.4096 75.9639 60.5229C75.9639 58.6361 77.3364 57.0985 79.0339 57.0985C80.7315 57.0985 82.11 58.6294 82.11 60.5229Z" fill="#7984EE"/>
<path d="M98.0749 63.9472C99.7705 63.9472 101.145 62.4141 101.145 60.5229C101.145 58.6316 99.7705 57.0985 98.0749 57.0985C96.3794 57.0985 95.0049 58.6316 95.0049 60.5229C95.0049 62.4141 96.3794 63.9472 98.0749 63.9472Z" fill="#7984EE"/>
<path d="M117.115 63.9472C118.811 63.9472 120.185 62.4141 120.185 60.5229C120.185 58.6316 118.811 57.0985 117.115 57.0985C115.419 57.0985 114.045 58.6316 114.045 60.5229C114.045 62.4141 115.419 63.9472 117.115 63.9472Z" fill="#7984EE"/>
<path d="M139.219 60.5229C139.219 62.4163 137.847 63.9472 136.149 63.9472C134.452 63.9472 133.079 62.4163 133.079 60.5229C133.079 58.6294 134.452 57.0985 136.149 57.0985C137.847 57.0985 139.219 58.6294 139.219 60.5229Z" fill="#7984EE"/>
</g>
<defs>
<clipPath id="clip0_3344_28948">
<rect width="63.2554" height="63.8944" fill="white" transform="translate(-0.5 78.6238)"/>
</clipPath>
<clipPath id="clip1_3344_28948">
<rect width="63.2554" height="63.8944" fill="white" transform="translate(-0.5 0.0528564)"/>
</clipPath>
<clipPath id="clip2_3344_28948">
<rect width="63.2554" height="63.8944" fill="white" transform="translate(75.9639 78.6238)"/>
</clipPath>
<clipPath id="clip3_3344_28948">
<rect width="63.2554" height="63.8944" fill="white" transform="translate(75.9639 0.0528564)"/>
</clipPath>
</defs>
</svg>
