<svg fill="#000000" xmlns="http://www.w3.org/2000/svg"  viewBox="0 0 48 48" width="48px" height="48px"><path d="M 24 4 C 12.972066 4 4 12.972074 4 24 C 4 35.027926 12.972066 44 24 44 C 35.027934 44 44 35.027926 44 24 C 44 12.972074 35.027934 4 24 4 z M 24 7 C 33.406615 7 41 14.593391 41 24 C 41 32.380773 34.967178 39.306373 27 40.720703 L 27 29 L 30.625 29 C 31.129 29 31.555188 28.623047 31.617188 28.123047 L 31.992188 25.123047 C 32.028188 24.839047 31.938047 24.553891 31.748047 24.337891 C 31.559047 24.122891 31.287 24 31 24 L 27 24 L 27 20.5 C 27 19.397 27.897 18.5 29 18.5 L 31 18.5 C 31.552 18.5 32 18.053 32 17.5 L 32 14.125 C 32 13.607 31.604844 13.174906 31.089844 13.128906 C 31.030844 13.123906 29.619984 13 27.833984 13 C 23.426984 13 21 15.616187 21 20.367188 L 21 24 L 17 24 C 16.448 24 16 24.447 16 25 L 16 28 C 16 28.553 16.448 29 17 29 L 21 29 L 21 40.720703 C 13.032822 39.306373 7 32.380773 7 24 C 7 14.593391 14.593385 7 24 7 z"/></svg>