<svg width="173" height="31" viewBox="0 0 173 31" fill="none" xmlns="http://www.w3.org/2000/svg">
<path d="M3.52459 26.4191L9.82928 0H1.56796L2.26365 2.25832C2.38378 2.54321 2.55715 2.77504 2.76443 2.92798C2.97171 3.08092 3.20477 3.14896 3.43763 3.12451H5.91602C5.98143 3.11001 6.04836 3.11935 6.11055 3.15167C6.17273 3.18399 6.22814 3.23824 6.27158 3.30933C6.31503 3.38042 6.34507 3.46602 6.35893 3.55813C6.37279 3.65025 6.37 3.74587 6.35082 3.83604L0.0461426 30.317H8.09005C8.32111 30.355 8.55484 30.2926 8.76049 30.138C8.96615 29.9834 9.13411 29.7438 9.24228 29.4508L9.93797 27.2544H3.91591C3.61155 27.2544 3.41589 26.945 3.52459 26.4191Z" fill="#07AA3D"/>
<path d="M29.3086 26.2026C29.3086 26.6456 29.1849 27.0705 28.9647 27.3838C28.7446 27.6971 28.446 27.8731 28.1346 27.8731H27.8085C27.6572 27.8691 27.5079 27.8227 27.3692 27.7365C27.2305 27.6504 27.105 27.5262 27.0001 27.3711C26.8951 27.2159 26.8126 27.0329 26.7573 26.8324C26.7021 26.6319 26.6751 26.4179 26.678 26.2026V0H25.1344C24.9702 0.0064526 24.8133 0.0980466 24.6932 0.257558C24.5731 0.417069 24.4981 0.633507 24.4822 0.866197V26.7903C24.4849 27.2899 24.5579 27.7836 24.6968 28.2424C24.8357 28.7012 25.0377 29.1158 25.291 29.4618C25.5442 29.8077 25.8436 30.078 26.1714 30.2568C26.4992 30.4356 26.8489 30.5192 27.1998 30.5026H28.8738C29.5619 30.5027 30.2222 30.1158 30.7109 29.4263C31.1995 28.7368 31.4769 27.8005 31.4826 26.8213V0H29.3086V26.2026Z" fill="#07AA3D"/>
<path d="M53.5055 1.08574L51.0924 18.5335L48.5705 1.11667C48.5288 0.794635 48.407 0.504769 48.2273 0.300215C48.0476 0.0956612 47.8221 -0.00987105 47.5922 0.00298215H46.2443V30.32H48.4183V14.8521L49.701 22.7717C49.701 23.4213 50.0488 25.2465 51.3315 25.2465H52.0054L53.6577 14.8521V30.32H55.8317V0.00298215H54.5056C54.2751 -0.0187567 54.0469 0.0789072 53.8631 0.277923C53.6793 0.476938 53.5523 0.763871 53.5055 1.08574Z" fill="#07AA3D"/>
<path d="M74.1588 0H72.9848L69.7455 30.317H72.1587L74.0718 9.43541L75.985 30.317H78.3982L75.3328 1.6396C75.2241 0.804337 75.0719 0 74.1588 0Z" fill="#07AA3D"/>
<path d="M100.443 13.0858V3.80509C100.443 2.79592 100.161 1.82807 99.6597 1.11448C99.1582 0.400885 98.478 0 97.7688 0H93.7904V30.317H95.9644V17.2003H97.2253C97.7906 17.2003 98.3341 17.6643 98.3341 19.1492V30.2242H100.508V18.6233C100.508 18.6233 100.508 16.365 99.7255 15.7463C100.552 15.4679 100.443 13.0858 100.443 13.0858ZM98.2689 12.498C98.2689 13.8901 97.7254 14.2304 97.1601 14.2304H95.9861V2.6914H97.2253C97.3723 2.67306 97.5203 2.70022 97.6592 2.77103C97.7981 2.84183 97.9246 2.9546 98.03 3.10157C98.1353 3.24855 98.2171 3.42625 98.2696 3.62246C98.3221 3.81867 98.3441 4.02872 98.3341 4.23819L98.2689 12.498Z" fill="#07AA3D"/>
<path d="M143.967 2.0311e-09H139.728V30.317H143.967C144.678 30.3171 145.361 29.9172 145.866 29.2044C146.371 28.4917 146.657 27.5239 146.663 26.5119V3.8051C146.657 2.7931 146.371 1.82531 145.866 1.11259C145.361 0.399873 144.678 -3.29083e-05 143.967 2.0311e-09ZM144.511 25.6457C144.524 25.8646 144.504 26.0851 144.45 26.2913C144.397 26.4975 144.312 26.6842 144.202 26.8381C144.092 26.992 143.959 27.1092 143.813 27.1812C143.667 27.2531 143.512 27.2781 143.358 27.2544H141.923V3.12452H143.358C143.509 3.0964 143.662 3.11627 143.806 3.18268C143.95 3.2491 144.082 3.36039 144.193 3.50849C144.303 3.65658 144.389 3.83777 144.444 4.0389C144.499 4.24002 144.522 4.45605 144.511 4.6713V25.6457Z" fill="#07AA3D"/>
<path d="M125.488 0.5H114.618C114.329 0.5 114.053 0.662963 113.849 0.953042C113.645 1.24312 113.531 1.63655 113.531 2.04679C113.531 2.45702 113.645 2.85045 113.849 3.14053C114.053 3.43061 114.329 3.59357 114.618 3.59357H125.488C125.776 3.59357 126.052 3.43061 126.256 3.14053C126.46 2.85045 126.575 2.45702 126.575 2.04679C126.575 1.63655 126.46 1.24312 126.256 0.953042C126.052 0.662963 125.776 0.5 125.488 0.5Z" fill="#07AA3D"/>
<path d="M124.988 5.8209C124.988 5.42708 124.878 5.04938 124.682 4.7709C124.486 4.49243 124.221 4.33599 123.944 4.33599H116.378C116.102 4.33599 115.836 4.49243 115.641 4.7709C115.445 5.04938 115.335 5.42708 115.335 5.8209C115.332 6.01706 115.357 6.21204 115.408 6.3941C115.46 6.57617 115.536 6.74156 115.634 6.88029C115.731 7.01903 115.848 7.12825 115.976 7.20138C116.104 7.27451 116.241 7.31004 116.378 7.30582H123.944C124.082 7.31004 124.219 7.27451 124.347 7.20138C124.475 7.12825 124.591 7.01903 124.689 6.88029C124.786 6.74156 124.863 6.57617 124.914 6.3941C124.966 6.21204 124.991 6.01706 124.988 5.8209Z" fill="#07AA3D"/>
<path d="M122.227 8.20275H118.074C117.797 8.20275 117.532 8.35919 117.336 8.63767C117.141 8.91615 117.031 9.29384 117.031 9.68767C117.036 10.079 117.148 10.4521 117.342 10.7289C117.537 11.0057 117.799 11.1647 118.074 11.1726H122.227C122.503 11.1726 122.769 11.0161 122.964 10.7377C123.16 10.4592 123.27 10.0815 123.27 9.68767C123.273 9.49151 123.248 9.29652 123.197 9.11446C123.145 8.93239 123.069 8.76701 122.971 8.62828C122.874 8.48954 122.757 8.38031 122.629 8.30718C122.501 8.23405 122.364 8.19853 122.227 8.20275Z" fill="#07AA3D"/>
<path d="M119.618 15.0397H120.705C120.98 15.0318 121.242 14.8728 121.437 14.596C121.631 14.3193 121.743 13.9462 121.748 13.5548C121.748 13.161 121.638 12.7833 121.443 12.5048C121.247 12.2263 120.982 12.0699 120.705 12.0699H119.618C119.48 12.0657 119.343 12.1012 119.215 12.1743C119.087 12.2474 118.971 12.3567 118.873 12.4954C118.776 12.6342 118.699 12.7995 118.648 12.9816C118.596 13.1637 118.571 13.3586 118.574 13.5548C118.574 13.9486 118.684 14.3263 118.88 14.6048C119.076 14.8833 119.341 15.0397 119.618 15.0397Z" fill="#07AA3D"/>
<path d="M125.488 27.507H114.618C114.329 27.507 114.053 27.6699 113.849 27.96C113.645 28.2501 113.531 28.6435 113.531 29.0537C113.531 29.464 113.645 29.8574 113.849 30.1475C114.053 30.4376 114.329 30.6005 114.618 30.6005H125.488C125.776 30.6005 126.052 30.4376 126.256 30.1475C126.46 29.8574 126.575 29.464 126.575 29.0537C126.575 28.6435 126.46 28.2501 126.256 27.96C126.052 27.6699 125.776 27.507 125.488 27.507Z" fill="#07AA3D"/>
<path d="M116.378 26.61H123.944C124.221 26.61 124.486 26.4535 124.682 26.1751C124.878 25.8966 124.988 25.5189 124.988 25.1251C124.991 24.9289 124.966 24.7339 124.914 24.5519C124.863 24.3698 124.786 24.2044 124.689 24.0657C124.591 23.9269 124.475 23.8177 124.347 23.7446C124.219 23.6715 124.082 23.6359 123.944 23.6402H116.378C116.241 23.6359 116.104 23.6715 115.976 23.7446C115.848 23.8177 115.731 23.9269 115.634 24.0657C115.536 24.2044 115.46 24.3698 115.408 24.5519C115.357 24.7339 115.332 24.9289 115.335 25.1251C115.335 25.5189 115.445 25.8966 115.641 26.1751C115.836 26.4535 116.102 26.61 116.378 26.61Z" fill="#07AA3D"/>
<path d="M117.031 21.2576C117.031 21.6514 117.141 22.0291 117.336 22.3076C117.532 22.5861 117.797 22.7425 118.074 22.7425H122.227C122.364 22.7467 122.501 22.7112 122.629 22.6381C122.757 22.565 122.874 22.4557 122.971 22.317C123.069 22.1783 123.145 22.0129 123.197 21.8308C123.248 21.6487 123.273 21.4538 123.27 21.2576C123.27 20.8638 123.16 20.4861 122.964 20.2076C122.769 19.9291 122.503 19.7727 122.227 19.7727H118.074C117.799 19.7806 117.537 19.9396 117.342 20.2164C117.148 20.4931 117.036 20.8662 117.031 21.2576Z" fill="#07AA3D"/>
<path d="M119.618 18.8761H120.705C120.982 18.8761 121.247 18.7196 121.443 18.4412C121.638 18.1627 121.748 17.785 121.748 17.3912C121.743 16.9998 121.631 16.6267 121.437 16.3499C121.242 16.0731 120.98 15.9142 120.705 15.9062H119.618C119.341 15.9063 119.076 16.0627 118.88 16.3412C118.684 16.6197 118.574 16.9973 118.574 17.3912C118.571 17.5873 118.596 17.7823 118.648 17.9644C118.699 18.1464 118.776 18.3118 118.873 18.4506C118.971 18.5893 119.087 18.6985 119.215 18.7716C119.343 18.8448 119.48 18.8803 119.618 18.8761Z" fill="#07AA3D"/>
<path d="M160.859 3.59357H171.621C171.909 3.59357 172.185 3.43061 172.389 3.14053C172.593 2.85045 172.708 2.45702 172.708 2.04679C172.708 1.63655 172.593 1.24312 172.389 0.953042C172.185 0.662963 171.909 0.5 171.621 0.5H160.859C160.571 0.5 160.294 0.662963 160.091 0.953042C159.887 1.24312 159.772 1.63655 159.772 2.04679C159.772 2.45702 159.887 2.85045 160.091 3.14053C160.294 3.43061 160.571 3.59357 160.859 3.59357Z" fill="#07AA3D"/>
<path d="M170.033 4.49104H162.446C162.171 4.49895 161.909 4.65793 161.714 4.93471C161.52 5.21149 161.408 5.58461 161.403 5.97596C161.403 6.36978 161.513 6.74747 161.708 7.02594C161.904 7.30442 162.169 7.46087 162.446 7.46087H170.033C170.31 7.46087 170.576 7.30442 170.771 7.02594C170.967 6.74747 171.077 6.36978 171.077 5.97596C171.071 5.58461 170.96 5.21149 170.765 4.93471C170.571 4.65793 170.309 4.49895 170.033 4.49104Z" fill="#07AA3D"/>
<path d="M169.36 9.84272C169.363 9.64656 169.338 9.45157 169.286 9.26951C169.235 9.08744 169.158 8.92207 169.061 8.78333C168.963 8.64459 168.847 8.53536 168.719 8.46223C168.591 8.3891 168.454 8.35359 168.316 8.35781H164.164C163.887 8.35781 163.621 8.51425 163.426 8.79272C163.23 9.0712 163.12 9.4489 163.12 9.84272C163.126 10.2341 163.237 10.6072 163.432 10.884C163.626 11.1607 163.889 11.3197 164.164 11.3276H168.316C168.593 11.3276 168.858 11.1712 169.054 10.8927C169.25 10.6142 169.36 10.2365 169.36 9.84272Z" fill="#07AA3D"/>
<path d="M166.794 12.2249H165.707C165.569 12.2207 165.432 12.2562 165.304 12.3294C165.176 12.4025 165.06 12.5117 164.963 12.6505C164.865 12.7892 164.789 12.9546 164.737 13.1366C164.686 13.3187 164.661 13.5137 164.664 13.7099C164.664 14.1037 164.774 14.4814 164.969 14.7598C165.165 15.0383 165.43 15.1948 165.707 15.1948H166.794C167.069 15.1869 167.331 15.0279 167.526 14.7511C167.721 14.4743 167.832 14.1012 167.838 13.7099C167.838 13.316 167.728 12.9383 167.532 12.6599C167.336 12.3814 167.071 12.2249 166.794 12.2249Z" fill="#07AA3D"/>
<path d="M171.621 27.6613H160.859C160.571 27.6613 160.294 27.8243 160.091 28.1143C159.887 28.4044 159.772 28.7979 159.772 29.2081C159.772 29.6183 159.887 30.0118 160.091 30.3018C160.294 30.5919 160.571 30.7549 160.859 30.7549H171.621C171.909 30.7549 172.185 30.5919 172.389 30.3018C172.593 30.0118 172.708 29.6183 172.708 29.2081C172.708 28.7979 172.593 28.4044 172.389 28.1143C172.185 27.8243 171.909 27.6613 171.621 27.6613Z" fill="#07AA3D"/>
<path d="M161.403 25.2798C161.408 25.6711 161.52 26.0442 161.714 26.321C161.909 26.5978 162.171 26.7568 162.446 26.7647H170.033C170.309 26.7568 170.571 26.5978 170.765 26.321C170.96 26.0442 171.071 25.6711 171.077 25.2798C171.077 24.886 170.967 24.5083 170.771 24.2298C170.576 23.9513 170.31 23.7949 170.033 23.7949H162.446C162.169 23.7949 161.904 23.9513 161.708 24.2298C161.513 24.5083 161.403 24.886 161.403 25.2798Z" fill="#07AA3D"/>
<path d="M164.164 22.8976H168.316C168.454 22.9018 168.591 22.8663 168.719 22.7931C168.847 22.72 168.963 22.6108 169.061 22.472C169.158 22.3333 169.235 22.1679 169.286 21.9859C169.338 21.8038 169.363 21.6088 169.36 21.4126C169.36 21.0188 169.25 20.6411 169.054 20.3627C168.858 20.0842 168.593 19.9277 168.316 19.9277H164.164C163.889 19.9356 163.626 20.0946 163.432 20.3714C163.237 20.6482 163.126 21.0213 163.12 21.4126C163.12 21.8065 163.23 22.1842 163.426 22.4626C163.621 22.7411 163.887 22.8976 164.164 22.8976Z" fill="#07AA3D"/>
<path d="M166.794 16.0606H165.707C165.43 16.0606 165.165 16.217 164.969 16.4955C164.774 16.774 164.664 17.1517 164.664 17.5455C164.661 17.7417 164.686 17.9367 164.737 18.1187C164.789 18.3008 164.865 18.4662 164.963 18.6049C165.06 18.7436 165.176 18.8529 165.304 18.926C165.432 18.9991 165.569 19.0346 165.707 19.0304H166.794C167.071 19.0304 167.336 18.874 167.532 18.5955C167.728 18.317 167.838 17.9393 167.838 17.5455C167.832 17.1542 167.721 16.781 167.526 16.5043C167.331 16.2275 167.069 16.0685 166.794 16.0606Z" fill="#07AA3D"/>
</svg>
