<svg width="51" height="40" viewBox="0 0 51 40" fill="none" xmlns="http://www.w3.org/2000/svg">
<path d="M42.1799 0.75H9.17972C3.6797 0.75 0.929688 3.50001 0.929688 9.00004V31.0001C0.929688 36.5002 3.6797 39.2502 9.17972 39.2502H42.1799C47.6799 39.2502 50.4299 36.5002 50.4299 31.0001V9.00004C50.4299 3.50001 47.6799 0.75 42.1799 0.75ZM9.17972 22.7501C7.66722 22.7501 6.42971 21.5126 6.42971 20.0001C6.42971 18.4876 7.66722 17.2501 9.17972 17.2501C10.6922 17.2501 11.9297 18.4876 11.9297 20.0001C11.9297 21.5126 10.6922 22.7501 9.17972 22.7501ZM25.6798 28.2501C21.1148 28.2501 17.4298 24.5651 17.4298 20.0001C17.4298 15.4351 21.1148 11.75 25.6798 11.75C30.2448 11.75 33.9298 15.4351 33.9298 20.0001C33.9298 24.5651 30.2448 28.2501 25.6798 28.2501ZM42.1799 22.7501C40.6674 22.7501 39.4299 21.5126 39.4299 20.0001C39.4299 18.4876 40.6674 17.2501 42.1799 17.2501C43.6924 17.2501 44.9299 18.4876 44.9299 20.0001C44.9299 21.5126 43.6924 22.7501 42.1799 22.7501Z" fill="#25373F"/>
</svg>
