<svg width="19" height="21" viewBox="0 0 19 21" fill="none" xmlns="http://www.w3.org/2000/svg">
<path d="M18.0028 13.3981L12.7477 18.6687C11.3731 20.0475 9.45903 20.8378 7.499 20.8378C5.57138 20.8378 3.77755 20.1029 2.44682 18.768C-0.363073 15.9487 -0.318969 11.3178 2.54738 8.44418L8.53516 2.43968C9.47598 1.49573 10.7282 0.976196 12.0589 0.976196C13.3896 0.976196 14.642 1.49573 15.5828 2.43968C17.5241 4.38716 17.5241 7.55563 15.5828 9.50207L9.56571 15.5348C8.52559 16.577 6.71288 16.5791 5.67066 15.5348C4.59918 14.4591 4.59918 12.7092 5.67066 11.6346L10.9561 6.33466C11.16 6.12977 11.4924 6.12977 11.6962 6.33361C11.9001 6.53745 11.9 6.86778 11.6972 7.07267L6.41206 12.3726C5.74512 13.0406 5.74512 14.1288 6.41206 14.7968C7.05494 15.4438 8.18169 15.4417 8.82458 14.7968L14.8417 8.76406C16.3784 7.22426 16.3784 4.71749 14.8417 3.17769C13.3552 1.68702 10.7628 1.68702 9.2763 3.17769L3.28851 9.18219C0.870622 11.6074 0.824427 15.6592 3.18796 18.03C4.32112 19.1663 5.85153 19.7925 7.499 19.7925C9.18411 19.7925 10.8285 19.114 12.0066 17.9307L17.2616 12.6601C17.4655 12.4552 17.7979 12.4552 18.0017 12.659C18.2056 12.8629 18.2066 13.1942 18.0028 13.3981Z" fill="#07AA3D"/>
</svg>
