<?xml version='1.0' encoding='iso-8859-1'?>
<svg version="1.1" xmlns="http://www.w3.org/2000/svg" viewBox="0 0 490 490" xmlns:xlink="http://www.w3.org/1999/xlink" enable-background="new 0 0 490 490">
  <g>
    <g>
      <path d="m295,121.95c0-30.2-24-54.2-54.2-54.2s-54.2,22.9-54.2,53.2 24,54.2 54.2,54.2 54.2-23 54.2-53.2zm-20.7,0c0,18.8-14.6,33.4-33.4,33.4s-33.4-15.7-33.4-33.4c0-18.8 14.6-33.4 33.4-33.4s34.4,14.6 33.4,33.4z"/>
      <path d="m313.1,283.85c4.8-9 57-102.9 57-150.4 0-74-58.4-133.4-129.3-133.4s-129.3,60.5-129.3,133.4c0,34.5 28.3,96.4 57.5,151-102.2,13.7-169,53.7-169,100.2 0,59.4 107.4,105.3 245,105.3s245-45.9 245-105.3c0-48.1-70.4-88.6-176.9-100.8zm-180.7-150.4c0-62.6 49-112.6 108.4-112.6 60.5,0 108.4,50 108.4,112.6 0,56-93.8,211.6-108.4,234.6-27.1-44.8-108.4-181.4-108.4-234.6zm112.6,335.6c-134.5,0-224.1-43.8-224.1-84.4 0-35.5 68-70 159-80.5 26.1,47.1 61,102.4 61,102.4s34.2-53.7 61.4-102.8c96,9.9 166.9,43.9 166.9,80.9-0.1,40.7-89.7,84.4-224.2,84.4z"/>
    </g>
  </g>
</svg>
