<svg width="20" height="20" viewBox="0 0 20 20" fill="none" xmlns="http://www.w3.org/2000/svg">
<path d="M20 2.00098V7.00098C20 7.55298 19.553 8.00098 19 8.00098H14C13.447 8.00098 13 7.55298 13 7.00098C13 6.44898 13.447 6.00098 14 6.00098H16.9099C15.5029 3.56598 12.887 2.00098 10 2.00098C5.589 2.00098 2 5.58998 2 10.001C2 14.412 5.589 18.001 10 18.001C13.058 18.001 15.8031 16.2979 17.1641 13.5559C17.4091 13.0619 18.0109 12.858 18.5039 13.105C18.9989 13.351 19.2011 13.9511 18.9551 14.4451C17.2541 17.8721 13.822 20 10 20C4.486 20 0 15.514 0 10C0 4.486 4.486 0 10 0C13.203 0 16.147 1.53506 18 4.00806V2.00098C18 1.44898 18.447 1.00098 19 1.00098C19.553 1.00098 20 1.44898 20 2.00098Z" fill="#07AA3D"/>
</svg>
