<svg width="51" height="50" viewBox="0 0 51 50" fill="none" xmlns="http://www.w3.org/2000/svg">
<path d="M25.5004 15.8119C20.4341 15.8119 16.3129 19.9332 16.3129 24.9994C16.3129 30.0657 20.4341 34.1869 25.5004 34.1869C30.5666 34.1869 34.6879 30.0657 34.6879 24.9994C34.6879 19.9332 30.5666 15.8119 25.5004 15.8119ZM25.5004 31.5619C21.8831 31.5619 18.9379 28.6167 18.9379 24.9994C18.9379 21.3822 21.8831 18.4369 25.5004 18.4369C29.1176 18.4369 32.0629 21.3822 32.0629 24.9994C32.0629 28.6167 29.1203 31.5619 25.5004 31.5619ZM49.3406 30.6931C47.3168 29.5197 46.0567 27.3383 46.0541 24.9994C46.0515 22.6632 47.3036 20.4844 49.3485 19.2979C50.388 18.6942 50.7424 17.3554 50.1412 16.3159L45.7522 8.74018C45.1511 7.70068 43.8176 7.34103 42.7728 7.94478C40.7332 9.12078 38.2028 9.11814 36.1605 7.93164C34.1419 6.76352 32.8898 4.58745 32.8898 2.25907C32.8898 1.04895 31.9054 0.0645752 30.6926 0.0645752H20.3108C19.098 0.0645752 18.1136 1.04895 18.1136 2.25907C18.1136 4.59007 16.8615 6.76356 14.8376 7.93693C12.8006 9.11556 10.2675 9.12078 8.23312 7.94478C7.18575 7.34366 5.85228 7.70331 5.25116 8.74018L0.856877 16.3212C0.255752 17.3607 0.612727 18.6968 1.66798 19.3058C3.68923 20.4765 4.94662 22.6527 4.95187 24.9889C4.95712 27.3278 3.70498 29.5118 1.65748 30.6983C1.15348 30.9897 0.79125 31.4622 0.641625 32.0266C0.492 32.5883 0.570789 33.1763 0.862164 33.683L5.24851 41.256C5.85226 42.2982 7.18837 42.6552 8.23312 42.0541C10.2701 40.8807 12.8006 40.8833 14.8166 42.0541L14.8219 42.0566C14.8271 42.0593 14.8323 42.0646 14.8376 42.0672C16.8562 43.238 18.1058 45.4114 18.1031 47.7424C18.1031 48.9526 19.0875 49.9369 20.2976 49.9369H30.69C31.9001 49.9369 32.8845 48.9526 32.8845 47.7451C32.8845 45.4141 34.1393 43.2379 36.1632 42.0646C38.1975 40.8833 40.7306 40.8806 42.7676 42.0566C43.8098 42.6578 45.1458 42.2982 45.7496 41.2613L50.1439 33.6777C50.7476 32.6382 50.388 31.3021 49.3406 30.6931ZM43.6969 39.5708C40.917 38.1402 37.5675 38.2163 34.8427 39.7939C32.1442 41.3584 30.4196 44.2118 30.2726 47.3119H20.7177C20.5759 44.2118 18.8539 41.361 16.1554 39.7939C13.4359 38.2163 10.0811 38.1401 7.30386 39.5681L3.34537 32.7379C5.97037 31.0527 7.5821 28.1179 7.57423 24.9784C7.56635 21.8626 5.95987 18.9461 3.34537 17.2556L7.30386 10.4228C10.0837 11.8534 13.4333 11.7773 16.158 10.197C18.8565 8.63254 20.5785 5.78177 20.7255 2.68164H30.2726C30.4196 5.78177 32.1416 8.63257 34.848 10.2023C37.5649 11.7773 40.9144 11.8534 43.6969 10.4228L47.6554 17.2531C45.033 18.9357 43.4265 21.8678 43.4317 24.9994C43.4344 28.1232 45.0409 31.0448 47.658 32.7353L43.6969 39.5708Z" fill="#25314C"/>
</svg>
