<svg width="51" height="50" viewBox="0 0 51 50" fill="none" xmlns="http://www.w3.org/2000/svg">
<path d="M49.23 10.2395C49.0672 9.83265 48.7076 9.53339 48.2771 9.44677C47.844 9.35752 47.4004 9.49396 47.088 9.80109L41.3603 15.5C40.3523 16.5054 38.7064 16.5054 37.6957 15.4947L35.0051 12.8041C33.9971 11.7935 33.9945 10.1503 35.0025 9.13963L40.7014 3.41451C41.0111 3.10213 41.145 2.65587 41.0557 2.22537C40.9665 1.79487 40.6699 1.43523 40.2604 1.27248C35.4068 -0.688393 29.9966 -0.239533 25.4186 2.50359C23.3475 3.74522 21.5993 5.44884 20.3576 7.42547V7.42811L20.1476 7.77458C18.0949 11.1661 17.3021 14.975 17.856 18.7865C17.9662 19.553 17.6906 20.3536 17.1157 20.9285L3.14288 34.9014C1.47863 36.5656 0.5625 38.7785 0.5625 41.1305C0.5625 43.4825 1.47863 45.6954 3.14288 47.3596C4.85963 49.0764 7.11713 49.9347 9.37201 49.9347C11.6269 49.9347 13.8844 49.0764 15.6011 47.3596L29.574 33.3868C30.1489 32.8119 30.9469 32.531 31.7186 32.6491C35.5328 33.2056 39.3232 32.4181 42.7016 30.3837C44.8751 29.0791 46.6995 27.2547 47.9726 25.1127C50.7368 20.5321 51.1961 15.1115 49.23 10.2395ZM45.7177 23.7635C44.6625 25.5406 43.1505 27.05 41.3445 28.1341C38.4911 29.8535 35.2913 30.5176 32.0914 30.0504C30.5164 29.8246 28.8705 30.3733 27.7155 31.5309L13.7426 45.5037C11.3302 47.9161 7.40849 47.9135 4.99611 45.5037C3.82799 44.3356 3.18486 42.7842 3.18486 41.1305C3.18486 39.4767 3.82799 37.9254 4.99611 36.7572L18.969 22.7844C20.1266 21.6268 20.6805 19.9914 20.4495 18.4085C19.9849 15.206 20.6569 11.9983 22.3972 9.11864L22.581 8.81671C23.6021 7.18921 25.0485 5.78485 26.7652 4.75585C30.8786 2.2936 34.698 2.43797 37.3256 3.0811L33.1361 7.28896C31.1122 9.32334 31.1149 12.6309 33.144 14.6626L35.8346 17.3533C37.8637 19.385 41.1739 19.3876 43.2056 17.3611L47.4161 13.1742C48.2797 16.7311 47.6944 20.4927 45.7177 23.7635ZM11.7188 40.7499C11.7188 41.8366 10.8394 42.7186 9.76049 42.7186C8.67637 42.7186 7.78125 41.8366 7.78125 40.7499C7.78125 39.6631 8.63964 38.7811 9.71852 38.7811H9.75789C10.8394 38.7811 11.7188 39.6631 11.7188 40.7499Z" fill="#25314C"/>
</svg>
