<svg width="19" height="20" viewBox="0 0 19 20" fill="none" xmlns="http://www.w3.org/2000/svg">
<path d="M1.36765 4.27587H2.97871C3.41088 4.27587 3.82855 4.09615 4.1577 3.76905L7.52295 0.426444C8.51221 -0.555935 10.0303 0.268419 10.0303 1.78849V17.4529C10.0303 18.973 8.51221 19.7984 7.52295 18.8149L4.1577 15.4723C3.82855 15.1452 3.41088 14.9655 2.97871 14.9655H1.36765C0.612706 14.9655 0 14.2472 0 13.3621V5.88036C0 4.99419 0.612706 4.27587 1.36765 4.27587ZM13.464 14.7207C14.6301 13.3599 15.2721 11.548 15.2721 9.6207C15.2721 7.69335 14.6301 5.88146 13.464 4.52067C13.1959 4.20853 12.7629 4.20848 12.4967 4.52275C12.2295 4.83596 12.2313 5.34483 12.4985 5.65696C13.4048 6.71524 13.9044 8.12412 13.9044 9.62174C13.9044 11.1194 13.4048 12.5282 12.4985 13.5865C12.2313 13.8987 12.2295 14.4064 12.4967 14.7207C12.6298 14.8779 12.8058 14.9569 12.9808 14.9569C13.1559 14.9548 13.33 14.8768 13.464 14.7207ZM15.5611 17.9801C15.386 17.9801 15.2101 17.9021 15.077 17.7449C14.8107 17.4317 14.8107 16.9239 15.0787 16.6107C16.6734 14.7465 17.5515 12.2642 17.5515 9.6207C17.5515 6.97714 16.6734 4.49601 15.0787 2.63066C14.8107 2.31746 14.8107 1.80966 15.077 1.49645C15.3432 1.18325 15.7763 1.1822 16.0444 1.49541C17.898 3.66327 18.9191 6.54956 18.9191 9.6207C18.9191 12.6918 17.898 15.5781 16.0444 17.746C15.9103 17.902 15.7362 17.9801 15.5611 17.9801Z" fill="#07AA3D"/>
</svg>
