<svg width="60" height="60" viewBox="0 0 60 60" fill="none" xmlns="http://www.w3.org/2000/svg">
<path d="M46.2702 28.8088C46.8303 30.7498 47.13 32.8008 47.13 34.9215C47.13 47.0798 37.2735 56.9362 25.1153 56.9362C12.9571 56.9362 3.10059 47.0798 3.10059 34.9215C3.10059 22.7633 12.9571 12.9069 25.1153 12.9069C27.2385 12.9069 29.2919 13.2077 31.2341 13.7679" stroke="#25373F" stroke-width="2.93529" stroke-miterlimit="10" stroke-linecap="round" stroke-linejoin="round"/>
<path d="M25.1151 47.1519C31.8698 47.1519 37.3455 41.6762 37.3455 34.9215C37.3455 28.1669 31.8698 22.6912 25.1151 22.6912C18.3605 22.6912 12.8848 28.1669 12.8848 34.9215C12.8848 41.6762 18.3605 47.1519 25.1151 47.1519Z" stroke="#25373F" stroke-width="2.93529" stroke-miterlimit="10" stroke-linecap="round" stroke-linejoin="round"/>
<path d="M25.1152 34.9215L53.2451 6.79163" stroke="#25373F" stroke-width="2.93529" stroke-miterlimit="10" stroke-linecap="round" stroke-linejoin="round"/>
<path d="M48.3527 11.6838L45.9066 4.34558L38.5684 11.6838L41.0144 19.022L48.3527 21.4681L55.6909 14.1299L48.3527 11.6838Z" stroke="#25373F" stroke-width="2.93529" stroke-miterlimit="10" stroke-linecap="round" stroke-linejoin="round"/>
</svg>
