<svg width="63" height="63" viewBox="0 0 63 63" fill="none" xmlns="http://www.w3.org/2000/svg">
<path d="M46.2867 16.0868C49.4782 16.0868 52.0655 13.4995 52.0655 10.3079C52.0655 7.11633 49.4782 4.52905 46.2867 4.52905C43.0951 4.52905 40.5078 7.11633 40.5078 10.3079C40.5078 13.4995 43.0951 16.0868 46.2867 16.0868Z" stroke="#25373F" stroke-width="2.93529" stroke-miterlimit="10" stroke-linecap="round" stroke-linejoin="round"/>
<path d="M32.8032 16.0868L22.6298 28.1094C22.1456 28.6818 21.7926 29.3534 21.5956 30.0768C21.3985 30.8003 21.3623 31.5581 21.4893 32.297C21.6163 33.0359 21.9036 33.7381 22.3309 34.3542C22.7582 34.9703 23.3152 35.4854 23.9628 35.8633L32.861 41.054C33.0156 41.145 33.1494 41.2674 33.2538 41.4132C33.3582 41.5591 33.4309 41.7252 33.4672 41.9009C33.5035 42.0766 33.5026 42.2579 33.4645 42.4332C33.4265 42.6085 33.3521 42.7739 33.2463 42.9187L23.8139 55.8967" stroke="#25373F" stroke-width="2.93529" stroke-miterlimit="10" stroke-linecap="round" stroke-linejoin="round"/>
<path d="M13.54 19.9394L18.1631 13.0047C18.313 12.7793 18.5303 12.6069 18.784 12.5124C19.0377 12.4178 19.3148 12.4059 19.5757 12.4782L32.8029 16.0868L43.0764 23.7919L48.9837 34.4186C49.1291 34.6803 49.3615 34.883 49.6405 34.9916C49.9196 35.1001 50.2278 35.1078 50.5119 35.0132L57.2025 32.7813" stroke="#25373F" stroke-width="2.93529" stroke-miterlimit="10" stroke-linecap="round" stroke-linejoin="round"/>
<path d="M43.0762 23.7919L34.0869 34.4262" stroke="#25373F" stroke-width="2.93529" stroke-miterlimit="10" stroke-linecap="round" stroke-linejoin="round"/>
<path d="M18.6769 40.4863L5.83496 55.8966" stroke="#25373F" stroke-width="2.93529" stroke-miterlimit="10" stroke-linecap="round" stroke-linejoin="round"/>
</svg>
