<svg width="20" height="16" viewBox="0 0 20 16" fill="none" xmlns="http://www.w3.org/2000/svg">
<path d="M19.5002 8.00001C19.5002 8.27601 19.2762 8.50001 19.0002 8.50001H2.2072L8.35319 14.646C8.54819 14.841 8.54819 15.158 8.35319 15.353C8.25519 15.451 8.12719 15.499 7.99919 15.499C7.87119 15.499 7.74318 15.45 7.64518 15.353L0.645184 8.35304C0.599184 8.30704 0.562273 8.25095 0.537273 8.18995C0.486273 8.06795 0.486273 7.93012 0.537273 7.80812C0.562273 7.74612 0.599184 7.69103 0.645184 7.64503L7.64518 0.645029C7.84018 0.450029 8.15721 0.450029 8.35221 0.645029C8.54721 0.840029 8.54721 1.15706 8.35221 1.35206L2.20622 7.49806H19.0002C19.2762 7.50006 19.5002 7.72401 19.5002 8.00001Z" fill="#25314C"/>
</svg>
