<svg width="24" height="24" viewBox="0 0 24 24" fill="none" xmlns="http://www.w3.org/2000/svg">
<path d="M10.6594 4.2254e-08C12.1273 -0.000130529 13.5793 0.302356 14.9249 0.88855C16.2704 1.47474 17.4805 2.33205 18.4795 3.40686C19.4786 4.48168 20.245 5.75091 20.731 7.13521C21.2169 8.51951 21.412 9.98912 21.3039 11.4522C20.8847 11.2402 20.446 11.0691 19.9939 10.9415C20.0492 9.07282 19.5417 7.2306 18.5373 5.65353C17.5328 4.07645 16.0777 2.83719 14.3603 2.09631C12.643 1.35543 10.7426 1.14707 8.90542 1.49823C7.06822 1.84939 5.37887 2.74388 4.05623 4.06581C2.73359 5.38774 1.83862 7.0762 1.48728 8.91242C1.13593 10.7486 1.3444 12.648 2.08568 14.3644C2.82695 16.0808 4.06687 17.5352 5.64479 18.5391C7.22271 19.5431 9.06591 20.0502 10.9356 19.995C11.0637 20.4523 11.2344 20.8897 11.4452 21.3057C10.0154 21.4094 8.57941 21.2242 7.22283 20.7611C5.86626 20.2979 4.61693 19.5664 3.54942 18.6102C2.4819 17.6539 1.61808 16.4925 1.0095 15.1953C0.400914 13.898 0.0600487 12.4915 0.00724353 11.0597C-0.0455617 9.62795 0.190775 8.2002 0.702149 6.8617C1.21352 5.5232 1.98945 4.30138 2.98363 3.26917C3.97781 2.23695 5.16986 1.41549 6.48864 0.853814C7.80742 0.292138 9.2259 0.00175666 10.6594 4.2254e-08Z" fill="#828282"/>
<path d="M6.86366 13.9007C7.41407 14.4555 8.07964 14.8827 8.81337 15.1523C9.54709 15.4219 10.3311 15.5271 11.11 15.4607C10.9481 15.8989 10.8289 16.3517 10.7538 16.8127C9.85617 16.8265 8.96503 16.6589 8.1338 16.32C7.30257 15.9812 6.54838 15.478 5.91647 14.8407C5.79175 14.7151 5.72203 14.5452 5.72266 14.3683C5.72329 14.1914 5.7942 14.022 5.91981 13.8973C6.04541 13.7727 6.21542 13.703 6.39242 13.7036C6.56943 13.7042 6.73894 13.7751 6.86366 13.9007Z" fill="#828282"/>
<path d="M13.9942 7.33252C14.348 7.33252 14.6874 7.473 14.9375 7.72305C15.1877 7.9731 15.3283 8.31225 15.3283 8.66587C15.3283 9.0195 15.1877 9.35864 14.9375 9.6087C14.6874 9.85875 14.348 9.99923 13.9942 9.99923C13.6404 9.99923 13.3011 9.85875 13.0509 9.6087C12.8007 9.35864 12.6602 9.0195 12.6602 8.66587C12.6602 8.31225 12.8007 7.9731 13.0509 7.72305C13.3011 7.473 13.6404 7.33252 13.9942 7.33252Z" fill="#828282"/>
<path d="M7.3243 7.33276C7.67811 7.33276 8.01744 7.47324 8.26762 7.72329C8.51781 7.97335 8.65836 8.31249 8.65836 8.66612C8.65836 9.01974 8.51781 9.35889 8.26762 9.60894C8.01744 9.85899 7.67811 9.99947 7.3243 9.99947C6.97048 9.99947 6.63116 9.85899 6.38097 9.60894C6.13079 9.35889 5.99023 9.01974 5.99023 8.66612C5.99023 8.31249 6.13079 7.97335 6.38097 7.72329C6.63116 7.47324 6.97048 7.33276 7.3243 7.33276Z" fill="#828282"/>
<path d="M24.0007 17.9996C24.0007 19.5909 23.3682 21.1171 22.2424 22.2423C21.1166 23.3675 19.5896 23.9997 17.9974 23.9997C16.4053 23.9997 14.8783 23.3675 13.7525 22.2423C12.6266 21.1171 11.9941 19.5909 11.9941 17.9996C11.9941 16.4083 12.6266 14.8821 13.7525 13.7569C14.8783 12.6317 16.4053 11.9995 17.9974 11.9995C19.5896 11.9995 21.1166 12.6317 22.2424 13.7569C23.3682 14.8821 24.0007 16.4083 24.0007 17.9996ZM18.6645 15.3329C18.6645 15.1561 18.5942 14.9865 18.4691 14.8615C18.344 14.7365 18.1743 14.6662 17.9974 14.6662C17.8205 14.6662 17.6509 14.7365 17.5258 14.8615C17.4007 14.9865 17.3304 15.1561 17.3304 15.3329V17.3329H15.3293C15.1524 17.3329 14.9827 17.4032 14.8576 17.5282C14.7325 17.6532 14.6623 17.8228 14.6623 17.9996C14.6623 18.1764 14.7325 18.346 14.8576 18.471C14.9827 18.596 15.1524 18.6663 15.3293 18.6663H17.3304V20.6663C17.3304 20.8431 17.4007 21.0127 17.5258 21.1377C17.6509 21.2627 17.8205 21.333 17.9974 21.333C18.1743 21.333 18.344 21.2627 18.4691 21.1377C18.5942 21.0127 18.6645 20.8431 18.6645 20.6663V18.6663H20.6656C20.8425 18.6663 21.0121 18.596 21.1372 18.471C21.2623 18.346 21.3326 18.1764 21.3326 17.9996C21.3326 17.8228 21.2623 17.6532 21.1372 17.5282C21.0121 17.4032 20.8425 17.3329 20.6656 17.3329H18.6645V15.3329Z" fill="#828282"/>
</svg>
