<svg width="20" height="26" viewBox="0 0 20 26" fill="none" xmlns="http://www.w3.org/2000/svg">
<path d="M19.6338 11.3839C19.3901 11.6276 19.07 11.7501 18.75 11.7501C18.43 11.7501 18.11 11.6276 17.8663 11.3839L11.25 4.76766V24.2501C11.25 24.9401 10.6913 25.5001 10 25.5001C9.3088 25.5001 8.75005 24.9401 8.75005 24.2501V4.76766L2.13384 11.3839C1.64509 11.8726 0.855007 11.8726 0.366257 11.3839C-0.122493 10.8951 -0.122493 10.105 0.366257 9.61629L9.11504 0.867515C9.23129 0.751265 9.3687 0.659963 9.52245 0.596213C9.82745 0.469963 10.1726 0.469963 10.4776 0.596213C10.6314 0.659963 10.7688 0.751265 10.8851 0.867515L19.6338 9.61629C20.1226 10.105 20.1226 10.8951 19.6338 11.3839Z" fill="white"/>
</svg>
