<svg width="20" height="19" viewBox="0 0 20 19" fill="none" xmlns="http://www.w3.org/2000/svg">
<path d="M15.625 0H4.375C1.84 0 0.5 1.34 0.5 3.875V15.125C0.5 17.66 1.84 19 4.375 19H15.625C18.16 19 19.5 17.66 19.5 15.125V3.875C19.5 1.34 18.16 0 15.625 0ZM18.5 15.125C18.5 17.086 17.587 18 15.625 18H4.375C2.413 18 1.5 17.086 1.5 15.125V3.875C1.5 1.914 2.413 1 4.375 1H15.625C17.587 1 18.5 1.914 18.5 3.875V15.125ZM11.354 6.854L8.70801 9.5L11.354 12.146C11.549 12.341 11.549 12.658 11.354 12.853C11.256 12.951 11.128 12.999 11 12.999C10.872 12.999 10.744 12.95 10.646 12.853L7.646 9.85303C7.451 9.65803 7.451 9.341 7.646 9.146L10.646 6.146C10.841 5.951 11.158 5.951 11.353 6.146C11.548 6.341 11.549 6.658 11.354 6.854Z" fill="#8E8E93"/>
</svg>
