<svg width="20" height="19" viewBox="0 0 20 19" fill="none" xmlns="http://www.w3.org/2000/svg">
<path d="M15.625 0H4.375C1.84 0 0.5 1.34 0.5 3.875V15.125C0.5 17.66 1.84 19 4.375 19H15.625C18.16 19 19.5 17.66 19.5 15.125V3.875C19.5 1.34 18.16 0 15.625 0ZM18.5 15.125C18.5 17.086 17.587 18 15.625 18H4.375C2.413 18 1.5 17.086 1.5 15.125V3.875C1.5 1.914 2.413 1 4.375 1H15.625C17.587 1 18.5 1.914 18.5 3.875V15.125ZM12.354 9.146C12.549 9.341 12.549 9.65803 12.354 9.85303L9.354 12.853C9.256 12.951 9.128 12.999 9 12.999C8.872 12.999 8.744 12.95 8.646 12.853C8.451 12.658 8.451 12.341 8.646 12.146L11.292 9.5L8.646 6.854C8.451 6.659 8.451 6.34197 8.646 6.14697C8.841 5.95197 9.15803 5.95197 9.35303 6.14697L12.354 9.146Z" fill="#8E8E93"/>
</svg>
