<svg width="22" height="22" viewBox="0 0 22 22" fill="none" xmlns="http://www.w3.org/2000/svg">
<path d="M11 0C4.92494 0 0 4.92494 0 11C0 17.0751 4.92494 22 11 22C17.0751 22 22 17.0751 22 11C22 4.92494 17.0751 0 11 0ZM1.25278 11.6111H3.68683C3.74306 13.1426 4.00583 14.5878 4.43789 15.8889H2.541C1.80339 14.6159 1.34933 13.1639 1.25278 11.6111V11.6111ZM11.6111 4.88889V1.27172C13.2898 1.53817 14.7657 2.89422 15.7661 4.88889H11.6111ZM16.2867 6.11111C16.7475 7.38406 17.0317 8.83667 17.0916 10.3889H11.6111V6.11111H16.2867ZM10.3889 1.27172V4.88889H6.23394C7.23372 2.89422 8.71017 1.53817 10.3889 1.27172ZM10.3889 6.11111V10.3889H4.90844C4.96833 8.83667 5.2525 7.38406 5.71328 6.11111H10.3889ZM3.68744 10.3889H1.25278C1.34933 8.83667 1.80339 7.38406 2.54039 6.11111H4.43728C4.00644 7.41217 3.74367 8.85806 3.68744 10.3889ZM4.90844 11.6111H10.3889V15.8889H5.71328C5.2525 14.6159 4.96833 13.1639 4.90844 11.6111ZM10.3889 17.1111V20.7283C8.71017 20.4612 7.23372 19.1058 6.23394 17.1111H10.3889V17.1111ZM11.6111 20.7283V17.1111H15.7667C14.7663 19.1058 13.2898 20.4612 11.6111 20.7283ZM11.6111 15.8889V11.6111H17.0922C17.0317 13.1639 16.7481 14.6159 16.2873 15.8889H11.6111ZM18.3132 11.6111H20.7466C20.6507 13.1639 20.1966 14.6159 19.459 15.8889H17.5621C17.9936 14.5878 18.2563 13.1426 18.3132 11.6111ZM18.3132 10.3889C18.2563 8.85806 17.9936 7.41217 17.5621 6.11111H19.459C20.1966 7.38406 20.6507 8.83667 20.7466 10.3889H18.3132ZM18.6261 4.88889H17.0964C16.6583 3.90867 16.115 3.04639 15.4959 2.32283C16.7114 2.9535 17.7766 3.82983 18.6261 4.88889ZM6.50406 2.32283C5.88439 3.04639 5.34111 3.90867 4.90294 4.88889H3.37394C4.22339 3.82983 5.28856 2.95411 6.50406 2.32283ZM3.37394 17.1111H4.90356C5.34111 18.0913 5.88439 18.9536 6.50406 19.6766C5.28856 19.0459 4.22339 18.1702 3.37394 17.1111ZM15.4959 19.6766C16.1156 18.953 16.6583 18.0913 17.0964 17.1111H18.6261C17.7766 18.1702 16.7114 19.0459 15.4959 19.6766Z" fill="#828282"/>
</svg>
