<svg width="18" height="20" viewBox="0 0 18 20" fill="none" xmlns="http://www.w3.org/2000/svg">
<path d="M11.167 18.252C10.711 19.033 9.903 19.5 9.005 19.5C8.107 19.5 7.298 19.033 6.843 18.252C6.753 18.097 6.75299 17.906 6.84199 17.751C6.93099 17.596 7.096 17.5 7.276 17.5H10.736C10.915 17.5 11.08 17.596 11.17 17.751C11.26 17.906 11.257 18.098 11.167 18.252ZM17.4 15.69C17.38 15.66 15.5 13.28 15.5 10.5V7C15.5 6.864 15.495 6.731 15.487 6.598C15.478 6.458 15.384 6.384 15.344 6.356C15.308 6.331 15.213 6.28399 15.09 6.32499C14.756 6.43699 14.398 6.49699 14.025 6.49899C12.324 6.51099 10.793 5.23 10.541 3.548C10.414 2.696 10.587 1.89 10.991 1.222C11.095 1.05 11.03 0.820995 10.838 0.764995C9.80199 0.459995 8.649 0.400988 7.474 0.679988C4.512 1.38399 2.50999 4.169 2.50999 7.214V10.5C2.50999 13.28 0.629997 15.66 0.609997 15.69C0.489997 15.84 0.47 16.04 0.55 16.22C0.64 16.39 0.809997 16.5 0.999997 16.5H17C17.2 16.5 17.37 16.39 17.46 16.22C17.54 16.04 17.52 15.84 17.4 15.69ZM14 0.999995C12.895 0.999995 12 1.895 12 3C12 4.105 12.895 5 14 5C15.105 5 16 4.105 16 3C16 1.895 15.105 0.999995 14 0.999995Z" fill="#07AA3D"/>
</svg>
