<svg width="23" height="23" viewBox="0 0 23 23" fill="none" xmlns="http://www.w3.org/2000/svg">
<path d="M11.9772 0.982452C5.92368 0.982452 0.998047 5.83087 0.998047 11.7895C0.998047 17.7481 5.92368 22.5965 11.9772 22.5965C18.0306 22.5965 22.9563 17.7481 22.9563 11.7895C22.9563 5.83087 18.0306 0.982452 11.9772 0.982452ZM2.99425 11.7895C2.99425 6.91452 7.02358 2.94736 11.9772 2.94736C14.0951 2.94736 16.0405 3.67644 17.5776 4.88781L4.9656 17.3021C3.73494 15.7891 2.99425 13.8742 2.99425 11.7895ZM11.9772 20.6316C9.85919 20.6316 7.91381 19.9025 6.37673 18.6911L18.9887 6.27683C20.2194 7.79079 20.9601 9.70568 20.9601 11.7895C20.9601 16.6644 16.9307 20.6316 11.9772 20.6316Z" fill="#8E8E93"/>
</svg>
