<svg width="14" height="10" viewBox="0 0 14 10" fill="none" xmlns="http://www.w3.org/2000/svg">
<path fill-rule="evenodd" clip-rule="evenodd" d="M2.49692 7.66667V9C2.49692 9.17681 2.56715 9.34638 2.69218 9.4714C2.8172 9.59643 2.98677 9.66667 3.16358 9.66667H13.1636C13.3404 9.66667 13.51 9.59643 13.635 9.4714C13.76 9.34638 13.8302 9.17681 13.8302 9V3.66667C13.8302 3.48986 13.76 3.32029 13.635 3.19526C13.51 3.07024 13.3404 3 13.1636 3H12.3336V4.223C12.4249 4.35927 12.5484 4.47092 12.6932 4.54807C12.838 4.62522 12.9995 4.6655 13.1636 4.66533V8C12.8993 8.0015 12.6464 8.10751 12.4601 8.29489C12.2738 8.48226 12.1692 8.73576 12.1692 9H4.16192C4.15841 8.73727 4.05172 8.48646 3.86487 8.30173C3.67801 8.117 3.426 8.01317 3.16325 8.01267V7.66667H2.49658H2.49692Z" fill="#B3B3B3"/>
<path d="M7.33366 3.66668C7.33366 4.0203 7.19318 4.35944 6.94313 4.60949C6.69309 4.85953 6.35395 5.00001 6.00033 5.00001C5.6467 5.00001 5.30757 4.85953 5.05752 4.60949C4.80747 4.35944 4.66699 4.0203 4.66699 3.66668C4.66699 3.31305 4.80747 2.97392 5.05752 2.72387C5.30757 2.47382 5.6467 2.33334 6.00033 2.33334C6.35395 2.33334 6.69309 2.47382 6.94313 2.72387C7.19318 2.97392 7.33366 3.31305 7.33366 3.66668Z" fill="#B3B3B3"/>
<path fill-rule="evenodd" clip-rule="evenodd" d="M1.00016 0.333344C0.823352 0.333344 0.653782 0.403582 0.528758 0.528606C0.403734 0.65363 0.333496 0.823199 0.333496 1.00001V6.33334C0.333496 6.51015 0.403734 6.67972 0.528758 6.80475C0.653782 6.92977 0.823352 7.00001 1.00016 7.00001H11.0002C11.177 7.00001 11.3465 6.92977 11.4716 6.80475C11.5966 6.67972 11.6668 6.51015 11.6668 6.33334V1.00001C11.6668 0.823199 11.5966 0.65363 11.4716 0.528606C11.3465 0.403582 11.177 0.333344 11.0002 0.333344H1.00016ZM1.9995 1.00001H10.0005C10.0008 1.26496 10.1062 1.51898 10.2936 1.70623C10.4811 1.89349 10.7352 1.99868 11.0002 1.99868V5.33334C10.7359 5.33467 10.4829 5.44063 10.2965 5.62804C10.1102 5.81545 10.0056 6.06905 10.0058 6.33334H1.99883C1.9955 6.07056 1.88886 5.81965 1.70197 5.63488C1.51508 5.45011 1.26297 5.34634 1.00016 5.34601V2.00001C1.13145 2.00001 1.26146 1.97414 1.38275 1.92388C1.50403 1.87361 1.61423 1.79994 1.70703 1.70708C1.79984 1.61421 1.87344 1.50396 1.92362 1.38264C1.9738 1.26132 1.99958 1.1313 1.9995 1.00001Z" fill="#B3B3B3"/>
</svg>
