<svg width="13" height="10" viewBox="0 0 13 10" fill="none" xmlns="http://www.w3.org/2000/svg">
<path d="M10.455 0.455054C10.6649 0.246962 10.9483 0.129848 11.2439 0.129033C11.5395 0.128217 11.8235 0.243765 12.0346 0.450696C12.2456 0.657627 12.3668 0.939314 12.3718 1.23486C12.3769 1.5304 12.2654 1.81605 12.0615 2.03005L6.07349 9.51506C5.97058 9.6259 5.84637 9.71486 5.70829 9.7766C5.57021 9.83835 5.4211 9.87162 5.26987 9.87442C5.11864 9.87722 4.9684 9.84949 4.82813 9.7929C4.68786 9.73631 4.56044 9.65202 4.45349 9.54505L0.485992 5.57605C0.375462 5.47306 0.286809 5.34886 0.225321 5.21086C0.163833 5.07286 0.13077 4.92389 0.128105 4.77284C0.12544 4.62178 0.153227 4.47174 0.209808 4.33166C0.26639 4.19158 0.350607 4.06433 0.457435 3.9575C0.564263 3.85067 0.691514 3.76645 0.831596 3.70987C0.971678 3.65329 1.12172 3.6255 1.27278 3.62817C1.42383 3.63083 1.5728 3.6639 1.7108 3.72538C1.8488 3.78687 1.973 3.87552 2.07599 3.98605L5.21699 7.12555L10.4265 0.488055C10.4358 0.476432 10.4458 0.46541 10.4565 0.455054H10.455Z" fill="#07AA3D"/>
</svg>
