<svg width="19" height="13" viewBox="0 0 19 13" fill="none" xmlns="http://www.w3.org/2000/svg">
<path d="M17.0782 0.0933838H1.58234C1.23986 0.0933838 0.911405 0.226984 0.669235 0.464794C0.427065 0.702603 0.291016 1.02514 0.291016 1.36146V11.506C0.291016 11.8423 0.427065 12.1649 0.669235 12.4027C0.911405 12.6405 1.23986 12.7741 1.58234 12.7741H17.0782C17.4207 12.7741 17.7491 12.6405 17.9913 12.4027C18.2335 12.1649 18.3695 11.8423 18.3695 11.506V1.36146C18.3695 1.02514 18.2335 0.702603 17.9913 0.464794C17.7491 0.226984 17.4207 0.0933838 17.0782 0.0933838ZM8.68461 4.53164H5.45631V8.33585H8.68461V9.60393H5.45631C5.11382 9.60393 4.78537 9.47033 4.5432 9.23252C4.30103 8.99471 4.16498 8.67217 4.16498 8.33585V4.53164C4.16498 4.19532 4.30103 3.87278 4.5432 3.63497C4.78537 3.39717 5.11382 3.26356 5.45631 3.26356H8.68461V4.53164ZM15.1412 4.53164H11.9129V8.33585H15.1412V9.60393H11.9129C11.5704 9.60393 11.242 9.47033 10.9998 9.23252C10.7576 8.99471 10.6216 8.67217 10.6216 8.33585V4.53164C10.6216 4.19532 10.7576 3.87278 10.9998 3.63497C11.242 3.39717 11.5704 3.26356 11.9129 3.26356H15.1412V4.53164Z" fill="#4E4E4E"/>
</svg>
