<svg width="14" height="14" viewBox="0 0 14 14" fill="none" xmlns="http://www.w3.org/2000/svg">
<path d="M7 0C3.14 0 0 3.14 0 7C0 10.86 3.14 14 7 14C10.86 14 14 10.86 14 7C14 3.14 10.86 0 7 0ZM7 13.3333C3.508 13.3333 0.666667 10.492 0.666667 7C0.666667 3.508 3.508 0.666667 7 0.666667C10.492 0.666667 13.3333 3.508 13.3333 7C13.3333 10.492 10.492 13.3333 7 13.3333ZM9.236 8.764C9.366 8.894 9.366 9.10535 9.236 9.23535C9.17067 9.30068 9.08533 9.33268 9 9.33268C8.91467 9.33268 8.82933 9.30002 8.764 9.23535L6.764 7.23535C6.70133 7.17269 6.66667 7.08802 6.66667 6.99935V3.66602C6.66667 3.48202 6.816 3.33268 7 3.33268C7.184 3.33268 7.33333 3.48202 7.33333 3.66602V6.86133L9.236 8.764Z" fill="#8E8E93"/>
</svg>
