<svg width="71" height="70" viewBox="0 0 71 70" fill="none" xmlns="http://www.w3.org/2000/svg">
<path d="M33.0788 27.489C33.4074 27.1604 33.5921 26.7147 33.5921 26.25C33.5921 25.7853 33.4074 25.3396 33.0788 25.011C32.7502 24.6824 32.3046 24.4978 31.8398 24.4978C31.3751 24.4978 30.9294 24.6824 30.6008 25.011L25.6588 29.953L24.2693 28.686C23.9241 28.3909 23.4777 28.2416 23.0244 28.2696C22.571 28.2976 22.1464 28.5008 21.8401 28.8361C21.5338 29.1715 21.3699 29.6128 21.383 30.0668C21.3961 30.5208 21.5852 30.9519 21.9103 31.269L24.5353 33.6665C24.8679 33.9693 25.3044 34.1324 25.7541 34.122C26.2037 34.1116 26.6321 33.9284 26.9503 33.6105L33.0753 27.4855L33.0788 27.489ZM33.0788 42.511C33.2418 42.6736 33.3711 42.8667 33.4593 43.0793C33.5476 43.2919 33.593 43.5198 33.593 43.75C33.593 43.9802 33.5476 44.2081 33.4593 44.4207C33.3711 44.6333 33.2418 44.8264 33.0788 44.989L26.9538 51.114C26.635 51.4324 26.2056 51.6156 25.7551 51.6254C25.3046 51.6352 24.8677 51.4708 24.5353 51.1665L21.9103 48.769C21.5852 48.4519 21.3961 48.0208 21.383 47.5668C21.3699 47.1128 21.5338 46.6715 21.8401 46.3361C22.1464 46.0008 22.571 45.7976 23.0244 45.7696C23.4777 45.7416 23.9241 45.8909 24.2693 46.186L25.6588 47.4565L30.6008 42.511C30.7634 42.348 30.9565 42.2187 31.1691 42.1305C31.3817 42.0423 31.6097 41.9969 31.8398 41.9969C32.07 41.9969 32.298 42.0423 32.5106 42.1305C32.7232 42.2187 32.9163 42.348 33.0788 42.511ZM38.8398 44.625C38.3757 44.625 37.9306 44.8094 37.6024 45.1376C37.2742 45.4658 37.0898 45.9109 37.0898 46.375C37.0898 46.8391 37.2742 47.2842 37.6024 47.6124C37.9306 47.9406 38.3757 48.125 38.8398 48.125H47.5898C48.054 48.125 48.4991 47.9406 48.8273 47.6124C49.1555 47.2842 49.3398 46.8391 49.3398 46.375C49.3398 45.9109 49.1555 45.4658 48.8273 45.1376C48.4991 44.8094 48.054 44.625 47.5898 44.625H38.8398ZM37.0898 28.875C37.0898 28.4109 37.2742 27.9658 37.6024 27.6376C37.9306 27.3094 38.3757 27.125 38.8398 27.125H47.5898C48.054 27.125 48.4991 27.3094 48.8273 27.6376C49.1555 27.9658 49.3398 28.4109 49.3398 28.875C49.3398 29.3391 49.1555 29.7843 48.8273 30.1124C48.4991 30.4406 48.054 30.625 47.5898 30.625H38.8398C38.3757 30.625 37.9306 30.4406 37.6024 30.1124C37.2742 29.7843 37.0898 29.3391 37.0898 28.875ZM30.0898 7C29.0037 6.99943 27.9441 7.33575 27.0571 7.9626C26.1701 8.58945 25.4994 9.47598 25.1373 10.5H19.5898C18.1975 10.5 16.8621 11.0531 15.8775 12.0377C14.893 13.0223 14.3398 14.3576 14.3398 15.75V57.75C14.3398 59.1424 14.893 60.4777 15.8775 61.4623C16.8621 62.4469 18.1975 63 19.5898 63H51.0898C52.4822 63 53.8176 62.4469 54.8022 61.4623C55.7867 60.4777 56.3398 59.1424 56.3398 57.75V15.75C56.3398 14.3576 55.7867 13.0223 54.8022 12.0377C53.8176 11.0531 52.4822 10.5 51.0898 10.5H45.5423C45.1803 9.47598 44.5096 8.58945 43.6226 7.9626C42.7356 7.33575 41.676 6.99943 40.5898 7H30.0898ZM28.3398 12.25C28.3398 11.7859 28.5242 11.3408 28.8524 11.0126C29.1806 10.6844 29.6257 10.5 30.0898 10.5H40.5898C41.054 10.5 41.4991 10.6844 41.8273 11.0126C42.1555 11.3408 42.3398 11.7859 42.3398 12.25C42.3398 12.7141 42.1555 13.1592 41.8273 13.4874C41.4991 13.8156 41.054 14 40.5898 14H30.0898C29.6257 14 29.1806 13.8156 28.8524 13.4874C28.5242 13.1592 28.3398 12.7141 28.3398 12.25ZM19.5898 14H25.1373C25.4994 15.024 26.1701 15.9106 27.0571 16.5374C27.9441 17.1643 29.0037 17.5006 30.0898 17.5H40.5898C41.676 17.5006 42.7356 17.1643 43.6226 16.5374C44.5096 15.9106 45.1803 15.024 45.5423 14H51.0898C51.554 14 51.9991 14.1844 52.3273 14.5126C52.6555 14.8408 52.8398 15.2859 52.8398 15.75V57.75C52.8398 58.2141 52.6555 58.6592 52.3273 58.9874C51.9991 59.3156 51.554 59.5 51.0898 59.5H19.5898C19.1257 59.5 18.6806 59.3156 18.3524 58.9874C18.0242 58.6592 17.8398 58.2141 17.8398 57.75V15.75C17.8398 15.2859 18.0242 14.8408 18.3524 14.5126C18.6806 14.1844 19.1257 14 19.5898 14Z" fill="#25373F"/>
</svg>
