<svg width="20" height="20" viewBox="0 0 20 20" fill="none" xmlns="http://www.w3.org/2000/svg">
<path d="M16 2H14.5V1C14.5 0.724 14.276 0.5 14 0.5C13.724 0.5 13.5 0.724 13.5 1V2H6.5V1C6.5 0.724 6.276 0.5 6 0.5C5.724 0.5 5.5 0.724 5.5 1V2H4C1.71 2 0.5 3.21 0.5 5.5V16C0.5 18.29 1.71 19.5 4 19.5H16C18.29 19.5 19.5 18.29 19.5 16V5.5C19.5 3.21 18.29 2 16 2ZM4 3H5.5V4C5.5 4.276 5.724 4.5 6 4.5C6.276 4.5 6.5 4.276 6.5 4V3H13.5V4C13.5 4.276 13.724 4.5 14 4.5C14.276 4.5 14.5 4.276 14.5 4V3H16C17.729 3 18.5 3.771 18.5 5.5V6.5H1.5V5.5C1.5 3.771 2.271 3 4 3ZM16 18.5H4C2.271 18.5 1.5 17.729 1.5 16V7.5H18.5V16C18.5 17.729 17.729 18.5 16 18.5ZM6.75 11C6.75 11.415 6.41591 11.75 6.00391 11.75C5.59291 11.75 5.25 11.415 5.25 11C5.25 10.585 5.57701 10.25 5.98901 10.25H6.00391C6.41591 10.25 6.75 10.585 6.75 11ZM10.75 11C10.75 11.415 10.4159 11.75 10.0039 11.75C9.59291 11.75 9.25 11.415 9.25 11C9.25 10.585 9.57701 10.25 9.98901 10.25H10.0039C10.4159 10.25 10.75 10.585 10.75 11ZM14.75 11C14.75 11.415 14.4159 11.75 14.0039 11.75C13.5929 11.75 13.25 11.415 13.25 11C13.25 10.585 13.577 10.25 13.989 10.25H14.0039C14.4159 10.25 14.75 10.585 14.75 11ZM6.75 15C6.75 15.415 6.41591 15.75 6.00391 15.75C5.59291 15.75 5.25 15.415 5.25 15C5.25 14.585 5.57701 14.25 5.98901 14.25H6.00391C6.41591 14.25 6.75 14.585 6.75 15ZM10.75 15C10.75 15.415 10.4159 15.75 10.0039 15.75C9.59291 15.75 9.25 15.415 9.25 15C9.25 14.585 9.57701 14.25 9.98901 14.25H10.0039C10.4159 14.25 10.75 14.585 10.75 15ZM14.75 15C14.75 15.415 14.4159 15.75 14.0039 15.75C13.5929 15.75 13.25 15.415 13.25 15C13.25 14.585 13.577 14.25 13.989 14.25H14.0039C14.4159 14.25 14.75 14.585 14.75 15Z" fill="#8E8E93"/>
</svg>
