<svg width="28" height="29" viewBox="0 0 28 29" fill="none" xmlns="http://www.w3.org/2000/svg">
<path d="M0.666687 8.26661V7.66667C0.666687 5.00001 2.00002 3.66667 4.66669 3.66667H6.33335V1.66667C6.33335 1.12001 6.78669 0.666672 7.33335 0.666672C7.88002 0.666672 8.33335 1.12001 8.33335 1.66667V3.66667H17V1.66667C17 1.12001 17.4534 0.666672 18 0.666672C18.5467 0.666672 19 1.12001 19 1.66667V3.66667H20.6667C23.3334 3.66667 24.6667 5.00001 24.6667 7.66667V8.26661C24.6667 8.48794 24.488 8.66667 24.2666 8.66667H1.06675C0.845419 8.66667 0.666687 8.48794 0.666687 8.26661ZM14.9867 25.1468C15.0667 25.4001 14.8933 25.6667 14.6133 25.6667H4.66669C2.00002 25.6667 0.666687 24.3333 0.666687 21.6667V11.0667C0.666687 10.8454 0.845419 10.6667 1.06675 10.6667H24.2666C24.488 10.6667 24.6667 10.8454 24.6667 11.0667V15.6133C24.6667 15.8933 24.4002 16.0667 24.1468 15.9867C23.3615 15.7467 22.5359 15.64 21.6572 15.68C17.9652 15.8467 14.8493 18.96 14.6813 22.6533C14.64 23.5333 14.7467 24.3601 14.9867 25.1468ZM8.69338 20.3333C8.69338 19.5973 8.09738 19 7.36005 19H7.3467C6.6107 19 6.01988 19.5973 6.01988 20.3333C6.01988 21.0693 6.62405 21.6667 7.36005 21.6667C8.09605 21.6667 8.69338 21.0693 8.69338 20.3333ZM8.69338 15C8.69338 14.264 8.09738 13.6667 7.36005 13.6667H7.3467C6.6107 13.6667 6.01988 14.264 6.01988 15C6.01988 15.736 6.62405 16.3333 7.36005 16.3333C8.09605 16.3333 8.69338 15.736 8.69338 15ZM14.0267 15C14.0267 14.264 13.4307 13.6667 12.6934 13.6667H12.68C11.944 13.6667 11.3532 14.264 11.3532 15C11.3532 15.736 11.9574 16.3333 12.6934 16.3333C13.4294 16.3333 14.0267 15.736 14.0267 15ZM27.3334 23C27.3334 25.9453 24.9454 28.3333 22 28.3333C19.0547 28.3333 16.6667 25.9453 16.6667 23C16.6667 20.0547 19.0547 17.6667 22 17.6667C24.9454 17.6667 27.3334 20.0547 27.3334 23ZM24.3334 23C24.3334 22.632 24.0347 22.3333 23.6667 22.3333H22.6667V21.3333C22.6667 20.9653 22.368 20.6667 22 20.6667C21.632 20.6667 21.3334 20.9653 21.3334 21.3333V22.3333H20.3334C19.9654 22.3333 19.6667 22.632 19.6667 23C19.6667 23.368 19.9654 23.6667 20.3334 23.6667H21.3334V24.6667C21.3334 25.0347 21.632 25.3333 22 25.3333C22.368 25.3333 22.6667 25.0347 22.6667 24.6667V23.6667H23.6667C24.0347 23.6667 24.3334 23.368 24.3334 23Z" fill="white"/>
</svg>
