<svg width="32" height="31" viewBox="0 0 32 31" fill="none" xmlns="http://www.w3.org/2000/svg">
<path d="M13.0455 23.3216L5.41756 15.6937L7.56863 13.5274L13.0455 19.0042L24.6246 7.42504L26.7757 9.59137M16.0966 0.437881C14.0932 0.437881 12.1094 0.832485 10.2585 1.59916C8.40757 2.36584 6.72578 3.48957 5.30914 4.90621C2.44812 7.76723 0.84082 11.6476 0.84082 15.6937C0.84082 19.7398 2.44812 23.6202 5.30914 26.4812C6.72578 27.8978 8.40757 29.0216 10.2585 29.7882C12.1094 30.5549 14.0932 30.9495 16.0966 30.9495C20.1427 30.9495 24.0231 29.3422 26.8841 26.4812C29.7451 23.6202 31.3524 19.7398 31.3524 15.6937C31.3524 13.6903 30.9578 11.7065 30.1912 9.85555C29.4245 8.00463 28.3008 6.32284 26.8841 4.90621C25.4675 3.48957 23.7857 2.36584 21.9348 1.59916C20.0839 0.832485 18.1001 0.437881 16.0966 0.437881Z" fill="#07AA3D"/>
</svg>
