<svg width="119" height="119" viewBox="0 0 119 119" fill="none" xmlns="http://www.w3.org/2000/svg">
<path d="M59.5 0C26.69 0 0 26.69 0 59.5C0 92.31 26.69 119 59.5 119C92.31 119 119 92.31 119 59.5C119 26.69 92.31 0 59.5 0ZM59.5 113.333C29.818 113.333 5.66667 89.182 5.66667 59.5C5.66667 29.818 29.818 5.66667 59.5 5.66667C89.182 5.66667 113.333 29.818 113.333 59.5C113.333 89.182 89.182 113.333 59.5 113.333ZM81.3394 44.2736C82.4444 45.3786 82.4444 47.1751 81.3394 48.2801L54.8931 74.7264C54.3377 75.2817 53.6124 75.5537 52.887 75.5537C52.1617 75.5537 51.4364 75.2761 50.881 74.7264L37.6606 61.506C36.5556 60.401 36.5556 58.6045 37.6606 57.4995C38.7656 56.3945 40.562 56.3945 41.667 57.4995L52.887 68.7197L77.3273 44.2795C78.438 43.1688 80.2287 43.1686 81.3394 44.2736Z" fill="#39B755"/>
</svg>
