<svg width="13" height="13" viewBox="0 0 13 13" fill="none" xmlns="http://www.w3.org/2000/svg">
<path d="M6.86454 12.125H6.23098C5.59741 12.125 5.28063 11.8125 5.28063 11.1875V1.8125C5.28063 1.1875 5.59741 0.875 6.23098 0.875H6.86454C7.4981 0.875 7.81488 1.1875 7.81488 1.8125V11.1875C7.81488 11.8125 7.4981 12.125 6.86454 12.125ZM12.2498 11.1875V4.9375C12.2498 4.3125 11.933 4 11.2995 4H10.6659C10.0323 4 9.71557 4.3125 9.71557 4.9375V11.1875C9.71557 11.8125 10.0323 12.125 10.6659 12.125H11.2995C11.933 12.125 12.2498 11.8125 12.2498 11.1875ZM3.37995 11.1875V7.4375C3.37995 6.8125 3.06317 6.5 2.42961 6.5H1.79605C1.16248 6.5 0.845703 6.8125 0.845703 7.4375V11.1875C0.845703 11.8125 1.16248 12.125 1.79605 12.125H2.42961C3.06317 12.125 3.37995 11.8125 3.37995 11.1875Z" fill="white"/>
</svg>
