<svg width="11" height="13" viewBox="0 0 11 13" fill="none" xmlns="http://www.w3.org/2000/svg">
<path d="M1.07162 5.83542C0.65609 5.44287 0.933706 4.74394 1.50562 4.74458H3.05165V1.55309C3.05165 1.20075 3.33761 0.914795 3.68995 0.914795H7.51974C7.87208 0.914795 8.15804 1.20075 8.15804 1.55309V4.74458H9.81378C10.3857 4.74458 10.6633 5.44287 10.2478 5.83542L6.24252 9.61928C5.91571 9.92821 5.40433 9.92821 5.07688 9.61928L1.07162 5.83542ZM10.1278 11.9254H1.19161C0.927359 11.9254 0.712891 12.1399 0.712891 12.4042C0.712891 12.6684 0.927359 12.8829 1.19161 12.8829H10.1278C10.392 12.8829 10.6065 12.6684 10.6065 12.4042C10.6065 12.1399 10.392 11.9254 10.1278 11.9254Z" fill="#008753"/>
</svg>
