<svg width="60" height="60" viewBox="0 0 60 60" fill="none" xmlns="http://www.w3.org/2000/svg">
  <path
    d="M55 37.5V40L35 46.25L17.5 41.5V45H2.5V17.5H22.5L38 23.25C40.5 24.25 42.5 27 42.5 30H47.5C51.75 30 55 33.25 55 37.5ZM12.5 40V22.5H7.5V40H12.5ZM49.75 36.5C49.25 35.5 48.5 35 47.5 35H34C32.75 35 31.25 34.75 30 34.5L24.25 32.5L25.75 27.75L31.75 29.75C32.5 29.75 37.5 30 37.5 30C37.5 29 37 28.25 36 28L21.5 22.5H17.5V36.25L35 41L49.75 36.5Z"
    fill="#25373F" />
  <path
    d="M33.4921 10.8047H57.2577M32.7734 11.5022L44.642 26.8962C44.7282 27.0086 44.8392 27.0997 44.9663 27.1624C45.0934 27.2251 45.2332 27.2577 45.3749 27.2577C45.5166 27.2577 45.6565 27.2251 45.7836 27.1624C45.9107 27.0997 46.0216 27.0086 46.1079 26.8962L57.9764 11.5022C58.0931 11.3503 58.1608 11.1664 58.1705 10.9751C58.1802 10.7838 58.1314 10.594 58.0307 10.4311L54.0048 3.93265C53.9219 3.79817 53.806 3.68711 53.6682 3.61002C53.5303 3.53293 53.375 3.49237 53.217 3.49219H37.5328C37.3749 3.49237 37.2196 3.53293 37.0817 3.61002C36.9438 3.68711 36.8279 3.79817 36.745 3.93265L32.7191 10.4311C32.6184 10.594 32.5696 10.7838 32.5793 10.9751C32.589 11.1664 32.6567 11.3503 32.7734 11.5022V11.5022Z"
    stroke="#25373F" stroke-width="2.4375" stroke-linecap="round" stroke-linejoin="round" />
  <path
    d="M53.6016 4.40625L50.8594 10.8047L45.375 3.49219M37.1484 4.40625L39.8906 10.8047L45.375 3.49219M45.375 26.3438L39.8906 10.8047M45.375 26.3438L50.8594 10.8047"
    stroke="#25373F" stroke-width="2.4375" stroke-linecap="round" stroke-linejoin="round" />
</svg>