<svg width="40" height="40" viewBox="0 0 18 14" fill="none" xmlns="http://www.w3.org/2000/svg">
<path d="M11.75 7C11.75 8.517 10.517 9.75 9.00004 9.75C7.48304 9.75 6.25004 8.517 6.25004 7C6.25004 6.651 6.32196 6.31996 6.44096 6.01196C6.63496 6.16596 6.86903 6.27197 7.13603 6.27197C7.76303 6.27197 8.27201 5.76299 8.27201 5.13599C8.27201 4.86899 8.166 4.63492 8.012 4.44092C8.32 4.32192 8.65104 4.25 9.00004 4.25C10.517 4.25 11.75 5.483 11.75 7ZM17.5921 8.47705C16.3651 10.5311 13.609 14 9.00004 14C4.39104 14 1.635 10.5311 0.408 8.47705C-0.136 7.56705 -0.136 6.43295 0.408 5.52295C1.635 3.46895 4.39104 0 9.00004 0C13.609 0 16.3651 3.46895 17.5921 5.52295C18.1361 6.43295 18.1361 7.56705 17.5921 8.47705ZM13.25 7C13.25 4.657 11.344 2.75 9.00004 2.75C6.65604 2.75 4.75004 4.657 4.75004 7C4.75004 9.343 6.65604 11.25 9.00004 11.25C11.344 11.25 13.25 9.343 13.25 7Z" fill="#25314C"/>
</svg>
