<svg width="19" height="18" viewBox="0 0 19 18" fill="none" xmlns="http://www.w3.org/2000/svg">
<path d="M9.49944 0.136536C4.74479 0.136536 0.890625 3.92131 0.890625 8.59035C0.890625 13.2594 4.74479 17.0442 9.49944 17.0442C14.2541 17.0442 18.1083 13.2594 18.1083 8.59035C18.1083 3.92131 14.2541 0.136536 9.49944 0.136536ZM8.85378 4.78613C8.85378 4.43615 9.14303 4.1521 9.49944 4.1521C9.85585 4.1521 10.1451 4.43615 10.1451 4.78613V8.65041C10.1451 9.0004 9.85585 9.28445 9.49944 9.28445C9.14303 9.28445 8.85378 9.0004 8.85378 8.65041V4.78613ZM9.51667 12.3946C9.04147 12.3946 8.65138 12.0158 8.65138 11.5492C8.65138 11.0825 9.03285 10.7038 9.50806 10.7038H9.51667C9.99274 10.7038 10.3776 11.0825 10.3776 11.5492C10.3776 12.0158 9.99188 12.3946 9.51667 12.3946Z" fill="#4E4E4E"/>
</svg>
