<svg width="19" height="19" viewBox="0 0 19 19" fill="none" xmlns="http://www.w3.org/2000/svg">
<g clip-path="url(#clip0_2029_13421)">
<path d="M16.3217 2.76587H3.11288C2.87196 2.76587 2.6334 2.81332 2.41082 2.90552C2.18824 2.99771 1.986 3.13284 1.81565 3.3032C1.4716 3.64724 1.27832 4.11387 1.27832 4.60043V6.06807C1.27831 6.13399 1.29605 6.19869 1.32969 6.25538C1.36333 6.31207 1.41162 6.35865 1.46948 6.39022L9.54153 10.7932C9.59544 10.8226 9.65587 10.838 9.71728 10.838C9.7787 10.838 9.83913 10.8226 9.89303 10.7932L17.9651 6.39022C18.0229 6.35865 18.0712 6.31207 18.1049 6.25538C18.1385 6.19869 18.1563 6.13399 18.1562 6.06807V4.60043C18.1562 4.11387 17.963 3.64724 17.6189 3.3032C17.2749 2.95915 16.8082 2.76587 16.3217 2.76587Z" fill="white"/>
<path d="M10.2445 11.4378C10.083 11.5258 9.90197 11.5719 9.71802 11.5719C9.53406 11.5719 9.35304 11.5258 9.1915 11.4378L1.28676 7.12695L1.27832 7.13246V14.8743C1.27832 15.3608 1.4716 15.8275 1.81565 16.1715C2.1597 16.5156 2.62632 16.7088 3.11288 16.7088H16.3217C16.8082 16.7088 17.2749 16.5156 17.6189 16.1715C17.963 15.8275 18.1562 15.3608 18.1562 14.8743V7.13246L18.1478 7.12732L10.2445 11.4378Z" fill="white"/>
</g>
<defs>
<clipPath id="clip0_2029_13421">
<rect width="17.6118" height="17.6118" fill="white" transform="translate(0.911133 0.931152)"/>
</clipPath>
</defs>
</svg>
