<svg width="15" height="15" viewBox="0 0 15 15" fill="none" xmlns="http://www.w3.org/2000/svg">
<path d="M10.3555 3.056L11.944 4.64375M11.377 1.65725L7.08175 5.9525C6.85982 6.17412 6.70846 6.45649 6.64675 6.764L6.25 8.75L8.236 8.3525C8.5435 8.291 8.8255 8.14025 9.0475 7.91825L13.3428 3.623C13.4718 3.49393 13.5742 3.34069 13.6441 3.17205C13.7139 3.00341 13.7499 2.82266 13.7499 2.64012C13.7499 2.45759 13.7139 2.27684 13.6441 2.1082C13.5742 1.93955 13.4718 1.78632 13.3428 1.65725C13.2137 1.52818 13.0604 1.42579 12.8918 1.35594C12.7232 1.28608 12.5424 1.25013 12.3599 1.25013C12.1773 1.25013 11.9966 1.28608 11.8279 1.35594C11.6593 1.42579 11.5061 1.52818 11.377 1.65725V1.65725Z" stroke="black" stroke-opacity="0.4" stroke-width="2" stroke-linecap="round" stroke-linejoin="round"/>
<path d="M12.25 10.25V12.5C12.25 12.8978 12.092 13.2794 11.8107 13.5607C11.5294 13.842 11.1478 14 10.75 14H2.5C2.10218 14 1.72064 13.842 1.43934 13.5607C1.15804 13.2794 1 12.8978 1 12.5V4.25C1 3.85218 1.15804 3.47064 1.43934 3.18934C1.72064 2.90804 2.10218 2.75 2.5 2.75H4.75" stroke="black" stroke-opacity="0.4" stroke-width="2" stroke-linecap="round" stroke-linejoin="round"/>
</svg>
