<svg width="60" height="60" viewBox="0 0 60 60" fill="none" xmlns="http://www.w3.org/2000/svg">
<path d="M19 5H6.5C5.83696 5 5.20107 5.26339 4.73223 5.73223C4.26339 6.20107 4 6.83696 4 7.5V20C4 20.663 4.26339 21.2989 4.73223 21.7678C5.20107 22.2366 5.83696 22.5 6.5 22.5C7.16304 22.5 7.79893 22.2366 8.26777 21.7678C8.73661 21.2989 9 20.663 9 20V10H19C19.663 10 20.2989 9.73661 20.7678 9.26777C21.2366 8.79893 21.5 8.16304 21.5 7.5C21.5 6.83696 21.2366 6.20107 20.7678 5.73223C20.2989 5.26339 19.663 5 19 5ZM19 50H9V40C9 39.337 8.73661 38.7011 8.26777 38.2322C7.79893 37.7634 7.16304 37.5 6.5 37.5C5.83696 37.5 5.20107 37.7634 4.73223 38.2322C4.26339 38.7011 4 39.337 4 40V52.5C4 53.163 4.26339 53.7989 4.73223 54.2678C5.20107 54.7366 5.83696 55 6.5 55H19C19.663 55 20.2989 54.7366 20.7678 54.2678C21.2366 53.7989 21.5 53.163 21.5 52.5C21.5 51.837 21.2366 51.2011 20.7678 50.7322C20.2989 50.2634 19.663 50 19 50ZM51.5 5H39C38.337 5 37.7011 5.26339 37.2322 5.73223C36.7634 6.20107 36.5 6.83696 36.5 7.5C36.5 8.16304 36.7634 8.79893 37.2322 9.26777C37.7011 9.73661 38.337 10 39 10H49V20C49 20.663 49.2634 21.2989 49.7322 21.7678C50.2011 22.2366 50.837 22.5 51.5 22.5C52.163 22.5 52.7989 22.2366 53.2678 21.7678C53.7366 21.2989 54 20.663 54 20V7.5C54 6.83696 53.7366 6.20107 53.2678 5.73223C52.7989 5.26339 52.163 5 51.5 5ZM51.5 37.5C50.837 37.5 50.2011 37.7634 49.7322 38.2322C49.2634 38.7011 49 39.337 49 40V50H39C38.337 50 37.7011 50.2634 37.2322 50.7322C36.7634 51.2011 36.5 51.837 36.5 52.5C36.5 53.163 36.7634 53.7989 37.2322 54.2678C37.7011 54.7366 38.337 55 39 55H51.5C52.163 55 52.7989 54.7366 53.2678 54.2678C53.7366 53.7989 54 53.163 54 52.5V40C54 39.337 53.7366 38.7011 53.2678 38.2322C52.7989 37.7634 52.163 37.5 51.5 37.5Z" fill="#50C878"/>
<path fill-rule="evenodd" clip-rule="evenodd" d="M14 30C14 30 19.625 18.75 29 18.75C38.375 18.75 44 30 44 30C44 30 38.375 41.25 29 41.25C19.625 41.25 14 30 14 30ZM17.3937 30.2438C17.3433 30.1628 17.2933 30.0815 17.2438 30L17.3975 29.7562C18.0087 28.8 18.9088 27.5306 20.06 26.2762C22.4263 23.6906 25.475 21.5625 29 21.5625C32.5212 21.5625 35.5738 23.6906 37.9438 26.2762C38.9922 27.4296 39.9336 28.676 40.7563 30C39.9298 31.3223 38.9873 32.5685 37.94 33.7238C35.5737 36.3094 32.525 38.4375 29 38.4375C25.4788 38.4375 22.4263 36.3094 20.0563 33.7238C19.0713 32.6417 18.1805 31.4774 17.3937 30.2438ZM34.625 30C34.6246 31.1841 34.2506 32.3379 33.5562 33.297C32.8618 34.2562 31.8824 34.9717 30.7576 35.3417C29.6328 35.7117 28.4199 35.7173 27.2917 35.3577C26.1635 34.998 25.1776 34.2916 24.4744 33.3389C23.7712 32.3862 23.3865 31.2359 23.3753 30.0518C23.364 28.8678 23.7267 27.7104 24.4116 26.7445C25.0966 25.7786 26.0689 25.0535 27.19 24.6725C28.3112 24.2915 29.524 24.274 30.6556 24.6225C30.2412 24.81 29.8785 25.0952 29.5985 25.4537C29.3186 25.8122 29.1297 26.2332 29.0482 26.6807C28.9667 27.1282 28.9949 27.5888 29.1304 28.023C29.266 28.4571 29.5048 28.852 29.8264 29.1736C30.148 29.4952 30.5429 29.734 30.977 29.8696C31.4112 30.0051 31.8718 30.0333 32.3193 29.9518C32.7668 29.8703 33.1878 29.6814 33.5463 29.4015C33.9048 29.1215 34.19 28.7588 34.3775 28.3444C34.5421 28.8808 34.6255 29.4389 34.625 30Z" fill="#25373F"/>
</svg>
