<svg width="16" height="16" viewBox="0 0 16 16" fill="none" xmlns="http://www.w3.org/2000/svg">
<path d="M13.8935 4.33334H8.25686C7.59019 4.30001 6.28019 2.92334 5.52686 2.92334H2.22686C2.13001 2.92331 2.03414 2.94265 1.94487 2.9802C1.8556 3.01776 1.77474 3.07278 1.70704 3.14203C1.63934 3.21129 1.58617 3.29337 1.55065 3.38347C1.51512 3.47356 1.49797 3.56985 1.50019 3.66667V3.66667V6.09667H14.5002V4.95667C14.502 4.87573 14.4876 4.79525 14.4579 4.71991C14.4283 4.64458 14.3839 4.5759 14.3275 4.51788C14.271 4.45986 14.2036 4.41366 14.1291 4.38198C14.0545 4.3503 13.9745 4.33376 13.8935 4.33334V4.33334Z" stroke="#B3B3B3" stroke-linecap="round" stroke-linejoin="round"/>
<path d="M14.5 6.09332H1.50003V12.3333C1.49915 12.429 1.51719 12.524 1.5531 12.6127C1.58902 12.7014 1.64211 12.7821 1.70932 12.8503C1.77653 12.9184 1.85654 12.9726 1.94476 13.0098C2.03297 13.0469 2.12765 13.0662 2.22336 13.0667H13.7734C13.8694 13.0667 13.9644 13.0476 14.053 13.0107C14.1416 12.9738 14.222 12.9197 14.2896 12.8515C14.3571 12.7833 14.4105 12.7024 14.4466 12.6135C14.4828 12.5245 14.5009 12.4293 14.5 12.3333V12.3333V6.09332Z" stroke="#B3B3B3" stroke-linecap="round" stroke-linejoin="round"/>
</svg>
