<svg width="21" height="21" viewBox="0 0 21 21" fill="none" xmlns="http://www.w3.org/2000/svg">
<path d="M19.4273 3.62109H1.57274C0.704115 3.62109 0 4.32521 0 5.19384V15.807C0 16.6756 0.704115 17.3797 1.57274 17.3797H19.4273C20.2958 17.3797 21 16.6756 21 15.807V5.19384C21 4.32521 20.2959 3.62109 19.4273 3.62109Z" fill="#41479B"/>
<path d="M20.9782 4.93388C20.8543 4.18908 20.2073 3.62109 19.4273 3.62109H19.018L12.3103 8.01579V3.62113H8.68965V8.01584L1.98196 3.62113H1.57274C0.79275 3.62113 0.145729 4.18908 0.0217793 4.93392L5.75486 8.69013H0V12.3108H5.75486L0.0217793 16.067C0.145729 16.8118 0.79275 17.3797 1.57274 17.3797H1.98196L8.68965 12.985V17.3797H12.3103V12.985L19.018 17.3797H19.4273C20.2073 17.3797 20.8543 16.8118 20.9782 16.067L15.2451 12.3107H21V8.69005H15.2451L20.9782 4.93388Z" fill="#F5F5F5"/>
<path d="M11.5862 3.62109H9.41378V9.41418H0V11.5866H9.41378V17.3797H11.5862V11.5866H21V9.41418H11.5862V3.62109Z" fill="#FF4B55"/>
<path d="M1.01748 17.2781L8.67029 12.3105H7.34024L0.378906 16.8293C0.549244 17.0281 0.768144 17.1839 1.01748 17.2781Z" fill="#FF4B55"/>
<path d="M14.207 12.3105H12.877L20.2891 17.1219C20.4965 16.9857 20.6696 16.8017 20.7931 16.5856L14.207 12.3105Z" fill="#FF4B55"/>
<path d="M0.166016 4.49081L6.63541 8.69027H7.96546L0.63466 3.93164C0.437826 4.07815 0.276758 4.26969 0.166016 4.49081Z" fill="#FF4B55"/>
<path d="M13.6406 8.6903L20.6147 4.1632C20.4425 3.96506 20.2218 3.81018 19.9708 3.71777L12.3105 8.6903H13.6406Z" fill="#FF4B55"/>
</svg>
