<svg width="44" height="68" viewBox="0 0 44 68" fill="none" xmlns="http://www.w3.org/2000/svg">
<path d="M42.5153 20.4577H26.9452L32.249 1.90874C32.3745 1.46852 32.2869 0.996235 32.0113 0.630358C31.7356 0.26448 31.3038 0.0502014 30.8458 0.0502014H10.4241C9.76619 0.0502014 9.19001 0.49042 9.01642 1.12451L0.264268 33.1934C0.144655 33.6322 0.236553 34.1016 0.512245 34.4616C0.789397 34.8217 1.21679 35.0345 1.67191 35.0345H17.4287L11.9061 65.3848C11.7821 66.0641 12.1526 66.7375 12.7944 66.997C12.9739 67.0699 13.1591 67.1034 13.3414 67.1034C13.8184 67.1034 14.2794 66.8702 14.5565 66.4548L43.7304 22.7244C44.0294 22.2769 44.0571 21.7026 43.8033 21.2288C43.5481 20.7536 43.0536 20.4577 42.5153 20.4577Z" fill="white"/>
</svg>