<svg width="17" height="17" viewBox="0 0 17 17" fill="none" xmlns="http://www.w3.org/2000/svg">
<path d="M16.9684 1.72925V4.85425C16.9684 5.89591 16.4476 6.41675 15.4059 6.41675H12.2809C11.2393 6.41675 10.7184 5.89591 10.7184 4.85425V1.72925C10.7184 0.687581 11.2393 0.166748 12.2809 0.166748H15.4059C16.4476 0.166748 16.9684 0.687581 16.9684 1.72925ZM4.98926 0.166748H1.86426C0.822591 0.166748 0.301758 0.687581 0.301758 1.72925V4.85425C0.301758 5.89591 0.822591 6.41675 1.86426 6.41675H4.98926C6.03092 6.41675 6.55176 5.89591 6.55176 4.85425V1.72925C6.55176 0.687581 6.03092 0.166748 4.98926 0.166748ZM15.4059 10.5834H12.2809C11.2393 10.5834 10.7184 11.1042 10.7184 12.1459V15.2709C10.7184 16.3126 11.2393 16.8334 12.2809 16.8334H15.4059C16.4476 16.8334 16.9684 16.3126 16.9684 15.2709V12.1459C16.9684 11.1042 16.4476 10.5834 15.4059 10.5834ZM4.98926 10.5834H1.86426C0.822591 10.5834 0.301758 11.1042 0.301758 12.1459V15.2709C0.301758 16.3126 0.822591 16.8334 1.86426 16.8334H4.98926C6.03092 16.8334 6.55176 16.3126 6.55176 15.2709V12.1459C6.55176 11.1042 6.03092 10.5834 4.98926 10.5834Z" fill="#48484A"/>
</svg>
