<svg width="20" height="20" viewBox="0 0 20 20" fill="none" xmlns="http://www.w3.org/2000/svg">
<path d="M18.049 6.33299L11.928 1.20103C10.811 0.264032 9.19 0.265032 8.073 1.20103L1.95203 6.33299C1.02503 7.10199 0.500977 7.63501 0.500977 9.65001V16C0.500977 18.29 1.71098 19.5 4.00098 19.5H8.00098V14.5C8.00098 13.397 8.89798 12.5 10.001 12.5C11.104 12.5 12.001 13.397 12.001 14.5V19.5H16.001C18.291 19.5 19.501 18.29 19.501 16V9.65001C19.5 7.63601 18.976 7.10299 18.049 6.33299ZM18.5 16C18.5 17.729 17.729 18.5 16 18.5H13V14.5C13 12.846 11.654 11.5 10 11.5C8.346 11.5 7 12.846 7 14.5V18.5H4C2.271 18.5 1.5 17.729 1.5 16V9.65001C1.5 8.00701 1.81897 7.74201 2.58997 7.10301L8.71497 1.968C9.45897 1.343 10.541 1.344 11.285 1.968L17.41 7.10301C18.181 7.74301 18.5 8.00701 18.5 9.65001V16V16Z" fill="white"/>
</svg>
