<svg width="20" height="21" viewBox="0 0 20 21" fill="none" xmlns="http://www.w3.org/2000/svg">
<path d="M10 17.5C10.946 17.5 11.81 17.397 12.598 17.219L10.841 15.462C10.568 15.483 10.291 15.5 10 15.5C4.649 15.5 2.576 11.654 2.074 10.5C2.45095 9.65878 2.96005 8.88331 3.582 8.20297L2.184 6.80497C0.646002 8.47197 0.0630018 10.151 0.0520018 10.184C-0.0169779 10.3893 -0.0169779 10.6116 0.0520018 10.817C0.0730018 10.883 2.367 17.5 10 17.5ZM10 3.49997C8.163 3.49997 6.654 3.89597 5.396 4.48097L1.707 0.792969L0.293002 2.20697L18.293 20.207L19.707 18.793L16.388 15.474C19.002 13.523 19.935 10.859 19.949 10.817C20.018 10.6116 20.018 10.3893 19.949 10.184C19.927 10.117 17.633 3.49997 10 3.49997ZM14.972 14.058L12.692 11.778C12.882 11.388 13 10.959 13 10.5C13 8.85897 11.641 7.49997 10 7.49997C9.541 7.49997 9.112 7.61797 8.723 7.80897L6.915 6.00097C7.90752 5.66038 8.95071 5.49097 10 5.49997C15.351 5.49997 17.424 9.34597 17.926 10.5C17.624 11.192 16.76 12.842 14.972 14.058Z" fill="black" fill-opacity="0.5"/>
</svg>
