<svg width="22" height="22" viewBox="0 0 22 22" fill="none" xmlns="http://www.w3.org/2000/svg">
<path d="M21.1449 9.86543C20.1315 9.49061 18.6837 9.99302 17.6593 11.2076C16.9864 12.0051 16.7883 13.1406 15.9048 13.259C15.5673 13.3044 15.3838 13.1326 15.2884 12.8854C15.1879 12.4683 15.2099 11.8235 15.3963 10.9218L17.4069 3.3672C17.5669 2.78994 17.1919 2.2311 16.2893 2.0489C15.3867 1.86671 14.708 2.23662 14.5473 2.81387L12.7524 9.6636C12.3906 11.1764 11.7199 10.9015 11.8821 9.18818L12.3965 1.15634C12.4383 0.535532 11.8674 0.028212 11.0235 0.00122043C10.1796 -0.0257712 9.57132 0.397506 9.52802 1.0177L9.03784 9.24339C8.93291 10.904 8.22185 10.2783 8.06775 9.07531L6.92741 2.42065C6.81073 1.7931 6.10701 1.35939 5.26313 1.47226C4.41926 1.58575 3.90926 2.16914 4.02593 2.79669L5.12298 8.87839C5.55812 11.2003 4.98942 11.8432 4.05309 9.32192L2.8834 5.6259C2.69261 5.0327 1.99329 4.66464 1.11492 4.87075C0.236552 5.07687 -0.142093 5.66762 0.0479635 6.26082L1.19124 9.73477C1.66894 12.2358 1.66894 13.2228 1.66894 14.9448C1.66894 16.6667 2.61629 22 9.86264 22C17.109 22 18.5994 15.8465 18.6683 15.457C18.6683 15.457 18.7586 14.5491 19.5166 13.6995C20.5946 12.4916 21.3511 11.7634 21.8098 11.3279C22.0424 11.1077 22.2684 10.2807 21.1449 9.86543Z" fill="#828282"/>
<path d="M17.0922 14.4577C16.852 14.376 16.6487 14.1659 16.6247 13.7088C15.1101 13.8822 13.0616 14.2368 11.4853 15.5257C9.43922 17.1981 9.0902 19.0057 9.10701 20.2149C9.12062 21.19 9.75703 21.6517 9.94355 20.2069C10.1781 18.382 11.7703 14.7575 17.0922 14.4577Z" fill="#828282"/>
</svg>
