<svg width="24" height="24" viewBox="0 0 24 24" fill="none" xmlns="http://www.w3.org/2000/svg">
<path d="M23.3696 10.6661C23.021 10.6661 22.7381 10.9647 22.7381 11.3328V15.0569L17.1334 9.14061C16.421 8.38591 15.1604 8.38591 14.4467 9.14061L8.21561 15.7275L7.02816 14.4742C6.31574 13.7195 5.05517 13.7195 4.34149 14.4742L1.26316 17.7224V5.99919C1.26316 3.69375 2.23705 2.6657 4.42105 2.6657H14.5263C14.8749 2.6657 15.1579 2.36702 15.1579 1.99901C15.1579 1.63099 14.8749 1.33231 14.5263 1.33231H4.42105C1.52842 1.33231 0 2.94572 0 5.99919V19.3331C0 22.3866 1.52842 24 4.42105 24H19.5789C22.4716 24 24 22.3866 24 19.3331V11.3328C24.0013 10.9647 23.7183 10.6661 23.3696 10.6661ZM19.5802 22.6666H4.42229C2.32671 22.6666 1.35529 21.7067 1.2795 19.5932L5.23581 15.4182C5.47455 15.1676 5.89646 15.1676 6.13646 15.4182L7.32252 16.6702C7.79368 17.1676 8.63113 17.1676 9.09976 16.6702L15.3397 10.0834C15.5784 9.83268 16.0003 9.83268 16.2403 10.0834L22.7381 16.9424V19.3331C22.7381 21.6386 21.7642 22.6666 19.5802 22.6666ZM19.133 3.13773C18.8867 2.87772 18.8867 2.45499 19.133 2.19498L21.0265 0.194889C21.0846 0.133553 21.1553 0.0843371 21.2324 0.0510023C21.3865 -0.0170008 21.5607 -0.0170008 21.7148 0.0510023C21.7932 0.0843371 21.8627 0.133553 21.9208 0.194889L23.8143 2.19498C24.0607 2.45499 24.0607 2.87772 23.8143 3.13773C23.6906 3.2684 23.5289 3.3324 23.3672 3.3324C23.2055 3.3324 23.0438 3.26707 22.92 3.13773L22.104 2.27636V5.99919C22.104 6.3672 21.8211 6.66588 21.4724 6.66588C21.1238 6.66588 20.8409 6.3672 20.8409 5.99919V2.27506L20.0249 3.13643C19.7798 3.39777 19.3806 3.39774 19.133 3.13773ZM6.9486 7.33258C7.64586 7.33258 8.21176 7.92994 8.21176 8.66597C8.21176 9.40201 7.64586 9.99937 6.9486 9.99937C6.25134 9.99937 5.68544 9.40201 5.68544 8.66597C5.68544 7.92994 6.25134 7.33258 6.9486 7.33258Z" fill="#8E8E93"/>
</svg>
