<svg width="52" height="48" viewBox="0 0 52 48" fill="none" xmlns="http://www.w3.org/2000/svg">
<path d="M42 0.666504H10C3.552 0.666504 0 4.2185 0 10.6665V37.3332C0 43.7812 3.552 47.3332 10 47.3332H42C48.448 47.3332 52 43.7812 52 37.3332V10.6665C52 4.2185 48.448 0.666504 42 0.666504ZM10 4.6665H42C46.2053 4.6665 48 6.46117 48 10.6665V29.9998L35.8932 17.8931C34.8532 16.8531 33.1468 16.8531 32.1068 17.8931L18.9333 31.0662C18.4266 31.5729 17.5734 31.5729 17.0667 31.0662L14.5599 28.5597C13.5199 27.5197 11.8134 27.5197 10.7734 28.5597L4 35.3332V10.6665C4 6.46117 5.79467 4.6665 10 4.6665ZM12 15.9998C12 14.1598 13.4774 12.6665 15.3148 12.6665H15.3415C17.1788 12.6665 18.6693 14.1598 18.6693 15.9998C18.6693 17.8398 17.1815 19.3332 15.3415 19.3332C13.5041 19.3332 12 17.8398 12 15.9998Z" fill="#25314C"/>
</svg>
