<svg width="19" height="17" viewBox="0 0 19 17" fill="none" xmlns="http://www.w3.org/2000/svg">
<path d="M8.4062 9.80216H0.437551C0.264634 9.80216 0.125 9.66253 0.125 9.48961V3.29175C0.125 1.20841 1.16667 0.166748 3.25 0.166748H8.4062C8.57912 0.166748 8.71875 0.306382 8.71875 0.479299V9.48961C8.71875 9.66253 8.57912 9.80216 8.4062 9.80216ZM15.75 0.166748H10.5938C10.4209 0.166748 10.2812 0.306382 10.2812 0.479299V9.48961C10.2812 9.66253 10.4209 9.80216 10.5938 9.80216H18.5624C18.7354 9.80216 18.875 9.66253 18.875 9.48961V3.29175C18.875 1.20841 17.8333 0.166748 15.75 0.166748ZM0.125 11.6772V13.7084C0.125 15.7917 1.16667 16.8334 3.25 16.8334H15.75C17.8333 16.8334 18.875 15.7917 18.875 13.7084V11.6772C18.875 11.5043 18.7354 11.3647 18.5624 11.3647H0.437551C0.264634 11.3647 0.125 11.5043 0.125 11.6772Z" fill="#48484A"/>
</svg>
