<svg width="28" height="28" viewBox="0 0 28 28" fill="none" xmlns="http://www.w3.org/2000/svg">
<path d="M21.4199 17.3947C21.0799 17.3947 20.7401 17.2654 20.4801 17.0067C19.9575 16.488 19.9546 15.6427 20.4746 15.1214L23.0986 12.484C24.112 11.4814 24.6667 10.1387 24.6667 8.69867C24.6667 7.25867 24.1106 5.91068 23.1012 4.90135C21.0132 2.81068 17.6106 2.81335 15.5186 4.90135L12.8975 7.53603C12.3788 8.05737 11.536 8.06136 11.012 7.54136C10.4894 7.0227 10.4865 6.17736 11.0065 5.65603L13.6305 3.0187C16.7625 -0.1133 21.8573 -0.113319 24.9867 3.01601C26.5 4.52801 27.3333 6.54667 27.3333 8.69867C27.3333 10.8573 26.4988 12.872 24.9814 14.3734L22.3652 17.004C22.1052 17.264 21.7626 17.3947 21.4199 17.3947ZM14.3652 24.9867L17.0039 22.3627C17.5266 21.8427 17.5294 20.9987 17.0094 20.4774C16.4894 19.956 15.6467 19.952 15.124 20.472L12.484 23.0987C10.392 25.1894 6.99203 25.1867 4.90136 23.0987C2.81203 21.008 2.81209 17.608 4.89876 15.52L7.53743 12.896C8.0601 12.376 8.06264 11.532 7.54264 11.0107C7.02264 10.4894 6.17989 10.4854 5.65722 11.0054L3.01725 13.632C-0.113416 16.7614 -0.113416 21.8534 3.01725 24.984C4.58392 26.5494 6.63996 27.3307 8.69596 27.3307C10.7493 27.332 12.8039 26.5507 14.3652 24.9867ZM10.9427 18.9427L18.9772 10.9094C19.4985 10.388 19.4985 9.54403 18.9772 9.02403C18.4559 8.50403 17.6135 8.50403 17.0921 9.02403L9.05729 17.0574C8.53596 17.5787 8.53596 18.4227 9.05729 18.9427C9.31729 19.2027 9.65866 19.3334 10 19.3334C10.3413 19.3334 10.6827 19.2027 10.9427 18.9427Z" fill="white"/>
</svg>
