<svg width="15" height="15" viewBox="0 0 15 15" fill="none" xmlns="http://www.w3.org/2000/svg">
<path d="M14.3765 14.4307V14.4301H14.38V9.19495C14.38 6.63387 13.8382 4.66101 10.8957 4.66101C9.48112 4.66101 8.53186 5.45087 8.14432 6.19968H8.1034V4.90011H5.31348V14.4301H8.21855V9.71121C8.21855 8.46874 8.45003 7.2673 9.96219 7.2673C11.4521 7.2673 11.4743 8.68523 11.4743 9.79091V14.4307H14.3765Z" fill="black"/>
<path d="M0.583008 4.90027H3.49159V14.4303H0.583008V4.90027Z" fill="black"/>
<path d="M2.03518 0.156128C1.1052 0.156128 0.350586 0.923978 0.350586 1.87026C0.350586 2.81654 1.1052 3.60045 2.03518 3.60045C2.96516 3.60045 3.71977 2.81654 3.71977 1.87026C3.71919 0.923978 2.96457 0.156128 2.03518 0.156128V0.156128Z" fill="black"/>
</svg>
