<svg width="17" height="19" viewBox="0 0 17 19" fill="none" xmlns="http://www.w3.org/2000/svg">
<path d="M7.27125 8.46644L7.31421 0.497909C7.31514 0.324995 7.45553 0.186115 7.62844 0.187048L13.8262 0.220459C15.9095 0.231689 16.9456 1.27896 16.9343 3.36226L16.9065 8.51838C16.9056 8.6913 16.7652 8.83018 16.5923 8.82924L7.58212 8.78067C7.4092 8.77974 7.27032 8.63936 7.27125 8.46644ZM16.8669 15.8621L16.8947 10.706C16.8957 10.533 16.7568 10.3927 16.5839 10.3917L7.57369 10.3431C7.40078 10.3422 7.26039 10.4811 7.25946 10.654L7.2165 18.6225C7.21557 18.7955 7.35445 18.9358 7.52737 18.9368L13.7251 18.9702C15.8084 18.9814 16.8557 17.9454 16.8669 15.8621ZM5.44087 0.175255L3.4097 0.164305C1.3264 0.153074 0.279133 1.18911 0.267902 3.27241L0.200518 15.7722C0.189287 17.8555 1.22532 18.9028 3.30863 18.914L5.3398 18.925C5.51271 18.9259 5.6531 18.787 5.65403 18.6141L5.75173 0.489486C5.75267 0.316572 5.61379 0.176187 5.44087 0.175255Z" fill="white"/>
</svg>
