<svg width="17" height="21" viewBox="0 0 17 21" fill="none" xmlns="http://www.w3.org/2000/svg">
<path d="M8.55329 0.770996C4.80607 0.770996 0.929688 3.62267 0.929688 8.3946C0.929688 13.4553 7.93757 20.5215 8.23624 20.8197C8.3201 20.904 8.43445 20.9511 8.55329 20.9511C8.67213 20.9511 8.78648 20.904 8.87034 20.8197C9.16901 20.5215 16.1769 13.4553 16.1769 8.3946C16.1769 3.62267 12.3005 0.770996 8.55329 0.770996ZM8.55329 11.0853C7.06938 11.0853 5.86261 9.87851 5.86261 8.3946C5.86261 6.91069 7.06938 5.70392 8.55329 5.70392C10.0372 5.70392 11.244 6.91069 11.244 8.3946C11.244 9.87851 10.0372 11.0853 8.55329 11.0853Z" fill="white"/>
</svg>
