<svg width="12" height="15" viewBox="0 0 12 15" fill="none" xmlns="http://www.w3.org/2000/svg">
<path d="M10 5.33332H11.3333C11.5101 5.33332 11.6797 5.40356 11.8047 5.52859C11.9298 5.65361 12 5.82318 12 5.99999V14C12 14.1768 11.9298 14.3464 11.8047 14.4714C11.6797 14.5964 11.5101 14.6667 11.3333 14.6667H0.666667C0.489856 14.6667 0.320286 14.5964 0.195262 14.4714C0.0702379 14.3464 0 14.1768 0 14V5.99999C0 5.82318 0.0702379 5.65361 0.195262 5.52859C0.320286 5.40356 0.489856 5.33332 0.666667 5.33332H2V4.66666C2 3.60579 2.42143 2.58837 3.17157 1.83823C3.92172 1.08808 4.93913 0.666656 6 0.666656C7.06087 0.666656 8.07828 1.08808 8.82843 1.83823C9.57857 2.58837 10 3.60579 10 4.66666V5.33332ZM1.33333 6.66666V13.3333H10.6667V6.66666H1.33333ZM5.33333 9.33332H6.66667V10.6667H5.33333V9.33332ZM2.66667 9.33332H4V10.6667H2.66667V9.33332ZM8 9.33332H9.33333V10.6667H8V9.33332ZM8.66667 5.33332V4.66666C8.66667 3.95941 8.38572 3.28114 7.88562 2.78104C7.38552 2.28094 6.70724 1.99999 6 1.99999C5.29276 1.99999 4.61448 2.28094 4.11438 2.78104C3.61428 3.28114 3.33333 3.95941 3.33333 4.66666V5.33332H8.66667Z" fill="#BEBEBE"/>
</svg>
