<svg width="57" height="57" viewBox="0 0 57 57" fill="none" xmlns="http://www.w3.org/2000/svg">
<path d="M25.7963 35.4682H2.55859V2.93542H49.034V18.0399" stroke="#25373F" stroke-width="2.93529" stroke-miterlimit="10" stroke-linecap="round" stroke-linejoin="round"/>
<path d="M43.2246 33.1445C48.9998 33.1445 53.6815 31.0637 53.6815 28.4969C53.6815 25.9301 48.9998 23.8494 43.2246 23.8494C37.4493 23.8494 32.7676 25.9301 32.7676 28.4969C32.7676 31.0637 37.4493 33.1445 43.2246 33.1445Z" stroke="#25373F" stroke-width="2.93529" stroke-miterlimit="10" stroke-linecap="round" stroke-linejoin="round"/>
<path d="M32.7676 28.4969V35.4683C32.7676 38.0349 37.4488 40.1158 43.2246 40.1158C49.0003 40.1158 53.6815 38.0349 53.6815 35.4683V28.4969" stroke="#25373F" stroke-width="2.93529" stroke-miterlimit="10" stroke-linecap="round" stroke-linejoin="round"/>
<path d="M32.7676 35.4683V42.4396C32.7676 45.0062 37.4488 47.0871 43.2246 47.0871C49.0003 47.0871 53.6815 45.0062 53.6815 42.4396V35.4683" stroke="#25373F" stroke-width="2.93529" stroke-miterlimit="10" stroke-linecap="round" stroke-linejoin="round"/>
<path d="M32.7676 42.4396V49.4109C32.7676 51.9775 37.4488 54.0584 43.2246 54.0584C49.0003 54.0584 53.6815 51.9775 53.6815 49.4109V42.4396" stroke="#25373F" stroke-width="2.93529" stroke-miterlimit="10" stroke-linecap="round" stroke-linejoin="round"/>
<path d="M25.796 23.8494C28.3628 23.8494 30.4435 21.7686 30.4435 19.2019C30.4435 16.6351 28.3628 14.5543 25.796 14.5543C23.2292 14.5543 21.1484 16.6351 21.1484 19.2019C21.1484 21.7686 23.2292 23.8494 25.796 23.8494Z" stroke="#25373F" stroke-width="2.93529" stroke-miterlimit="10" stroke-linecap="round" stroke-linejoin="round"/>
</svg>
