<svg width="17" height="20" viewBox="0 0 17 20" fill="none" xmlns="http://www.w3.org/2000/svg">
<path d="M9.43027 16.7119V19C9.43027 19.414 9.08788 19.75 8.666 19.75C8.24412 19.75 7.90173 19.414 7.90173 19V16.7119C3.9041 16.3339 0.768555 13.02 0.768555 9C0.768555 8.586 1.11095 8.25 1.53282 8.25C1.9547 8.25 2.29709 8.586 2.29709 9C2.29709 12.446 5.15444 15.25 8.666 15.25C12.1776 15.25 15.0349 12.446 15.0349 9C15.0349 8.586 15.3773 8.25 15.7992 8.25C16.2211 8.25 16.5634 8.586 16.5634 9C16.5634 13.02 13.4279 16.3329 9.43027 16.7119ZM8.666 0.5C6.1378 0.5 4.08039 2.519 4.08039 5V9C4.08039 11.481 6.1378 13.5 8.666 13.5C11.1942 13.5 13.2516 11.481 13.2516 9V5C13.2516 2.519 11.1942 0.5 8.666 0.5Z" fill="#828282"/>
</svg>
