<svg width="17" height="16" viewBox="0 0 17 16" fill="none" xmlns="http://www.w3.org/2000/svg">
<path d="M13.6652 0.403564H3.3346C1.61283 0.403564 0.751953 1.24895 0.751953 2.93971V15.6204L3.3346 13.0843H13.6652C15.3869 13.0843 16.2478 12.2389 16.2478 10.5481V2.93971C16.2478 1.24895 15.3869 0.403564 13.6652 0.403564ZM7.85423 4.20778C7.85423 3.85779 8.14348 3.57375 8.49989 3.57375C8.85629 3.57375 9.14555 3.85779 9.14555 4.20778V6.74393C9.14555 7.09391 8.85629 7.37796 8.49989 7.37796C8.14348 7.37796 7.85423 7.09391 7.85423 6.74393V4.20778ZM8.51712 10.1255C8.04192 10.1255 7.65183 9.74672 7.65183 9.28007C7.65183 8.81342 8.0333 8.43469 8.5085 8.43469H8.51712C8.99319 8.43469 9.378 8.81342 9.378 9.28007C9.378 9.74672 8.99233 10.1255 8.51712 10.1255Z" fill="#4E4E4E"/>
</svg>
