<svg width="13" height="13" viewBox="0 0 13 13" fill="none" xmlns="http://www.w3.org/2000/svg">
<path d="M6.66995 7.97548C6.62091 7.8586 6.64512 7.72428 6.73619 7.6349L8.41829 5.98482C8.50937 5.89544 8.64625 5.868 8.76535 5.91737C8.88445 5.96612 8.9622 6.07982 8.9622 6.20607C8.9622 6.23794 8.95712 6.27556 8.94821 6.30556C8.66734 7.18868 7.96231 7.87994 7.06366 8.15431C7.03309 8.16369 7.00127 8.16805 6.96943 8.16805C6.83887 8.16867 6.71963 8.09235 6.66995 7.97548ZM10.6678 4.99986C10.4041 4.99986 10.1901 5.20986 10.1901 5.46861C10.1901 7.62236 8.40427 9.37486 6.20954 9.37486C5.86626 9.37486 5.52874 9.33169 5.20647 9.24669C4.94981 9.18106 4.68935 9.32857 4.6212 9.57857C4.55306 9.82857 4.7045 10.0854 4.95862 10.1523C5.21019 10.2185 5.46948 10.2567 5.73188 10.2817V11.7186C5.73188 11.9774 5.94587 12.1874 6.20954 12.1874C6.47322 12.1874 6.68721 11.9774 6.68721 11.7186V10.2886C9.18574 10.0523 11.1454 7.98111 11.1454 5.46861C11.1454 5.20986 10.9315 4.99986 10.6678 4.99986ZM12.2791 0.137344C12.0925 -0.0457812 11.79 -0.0457812 11.6034 0.137344L9.04243 2.65047C8.87875 1.25109 7.67758 0.156112 6.20954 0.156112C5.45164 0.156112 4.732 0.449905 4.1779 0.981155C3.64291 1.51865 3.34354 2.22486 3.34354 2.96861V5.46861C3.34354 6.21049 3.64608 6.9117 4.17215 7.42982L3.37603 8.21107C2.63724 7.47545 2.22898 6.50299 2.22898 5.46861C2.22898 5.20986 2.01498 4.99986 1.75131 4.99986C1.48764 4.99986 1.27364 5.20986 1.27364 5.46861C1.27364 6.75361 1.78058 7.9611 2.70089 8.87422L0.139957 11.3873C-0.0466522 11.5705 -0.0466522 11.8674 0.139957 12.0505C0.232943 12.1417 0.355244 12.188 0.477527 12.188C0.599811 12.188 0.722112 12.1424 0.815098 12.0505L12.2791 0.800491C12.4657 0.616741 12.4657 0.320469 12.2791 0.137344Z" fill="#FF0000"/>
</svg>
