<svg width="14" height="14" viewBox="0 0 14 14" fill="none" xmlns="http://www.w3.org/2000/svg">
<path d="M4.59961 7.00001C4.59961 7.21218 4.51532 7.41566 4.36529 7.56569C4.21527 7.71572 4.01178 7.80001 3.79961 7.80001C3.58744 7.80001 3.38395 7.71572 3.23392 7.56569C3.08389 7.41566 2.99961 7.21218 2.99961 7.00001C2.99961 6.78783 3.08389 6.58435 3.23392 6.43432C3.38395 6.28429 3.58744 6.20001 3.79961 6.20001C4.01178 6.20001 4.21527 6.28429 4.36529 6.43432C4.51532 6.58435 4.59961 6.78783 4.59961 7.00001ZM7.79961 7.00001C7.79961 7.21218 7.71532 7.41566 7.56529 7.56569C7.41527 7.71572 7.21178 7.80001 6.99961 7.80001C6.78744 7.80001 6.58395 7.71572 6.43392 7.56569C6.2839 7.41566 6.19961 7.21218 6.19961 7.00001C6.19961 6.78783 6.2839 6.58435 6.43392 6.43432C6.58395 6.28429 6.78744 6.20001 6.99961 6.20001C7.21178 6.20001 7.41527 6.28429 7.56529 6.43432C7.71532 6.58435 7.79961 6.78783 7.79961 7.00001ZM10.9996 7.00001C10.9996 7.21218 10.9153 7.41566 10.7653 7.56569C10.6153 7.71572 10.4118 7.80001 10.1996 7.80001C9.98744 7.80001 9.78395 7.71572 9.63392 7.56569C9.4839 7.41566 9.39961 7.21218 9.39961 7.00001C9.39961 6.78783 9.4839 6.58435 9.63392 6.43432C9.78395 6.28429 9.98744 6.20001 10.1996 6.20001C10.4118 6.20001 10.6153 6.28429 10.7653 6.43432C10.9153 6.58435 10.9996 6.78783 10.9996 7.00001ZM6.99961 0.600006C5.30222 0.600006 3.67436 1.27429 2.47413 2.47452C1.27389 3.67476 0.599609 5.30262 0.599609 7.00001C0.599609 8.69739 1.27389 10.3253 2.47413 11.5255C3.67436 12.7257 5.30222 13.4 6.99961 13.4C8.69699 13.4 10.3249 12.7257 11.5251 11.5255C12.7253 10.3253 13.3996 8.69739 13.3996 7.00001C13.3996 5.30262 12.7253 3.67476 11.5251 2.47452C10.3249 1.27429 8.69699 0.600006 6.99961 0.600006ZM1.39961 7.00001C1.39961 6.2646 1.54446 5.5364 1.82588 4.85698C2.10731 4.17756 2.5198 3.56022 3.03981 3.04021C3.55982 2.5202 4.17716 2.10771 4.85658 1.82628C5.53601 1.54485 6.26421 1.40001 6.99961 1.40001C7.73501 1.40001 8.46321 1.54485 9.14264 1.82628C9.82206 2.10771 10.4394 2.5202 10.9594 3.04021C11.4794 3.56022 11.8919 4.17756 12.1733 4.85698C12.4548 5.5364 12.5996 6.2646 12.5996 7.00001C12.5996 8.48522 12.0096 9.9096 10.9594 10.9598C9.9092 12.01 8.48482 12.6 6.99961 12.6C5.5144 12.6 4.09002 12.01 3.03981 10.9598C1.98961 9.9096 1.39961 8.48522 1.39961 7.00001Z" fill="#B3B3B3"/>
</svg>
