<svg width="21" height="4" viewBox="0 0 21 4" fill="none" xmlns="http://www.w3.org/2000/svg">
<path d="M2.02002 4C0.91602 4 0.0150146 3.104 0.0150146 2C0.0150146 0.896 0.90501 0 2.01001 0H2.02002C3.12402 0 4.02002 0.896 4.02002 2C4.02002 3.104 3.12502 4 2.02002 4ZM12.02 2C12.02 0.896 11.124 0 10.02 0H10.01C8.90601 0 8.01501 0.896 8.01501 2C8.01501 3.104 8.91502 4 10.02 4C11.125 4 12.02 3.104 12.02 2ZM20.02 2C20.02 0.896 19.124 0 18.02 0H18.01C16.906 0 16.015 0.896 16.015 2C16.015 3.104 16.915 4 18.02 4C19.125 4 20.02 3.104 20.02 2Z" fill="#041723"/>
</svg>
