<svg width="9" height="9" viewBox="0 0 9 9" fill="none" xmlns="http://www.w3.org/2000/svg">
<path d="M0.264648 0.790955C0.264653 0.663569 0.299689 0.538637 0.365924 0.429824C0.432159 0.321011 0.527042 0.232508 0.640195 0.173996C0.753348 0.115483 0.880412 0.0892147 1.00749 0.098063C1.13457 0.106911 1.25677 0.150536 1.36072 0.224165L6.22289 3.67144C6.31321 3.73531 6.38697 3.81982 6.43803 3.91795C6.48909 4.01607 6.51598 4.12497 6.51645 4.23559C6.51693 4.34621 6.49098 4.45534 6.44076 4.5539C6.39055 4.65246 6.31752 4.7376 6.22775 4.80224L1.36558 8.30092C1.26186 8.37574 1.13949 8.42046 1.01196 8.43017C0.884436 8.43988 0.756706 8.41419 0.642851 8.35593C0.528995 8.29767 0.433435 8.20911 0.366701 8.10001C0.299968 7.99091 0.264653 7.8655 0.264648 7.7376V0.790955ZM8.59979 0.442268C8.59979 0.350159 8.5632 0.261823 8.49807 0.196692C8.43294 0.131561 8.3446 0.0949707 8.2525 0.0949707C8.16039 0.0949707 8.07205 0.131561 8.00692 0.196692C7.94179 0.261823 7.9052 0.350159 7.9052 0.442268V8.08282C7.9052 8.17493 7.94179 8.26326 8.00692 8.32839C8.07205 8.39352 8.16039 8.43011 8.2525 8.43011C8.3446 8.43011 8.43294 8.39352 8.49807 8.32839C8.5632 8.26326 8.59979 8.17493 8.59979 8.08282V0.442268Z" fill="white"/>
</svg>
