<svg width="16" height="18" viewBox="0 0 16 18" fill="none" xmlns="http://www.w3.org/2000/svg">
<path d="M10.7401 11.1187L9.49748 12.8704C7.57281 11.5951 5.96887 9.78654 4.83772 7.61629L6.39086 6.21503C6.57298 6.05076 6.70169 5.82307 6.75686 5.56756C6.81204 5.31204 6.79057 5.04311 6.6958 4.80282L5.27989 1.20784C5.17831 0.949933 4.9988 0.741097 4.77336 0.618571C4.54792 0.496045 4.29122 0.467796 4.04903 0.53886L1.35408 1.32663C1.10255 1.40061 0.883832 1.57611 0.739416 1.81984C0.595 2.06358 0.534925 2.3586 0.570583 2.64896C1.04379 6.44722 2.6006 9.96855 5.00572 12.6807C7.41084 15.3929 10.5335 17.1485 13.9018 17.6822C14.1593 17.7224 14.4209 17.6546 14.637 17.4917C14.8532 17.3289 15.0088 17.0823 15.0745 16.7987L15.7731 13.759C15.8359 13.486 15.8107 13.1967 15.7021 12.9426C15.5934 12.6885 15.4084 12.4861 15.1798 12.3714L11.9925 10.7767C11.7795 10.6698 11.5412 10.6454 11.3147 10.7072C11.0881 10.7691 10.8861 10.9137 10.7401 11.1187Z" fill="white"/>
</svg>
