<svg width="24" height="24" viewBox="0 0 24 24" fill="none" xmlns="http://www.w3.org/2000/svg">
<path d="M19.4933 0H4.50667C1.50667 0 0 1.49333 0 4.49333V19.4933C0 22.4933 1.50667 24 4.50667 24H19.4933C22.5067 24 24 22.4933 24 19.4933V4.49333C24 1.49333 22.5067 0 19.4933 0ZM16.6667 13H13V16.6667C13 17.2133 12.5467 17.6667 12 17.6667C11.4533 17.6667 11 17.2133 11 16.6667V13H7.33333C6.78667 13 6.33333 12.5467 6.33333 12C6.33333 11.4533 6.78667 11 7.33333 11H11V7.33333C11 6.78667 11.4533 6.33333 12 6.33333C12.5467 6.33333 13 6.78667 13 7.33333V11H16.6667C17.2133 11 17.6667 11.4533 17.6667 12C17.6667 12.5467 17.2133 13 16.6667 13Z" fill="white"/>
</svg>
