<svg width="36" height="46" viewBox="0 0 36 46" fill="none" xmlns="http://www.w3.org/2000/svg">
<path d="M0.553711 41.5999V4.21527C0.553711 1.72296 1.79986 0.476807 4.29217 0.476807H9.27679C11.7691 0.476807 13.0152 1.72296 13.0152 4.21527V41.5999C13.0152 44.0922 11.7691 45.3383 9.27679 45.3383H4.29217C1.79986 45.3383 0.553711 44.0922 0.553711 41.5999ZM26.7229 45.3383H31.7076C34.1999 45.3383 35.446 44.0922 35.446 41.5999V4.21527C35.446 1.72296 34.1999 0.476807 31.7076 0.476807H26.7229C24.2306 0.476807 22.9845 1.72296 22.9845 4.21527V41.5999C22.9845 44.0922 24.2306 45.3383 26.7229 45.3383Z" fill="#25314C"/>
</svg>
