<svg width="24" height="25" viewBox="0 0 24 25" fill="none" xmlns="http://www.w3.org/2000/svg">
<path d="M0 12.2611C0 17.3841 3.211 21.7581 7.73 23.4791C7.62 22.5421 7.503 20.9971 7.755 19.9131C7.972 18.9811 9.156 13.9751 9.156 13.9751C9.156 13.9751 8.799 13.2601 8.799 12.2011C8.799 10.5411 9.761 9.30111 10.96 9.30111C11.98 9.30111 12.472 10.0661 12.472 10.9831C12.472 12.0081 11.819 13.5401 11.482 14.9611C11.201 16.1501 12.079 17.1201 13.251 17.1201C15.374 17.1201 17.007 14.8811 17.007 11.6491C17.007 8.78811 14.951 6.78911 12.016 6.78911C8.618 6.78911 6.623 9.33811 6.623 11.9731C6.623 13.0001 7.018 14.1001 7.512 14.6991C7.55412 14.7443 7.58387 14.7997 7.59841 14.8597C7.61295 14.9198 7.61177 14.9826 7.595 15.0421C7.504 15.4201 7.302 16.2311 7.263 16.3971C7.21 16.6151 7.09 16.6621 6.863 16.5561C5.371 15.8621 4.439 13.6811 4.439 11.9291C4.439 8.16011 7.176 4.70011 12.331 4.70011C16.475 4.70011 19.696 7.65311 19.696 11.5991C19.696 15.7161 17.101 19.0301 13.497 19.0301C12.286 19.0301 11.149 18.4001 10.759 17.6571C10.759 17.6571 10.16 19.9391 10.015 20.4971C9.733 21.5811 8.951 22.9531 8.466 23.7321C9.584 24.0761 10.77 24.2611 12 24.2611C18.627 24.2611 24 18.8881 24 12.2611C24 5.63411 18.627 0.261108 12 0.261108C5.373 0.261108 0 5.63411 0 12.2611Z" fill="white"/>
</svg>
