<svg width="24" height="24" viewBox="0 0 24 24" fill="none" xmlns="http://www.w3.org/2000/svg">
<path d="M4.81498 24C3.57465 24.0002 2.38399 23.4657 1.5 22.512L1.4025 22.4052C0.958361 21.9301 0.605457 21.3624 0.364588 20.7356C0.12372 20.1087 -0.000239769 19.4353 1.38585e-05 18.7551C-0.00155575 18.0187 0.130219 17.2893 0.387701 16.6092C0.645183 15.929 1.02325 15.3116 1.5 14.7927L13.1249 2.19027C14.3061 0.842284 15.923 0.0567764 17.6274 0.00295867C19.3319 -0.050859 20.9874 0.63132 22.2374 1.90254C22.8011 2.51894 23.2473 3.25216 23.5499 4.05948C23.8525 4.86679 24.0054 5.73206 23.9999 6.60483C23.9932 7.57957 23.8108 8.54326 23.4633 9.44053C23.1158 10.3378 22.61 11.1509 21.9749 11.8332L11.5274 23.1779C11.4625 23.2737 11.3793 23.3528 11.2837 23.4098C11.188 23.4667 11.0822 23.5002 10.9736 23.5079C10.865 23.5155 10.7561 23.4971 10.6546 23.454C10.5531 23.4109 10.4614 23.3441 10.3858 23.2583C10.3102 23.1724 10.2526 23.0695 10.2169 22.9568C10.1813 22.8441 10.1684 22.7242 10.1793 22.6054C10.1901 22.4867 10.2245 22.372 10.2798 22.2693C10.3352 22.1666 10.4103 22.0783 10.4999 22.0106L20.9174 10.6659C21.4121 10.1365 21.8066 9.50529 22.0782 8.80837C22.3497 8.11146 22.493 7.36262 22.4999 6.60483C22.5053 5.94902 22.3914 5.2986 22.1647 4.69163C21.9381 4.08466 21.6032 3.53333 21.1799 3.0699C20.2107 2.1022 18.9338 1.59017 17.6237 1.64398C16.3137 1.69779 15.0753 2.31314 14.1749 3.35762L2.5875 15.9601C2.24603 16.3235 1.97401 16.7578 1.7873 17.2377C1.60058 17.7176 1.50292 18.2334 1.5 18.7551C1.4984 19.2132 1.57978 19.6671 1.73942 20.0905C1.89906 20.5138 2.13379 20.8982 2.43 21.2214L2.5275 21.3282C3.19856 22.0056 4.08543 22.367 4.99719 22.3347C5.90895 22.3024 6.77269 21.879 7.40246 21.1556L17.4149 10.3042C17.6042 10.0943 17.7535 9.8452 17.854 9.57136C17.9544 9.29752 18.004 9.00446 17.9999 8.70935C18.0015 8.45303 17.9566 8.1989 17.8678 7.96179C17.7789 7.72468 17.6479 7.50932 17.4824 7.32826C17.1036 6.94756 16.6035 6.74539 16.0899 6.76539C15.5764 6.78538 15.0906 7.02594 14.7374 7.43513L7.83746 14.9325C7.69623 15.0862 7.50508 15.1721 7.30606 15.1713C7.10704 15.1706 6.91645 15.0832 6.77622 14.9284C6.63599 14.7736 6.5576 14.564 6.5583 14.3459C6.55901 14.1277 6.63874 13.9188 6.77997 13.7651L13.7099 6.24312C14.3451 5.52982 15.2107 5.11884 16.1199 5.09884C17.0291 5.07885 17.9091 5.45145 18.5699 6.13625C18.8738 6.47535 19.1127 6.87774 19.2724 7.31967C19.4321 7.7616 19.5095 8.23412 19.4999 8.70935C19.4991 9.22111 19.4051 9.72755 19.2236 10.199C19.042 10.6705 18.7764 11.0975 18.4424 11.4551L8.45996 22.3394C7.49238 23.3983 6.18225 23.9952 4.81498 24V24Z" fill="#828282"/>
</svg>
