<svg width="29" height="14" viewBox="0 0 29 14" fill="none" xmlns="http://www.w3.org/2000/svg">
<path d="M27.8949 12.7883L27.8906 12.7954C27.4215 13.4952 26.558 13.8083 25.7323 13.6057L21.7997 12.6155C20.395 12.2613 19.5204 10.89 19.8076 9.49599L20.1671 7.75632C16.5076 6.43032 12.4812 6.43881 8.82014 7.74781L9.16977 9.50165C9.44694 10.8942 8.56755 12.2585 7.16435 12.6056L3.20744 13.5887C2.38169 13.7913 1.52705 13.4697 1.05787 12.7869C-0.883797 9.92807 0.0157749 5.53922 3.0647 3.85197C4.86633 2.85464 6.77039 2.11088 8.72216 1.62213C14.4375 0.189881 20.5787 0.936473 25.8609 3.87039C28.8968 5.55622 29.8293 9.94083 27.8949 12.7883Z" fill="white"/>
</svg>
