<svg width="25" height="31" viewBox="0 0 25 31" fill="none" xmlns="http://www.w3.org/2000/svg">
<path d="M19.7913 11.125V8.20835C19.7913 4.12502 16.583 0.916687 12.4997 0.916687C8.41634 0.916687 5.20801 4.12502 5.20801 8.20835V11.125C2.72884 11.125 0.833008 13.0209 0.833008 15.5V25.7084C0.833008 28.1875 2.72884 30.0834 5.20801 30.0834H19.7913C22.2705 30.0834 24.1663 28.1875 24.1663 25.7084V15.5C24.1663 13.0209 22.2705 11.125 19.7913 11.125ZM8.12467 8.20835C8.12467 5.72919 10.0205 3.83335 12.4997 3.83335C14.9788 3.83335 16.8747 5.72919 16.8747 8.20835V11.125H8.12467V8.20835ZM14.1038 20.6042L13.958 20.75V22.7917C13.958 23.6667 13.3747 24.25 12.4997 24.25C11.6247 24.25 11.0413 23.6667 11.0413 22.7917V20.75C10.1663 19.875 10.0205 18.5625 10.8955 17.6875C11.7705 16.8125 13.083 16.6667 13.958 17.5417C14.833 18.2709 14.9788 19.7292 14.1038 20.6042Z" fill="#828282"/>
</svg>
