<svg width="17" height="17" viewBox="0 0 17 17" fill="none" xmlns="http://www.w3.org/2000/svg">
<path d="M12.6673 8.1462L4.88742 15.753H0.583008V11.5261L8.32926 3.88638C8.42998 3.78662 8.59359 3.78662 8.69518 3.88638L12.6681 7.78781C12.7689 7.88671 12.7689 8.0473 12.6673 8.1462ZM13.5891 6.90011C13.6899 6.99902 13.8535 6.99902 13.9542 6.90011L15.5709 5.31255C16.2458 4.64977 16.2458 3.57447 15.5709 2.91169L13.6597 1.03487C12.9848 0.372086 11.8899 0.372086 11.215 1.03487L9.59809 2.62254C9.49737 2.72145 9.49737 2.88203 9.59809 2.98094L13.5891 6.90011ZM16.0789 15.119H10.0527C9.6963 15.119 9.40704 15.403 9.40704 15.753C9.40704 16.103 9.6963 16.387 10.0527 16.387H16.0789C16.4353 16.387 16.7245 16.103 16.7245 15.753C16.7245 15.403 16.4353 15.119 16.0789 15.119Z" fill="#4E4E4E"/>
</svg>
