<svg width="17" height="16" viewBox="0 0 17 16" fill="none" xmlns="http://www.w3.org/2000/svg">
<path d="M13.3423 0.692749H3.65743C1.72044 0.692749 0.751953 1.6438 0.751953 3.54591V13.0565C0.751953 14.9586 1.72044 15.9096 3.65743 15.9096H13.3423C15.2793 15.9096 16.2478 14.9586 16.2478 13.0565V3.54591C16.2478 1.6438 15.2793 0.692749 13.3423 0.692749ZM8.51712 12.9508C8.04192 12.9508 7.65183 12.5721 7.65183 12.1054C7.65183 11.6388 8.0333 11.26 8.5085 11.26H8.51712C8.99319 11.26 9.378 11.6388 9.378 12.1054C9.378 12.5721 8.99233 12.9508 8.51712 12.9508ZM9.8799 8.74761C9.2506 9.16185 9.13344 9.3926 9.11192 9.45347C9.02153 9.71807 8.7702 9.88545 8.49989 9.88545C8.43188 9.88545 8.36298 9.87525 8.29497 9.85243C7.95664 9.74084 7.77508 9.38159 7.88785 9.04935C8.04367 8.59285 8.44745 8.16255 9.16026 7.69336C10.0392 7.11512 9.92638 6.48114 9.88936 6.27318C9.79208 5.7203 9.31771 5.24925 8.76072 5.15288C8.3363 5.0768 7.92318 5.18585 7.59949 5.45215C7.27408 5.72013 7.08708 6.11495 7.08708 6.53426C7.08708 6.88425 6.79783 7.1683 6.44142 7.1683C6.08502 7.1683 5.79576 6.88425 5.79576 6.53426C5.79576 5.73876 6.15053 4.99063 6.76951 4.48087C7.38245 3.97702 8.18908 3.7666 8.98539 3.90524C10.0761 4.09461 10.9707 4.97965 11.1609 6.05667C11.3503 7.12354 10.8949 8.07976 9.8799 8.74761Z" fill="#4E4E4E"/>
</svg>
