<svg width="76" height="76" viewBox="0 0 76 76" fill="none" xmlns="http://www.w3.org/2000/svg">
<circle cx="38" cy="38" r="38" fill="#FF0000"/>
<path d="M53.1096 29.2885C53.8332 32.11 53.8332 38 53.8332 38C53.8332 38 53.8332 43.89 53.1096 46.7115C52.7074 48.2711 51.531 49.4982 50.0411 49.913C47.3352 50.6667 37.9998 50.6667 37.9998 50.6667C37.9998 50.6667 28.6693 50.6667 25.9586 49.913C24.4623 49.4918 23.2875 48.2663 22.8901 46.7115C22.1665 43.89 22.1665 38 22.1665 38C22.1665 38 22.1665 32.11 22.8901 29.2885C23.2923 27.7289 24.4687 26.5018 25.9586 26.087C28.6693 25.3333 37.9998 25.3333 37.9998 25.3333C37.9998 25.3333 47.3352 25.3333 50.0411 26.087C51.5373 26.5082 52.7122 27.7337 53.1096 29.2885ZM34.8332 43.5417L44.3332 38L34.8332 32.4583V43.5417Z" fill="white"/>
</svg>
