<svg width="76" height="76" viewBox="0 0 76 76" fill="none" xmlns="http://www.w3.org/2000/svg">
<circle cx="38" cy="38" r="38" fill="#1FAF38"/>
<path d="M23.006 53L25.034 45.548C23.6977 43.2573 22.9957 40.652 23 38C23 29.7155 29.7155 23 38 23C46.2845 23 53 29.7155 53 38C53 46.2845 46.2845 53 38 53C35.3492 53.0043 32.745 52.3028 30.455 50.9675L23.006 53ZM32.5865 30.962C32.3928 30.974 32.2035 31.025 32.03 31.112C31.8673 31.2041 31.7188 31.3193 31.589 31.454C31.409 31.6235 31.307 31.7705 31.1975 31.913C30.6431 32.6345 30.3449 33.5201 30.35 34.43C30.353 35.165 30.545 35.8805 30.845 36.5495C31.4585 37.9025 32.468 39.335 33.8015 40.6625C34.1225 40.982 34.436 41.303 34.7735 41.6015C36.4286 43.0587 38.4009 44.1096 40.5335 44.6705L41.387 44.801C41.6645 44.816 41.942 44.795 42.221 44.7815C42.6579 44.7589 43.0844 44.6407 43.4705 44.435C43.667 44.3338 43.8587 44.2237 44.045 44.105C44.045 44.105 44.1095 44.063 44.2325 43.97C44.435 43.82 44.5595 43.7135 44.7275 43.538C44.852 43.409 44.96 43.2575 45.0425 43.085C45.1595 42.8405 45.2765 42.374 45.3245 41.9855C45.3605 41.6885 45.35 41.5265 45.3455 41.426C45.3395 41.2655 45.206 41.099 45.0605 41.0285L44.1875 40.637C44.1875 40.637 42.8825 40.0685 42.086 39.7055C42.002 39.6689 41.912 39.648 41.8205 39.644C41.7179 39.6335 41.6142 39.645 41.5164 39.6779C41.4186 39.7107 41.329 39.7641 41.2535 39.8345V39.8315C41.246 39.8315 41.1455 39.917 40.061 41.231C39.9988 41.3146 39.913 41.3779 39.8147 41.4126C39.7164 41.4473 39.61 41.452 39.509 41.426C39.4113 41.3999 39.3155 41.3668 39.2225 41.327C39.0365 41.249 38.972 41.219 38.8445 41.1635L38.837 41.1605C37.9789 40.7858 37.1844 40.2798 36.482 39.6605C36.293 39.4955 36.1175 39.3155 35.9375 39.1415C35.3474 38.5764 34.8331 37.937 34.4075 37.2395L34.319 37.097C34.2555 37.0012 34.2041 36.898 34.166 36.7895C34.109 36.569 34.2575 36.392 34.2575 36.392C34.2575 36.392 34.622 35.993 34.7915 35.777C34.9327 35.5975 35.0643 35.4107 35.186 35.2175C35.363 34.9325 35.4185 34.64 35.3255 34.4135C34.9055 33.3875 34.4705 32.366 34.0235 31.352C33.935 31.151 33.6725 31.007 33.434 30.9785C33.353 30.9695 33.272 30.9605 33.191 30.9545C32.9896 30.9445 32.7877 30.9465 32.5865 30.9605V30.962Z" fill="white"/>
</svg>
