<svg width="76" height="76" viewBox="0 0 76 76" fill="none" xmlns="http://www.w3.org/2000/svg">
<circle cx="38" cy="38" r="38" fill="#2AABEE"/>
<g clip-path="url(#clip0_2080_15502)">
<path fill-rule="evenodd" clip-rule="evenodd" d="M50.3134 26.0142C50.7046 25.8495 51.1329 25.7927 51.5536 25.8497C51.9742 25.9067 52.3719 26.0754 52.7053 26.3382C53.0386 26.6011 53.2954 26.9485 53.4489 27.3443C53.6025 27.7401 53.6471 28.1698 53.5782 28.5887L49.9872 50.3706C49.6389 52.4717 47.3335 53.6766 45.4066 52.63C43.7948 51.7544 41.4008 50.4054 39.2474 48.9978C38.1708 48.2932 34.8727 46.037 35.278 44.4315C35.6264 43.0588 41.168 37.9002 44.3347 34.8333C45.5776 33.6284 45.0108 32.9333 43.543 34.0417C39.8966 36.7935 34.0462 40.9782 32.1114 42.1562C30.4045 43.1949 29.5147 43.3722 28.4507 43.1949C26.5095 42.8719 24.7093 42.3716 23.2399 41.762C21.2544 40.9387 21.351 38.209 23.2384 37.4142L50.3134 26.0142Z" fill="white"/>
</g>
<defs>
<clipPath id="clip0_2080_15502">
<rect width="38" height="38" fill="white" transform="translate(19 19)"/>
</clipPath>
</defs>
</svg>
