<svg width="76" height="76" viewBox="0 0 76 76" fill="none" xmlns="http://www.w3.org/2000/svg">
<circle cx="38" cy="38" r="38" fill="#2F88FF"/>
<path d="M49.5916 27.8065C49.3511 27.6821 49.117 27.5458 48.8901 27.398C48.2309 26.9621 47.6265 26.4486 47.0899 25.8685C45.7456 24.3311 45.2437 22.7715 45.0601 21.6806H45.0664C44.9128 20.7733 44.9761 20.1875 44.9872 20.1875H38.8676V43.8472C38.8676 44.1639 38.8676 44.479 38.855 44.7893C38.855 44.8273 38.8502 44.8622 38.8486 44.9049C38.8486 44.9207 38.8486 44.9397 38.8439 44.9572V44.9714C38.7796 45.8201 38.5078 46.64 38.0522 47.359C37.5966 48.0779 36.9714 48.6739 36.2314 49.0944C35.4594 49.5336 34.5862 49.7639 33.6981 49.7626C30.8481 49.7626 28.5364 47.4382 28.5364 44.5677C28.5364 41.6955 30.8481 39.3712 33.6981 39.3712C34.238 39.3712 34.7747 39.4567 35.2877 39.6245L35.2956 33.3925C33.7377 33.1915 32.1549 33.3157 30.6474 33.7571C29.1398 34.1986 27.7401 34.9478 26.5366 35.9575C25.4819 36.8735 24.5951 37.9666 23.9162 39.1875C23.6581 39.6324 22.6828 41.4232 22.5656 44.327C22.4912 45.9737 22.9868 47.6837 23.2227 48.3883V48.4041C23.37 48.8189 23.9463 50.2376 24.8836 51.433C25.6395 52.3925 26.5326 53.2354 27.5341 53.9347V53.9188L27.5484 53.9347C30.5092 55.9455 33.7946 55.8141 33.7946 55.8141C34.3631 55.7903 36.2678 55.8141 38.4306 54.7897C40.8294 53.6528 42.1942 51.9602 42.1942 51.9602C43.0668 50.9487 43.7607 49.7959 44.2462 48.5513C44.8004 47.0947 44.9841 45.3498 44.9841 44.6532V32.0989C45.0585 32.1432 46.0481 32.7972 46.0481 32.7972C46.0481 32.7972 47.4731 33.7107 49.6945 34.3045C51.2873 34.7273 53.4359 34.8175 53.4359 34.8175V28.7422C52.6838 28.8246 51.1559 28.5871 49.59 27.8081L49.5916 27.8065Z" fill="white"/>
</svg>
