<svg width="76" height="76" viewBox="0 0 76 76" fill="none" xmlns="http://www.w3.org/2000/svg">
<circle cx="38" cy="38" r="38" fill="#0A66C2"/>
<path fill-rule="evenodd" clip-rule="evenodd" d="M33.9291 33.2009H39.8096V36.1301C40.6567 34.4454 42.829 32.9318 46.0923 32.9318C52.348 32.9318 53.8332 36.2853 53.8332 42.4381V53.8333H47.4998V43.8393C47.4998 40.3354 46.6528 38.3594 44.4963 38.3594C41.5053 38.3594 40.2624 40.489 40.2624 43.8378V53.8333H33.9291V33.2009ZM23.069 53.5642H29.4023V32.9318H23.069V53.5642ZM30.3096 26.2042C30.3098 26.735 30.2045 27.2606 29.9999 27.7504C29.7952 28.2402 29.4952 28.6845 29.1173 29.0573C28.3516 29.8183 27.3152 30.2443 26.2357 30.2417C25.158 30.2409 24.124 29.8161 23.3572 29.0589C22.9807 28.6848 22.6817 28.2401 22.4774 27.7502C22.2731 27.2603 22.1674 26.7349 22.1665 26.2042C22.1665 25.1323 22.594 24.1063 23.3588 23.3494C24.1249 22.5913 25.1594 22.1662 26.2373 22.1667C27.3171 22.1667 28.3526 22.5926 29.1173 23.3494C29.8805 24.1063 30.3096 25.1323 30.3096 26.2042Z" fill="white"/>
</svg>
