<svg width="76" height="76" viewBox="0 0 76 76" fill="none" xmlns="http://www.w3.org/2000/svg">
<rect width="76" height="76" fill="#CDCDCD"/>
<path d="M-8025 -2636C-8025 -2637.1 -8024.1 -2638 -8023 -2638H4043C4044.1 -2638 4045 -2637.1 4045 -2636V7108C4045 7109.1 4044.1 7110 4043 7110H-8023C-8024.1 7110 -8025 7109.1 -8025 7108V-2636Z" fill="#404040"/>
<rect width="1440" height="1035" transform="translate(-429 -570)" fill="#F7F7F7"/>
<rect x="-141" y="-15" width="1054" height="106" rx="8" fill="white"/>
<circle cx="38" cy="38" r="38" fill="#FFFC00"/>
<mask id="path-5-inside-1_1439_7675" fill="white">
<path d="M28.2294 26.1773C27.2794 28.3053 27.6546 32.1179 27.8066 34.7843C26.7806 35.3527 25.4633 34.3552 24.7175 34.3552C23.9417 34.3552 23.0155 34.865 22.8698 35.625C22.7653 36.1728 23.0107 36.9708 24.7714 37.6659C25.4522 37.9351 27.072 38.2518 27.4472 39.1353C27.9745 40.3766 24.7397 46.1067 19.6604 46.9427C19.4686 46.9744 19.2953 47.0758 19.1737 47.2275C19.0522 47.3791 18.9909 47.5703 19.0017 47.7644C19.0904 49.3082 22.5515 49.913 24.0858 50.1505C24.2425 50.3627 24.3692 51.2588 24.5703 51.9413C24.6605 52.2468 24.8933 52.6126 25.4918 52.6126C26.2724 52.6126 27.5691 52.0109 29.827 52.3846C32.0405 52.7535 34.121 55.8917 38.1157 55.8917C41.8286 55.8917 44.0437 52.7392 46.1749 52.3846C47.4083 52.1803 48.4675 52.2452 49.6519 52.4764C50.4673 52.6363 51.1988 52.725 51.4315 51.9238C51.6358 51.2319 51.7609 50.3532 51.9145 50.1457C53.4345 49.9098 56.9115 49.3066 56.9985 47.7628C57.0093 47.5688 56.9481 47.3775 56.8265 47.2259C56.7049 47.0742 56.5316 46.9728 56.3399 46.9411C51.346 46.1177 48.0131 40.4051 48.553 39.1337C48.9267 38.2518 50.5354 37.9383 51.2289 37.6643C52.5177 37.1561 53.1637 36.5307 53.1495 35.8071C53.132 34.8808 52.0174 34.3283 51.1972 34.3283C50.3628 34.3283 49.1642 35.3163 48.1936 34.7811C48.3456 32.0926 48.7193 28.2973 47.7709 26.1709C45.9738 22.1445 41.9759 20.1083 37.9795 20.1083C34.0085 20.1083 30.0407 22.116 28.2294 26.1773Z"/>
</mask>
<path d="M28.2294 26.1773C27.2794 28.3053 27.6546 32.1179 27.8066 34.7843C26.7806 35.3527 25.4633 34.3552 24.7175 34.3552C23.9417 34.3552 23.0155 34.865 22.8698 35.625C22.7653 36.1728 23.0107 36.9708 24.7714 37.6659C25.4522 37.9351 27.072 38.2518 27.4472 39.1353C27.9745 40.3766 24.7397 46.1067 19.6604 46.9427C19.4686 46.9744 19.2953 47.0758 19.1737 47.2275C19.0522 47.3791 18.9909 47.5703 19.0017 47.7644C19.0904 49.3082 22.5515 49.913 24.0858 50.1505C24.2425 50.3627 24.3692 51.2588 24.5703 51.9413C24.6605 52.2468 24.8933 52.6126 25.4918 52.6126C26.2724 52.6126 27.5691 52.0109 29.827 52.3846C32.0405 52.7535 34.121 55.8917 38.1157 55.8917C41.8286 55.8917 44.0437 52.7392 46.1749 52.3846C47.4083 52.1803 48.4675 52.2452 49.6519 52.4764C50.4673 52.6363 51.1988 52.725 51.4315 51.9238C51.6358 51.2319 51.7609 50.3532 51.9145 50.1457C53.4345 49.9098 56.9115 49.3066 56.9985 47.7628C57.0093 47.5688 56.9481 47.3775 56.8265 47.2259C56.7049 47.0742 56.5316 46.9728 56.3399 46.9411C51.346 46.1177 48.0131 40.4051 48.553 39.1337C48.9267 38.2518 50.5354 37.9383 51.2289 37.6643C52.5177 37.1561 53.1637 36.5307 53.1495 35.8071C53.132 34.8808 52.0174 34.3283 51.1972 34.3283C50.3628 34.3283 49.1642 35.3163 48.1936 34.7811C48.3456 32.0926 48.7193 28.2973 47.7709 26.1709C45.9738 22.1445 41.9759 20.1083 37.9795 20.1083C34.0085 20.1083 30.0407 22.116 28.2294 26.1773Z" fill="white" stroke="black" stroke-width="2" mask="url(#path-5-inside-1_1439_7675)"/>
<path d="M-8023 -2637H4043V-2639H-8023V-2637ZM4044 -2636V7108H4046V-2636H4044ZM4043 7109H-8023V7111H4043V7109ZM-8024 7108V-2636H-8026V7108H-8024ZM-8023 7109C-8023.55 7109 -8024 7108.55 -8024 7108H-8026C-8026 7109.66 -8024.66 7111 -8023 7111V7109ZM4044 7108C4044 7108.55 4043.55 7109 4043 7109V7111C4044.66 7111 4046 7109.66 4046 7108H4044ZM4043 -2637C4043.55 -2637 4044 -2636.55 4044 -2636H4046C4046 -2637.66 4044.66 -2639 4043 -2639V-2637ZM-8023 -2639C-8024.66 -2639 -8026 -2637.66 -8026 -2636H-8024C-8024 -2636.55 -8023.55 -2637 -8023 -2637V-2639Z" fill="white" fill-opacity="0.1"/>
</svg>
