<svg width="15" height="15" viewBox="0 0 15 15" fill="none" xmlns="http://www.w3.org/2000/svg">
<path d="M7.15706 14.503C3.26152 14.503 0.0927734 11.3934 0.0927734 7.57058C0.0927734 3.74777 3.26152 0.638184 7.15706 0.638184C11.0526 0.638184 14.2213 3.74777 14.2213 7.57058C14.2213 11.3934 11.0526 14.503 7.15706 14.503ZM7.15706 1.60549C3.80497 1.60549 1.07849 4.28108 1.07849 7.57058C1.07849 10.8601 3.80497 13.5357 7.15706 13.5357C10.5091 13.5357 13.2356 10.8601 13.2356 7.57058C13.2356 4.28108 10.5091 1.60549 7.15706 1.60549ZM11.0999 7.57058C11.0999 5.43347 9.33483 3.70133 7.15706 3.70133C4.97929 3.70133 3.2142 5.43347 3.2142 7.57058C3.2142 9.70769 4.97929 11.4398 7.15706 11.4398C9.33483 11.4398 11.0999 9.70769 11.0999 7.57058Z" fill="#FF0000"/>
</svg>
