<svg width="76" height="76" viewBox="0 0 76 76" fill="none" xmlns="http://www.w3.org/2000/svg">
<circle cx="38" cy="38" r="38" fill="#55ACEE"/>
<path d="M56.4346 26.8169C55.1125 27.4027 53.6922 27.7986 52.1992 27.9775C53.7397 27.0557 54.8923 25.6048 55.4418 23.8957C53.9944 24.7554 52.4103 25.3606 50.7583 25.6848C49.6474 24.4987 48.176 23.7125 46.5725 23.4483C44.969 23.1841 43.3231 23.4568 41.8904 24.2238C40.4577 24.9909 39.3184 26.2095 38.6492 27.6904C37.9801 29.1714 37.8186 30.8319 38.1898 32.414C35.257 32.2667 32.3879 31.5045 29.7687 30.1766C27.1496 28.8487 24.8389 26.985 22.9866 24.7063C22.3533 25.7988 21.9891 27.0655 21.9891 28.4145C21.9884 29.6289 22.2875 30.8247 22.8598 31.8958C23.4321 32.9669 24.2599 33.8802 25.2698 34.5547C24.0986 34.5174 22.9532 34.2009 21.929 33.6316V33.7266C21.9289 35.4298 22.518 37.0807 23.5965 38.399C24.675 39.7173 26.1764 40.6219 27.8459 40.9592C26.7594 41.2533 25.6203 41.2966 24.5146 41.0859C24.9856 42.5515 25.9031 43.833 27.1387 44.7512C28.3743 45.6694 29.8661 46.1782 31.4052 46.2064C28.7925 48.2575 25.5657 49.3701 22.2441 49.3652C21.6557 49.3653 21.0678 49.331 20.4834 49.2622C23.8551 51.4301 27.7799 52.5806 31.7884 52.5762C45.3576 52.5762 52.7755 41.3377 52.7755 31.5907C52.7755 31.274 52.7676 30.9542 52.7533 30.6375C54.1962 29.594 55.4417 28.3019 56.4314 26.8217L56.4346 26.8169Z" fill="white"/>
</svg>
