<svg width="76" height="76" viewBox="0 0 76 76" fill="none" xmlns="http://www.w3.org/2000/svg">
<circle cx="38" cy="38" r="38" fill="#CB1F27"/>
<g clip-path="url(#clip0_2080_15508)">
<path d="M19 38C19 46.1114 24.0841 53.0369 31.2392 55.7618C31.065 54.2783 30.8798 51.832 31.2788 50.1157C31.6223 48.64 33.497 40.7138 33.497 40.7138C33.497 40.7138 32.9318 39.5817 32.9318 37.905C32.9318 35.2767 34.4549 33.3133 36.3533 33.3133C37.9683 33.3133 38.7473 34.5246 38.7473 35.9765C38.7473 37.5994 37.7134 40.0251 37.1798 42.275C36.7349 44.1576 38.1251 45.6934 39.9808 45.6934C43.3422 45.6934 45.9278 42.1483 45.9278 37.031C45.9278 32.5011 42.6724 29.336 38.0253 29.336C32.6452 29.336 29.4864 33.3719 29.4864 37.544C29.4864 39.1701 30.1118 40.9118 30.894 41.8602C30.9607 41.9318 31.0078 42.0194 31.0308 42.1145C31.0538 42.2096 31.052 42.3091 31.0254 42.4033C30.8813 43.0018 30.5615 44.2858 30.4998 44.5487C30.4158 44.8938 30.2258 44.9683 29.8664 44.8004C27.5041 43.7016 26.0284 40.2483 26.0284 37.4743C26.0284 31.5068 30.362 26.0284 38.5241 26.0284C45.0854 26.0284 50.1853 30.704 50.1853 36.9518C50.1853 43.4704 46.0766 48.7176 40.3703 48.7176C38.4528 48.7176 36.6526 47.7201 36.0351 46.5437C36.0351 46.5437 35.0867 50.1568 34.8571 51.0403C34.4106 52.7567 33.1724 54.929 32.4045 56.1624C34.1747 56.7071 36.0525 57 38 57C48.4928 57 57 48.4928 57 38C57 27.5073 48.4928 19 38 19C27.5073 19 19 27.5073 19 38Z" fill="white"/>
</g>
<defs>
<clipPath id="clip0_2080_15508">
<rect width="38" height="38" fill="white" transform="translate(19 19)"/>
</clipPath>
</defs>
</svg>
