<svg width="76" height="76" viewBox="0 0 76 76" fill="none" xmlns="http://www.w3.org/2000/svg">
<circle cx="38" cy="38" r="38" fill="#1877F2"/>
<g clip-path="url(#clip0_2080_15486)">
<path d="M57 38C57 27.5037 48.4892 19 38 19C27.5037 19 19 27.5037 19 38C19 47.481 25.9457 55.3422 35.0312 56.7661V43.4934H30.2064V38.0012H35.0312V33.8129C35.0312 29.0522 37.8634 26.4231 42.2049 26.4231C44.2843 26.4231 46.4609 26.7936 46.4609 26.7936V31.4687H44.061C41.705 31.4687 40.9688 32.9353 40.9688 34.4375V38H46.2377L45.391 43.4922H40.9688V56.7649C50.0472 55.3411 57 47.4798 57 37.9988V38Z" fill="white"/>
</g>
<defs>
<clipPath id="clip0_2080_15486">
<rect width="38" height="38" fill="white" transform="translate(19 19)"/>
</clipPath>
</defs>
</svg>
