<svg width="24" height="24" viewBox="0 0 24 24" fill="none" xmlns="http://www.w3.org/2000/svg">
<path d="M2.44377 10.7611L2.93483 10.8552C2.9471 10.7912 3.0033 10.6938 3.14801 10.6009C3.29071 10.5094 3.46644 10.4591 3.61077 10.4591C3.63615 10.4591 3.70558 10.4711 3.85958 10.5244C3.90012 10.5385 3.95557 10.5588 4.01782 10.5817C4.1275 10.622 4.2583 10.6701 4.36589 10.7049C4.72888 10.8224 5.2825 10.9564 5.80408 10.6675L6.07884 10.5153L6.06096 10.2017C6.05004 10.01 6.0375 9.81161 6.02465 9.60828C5.97991 8.90016 5.93141 8.1326 5.93427 7.38652C5.93798 6.41531 6.03085 5.56798 6.28534 4.99793L6.28541 4.99777C7.33541 2.64354 9.64039 1.46111 11.9868 1.46111C14.35 1.46111 16.6735 2.66222 17.7142 4.99389M2.44377 10.7611L2.93491 10.8548C2.92663 10.8982 2.92266 10.9651 3.00132 11.0691C3.09407 11.1918 3.31732 11.3833 3.82837 11.585L3.8286 11.5851C3.90042 11.6135 3.9945 11.6435 4.12182 11.6842C4.14951 11.693 4.17876 11.7023 4.2097 11.7123C4.37163 11.7642 4.56404 11.8279 4.7541 11.9069C5.09818 12.05 5.59136 12.3032 5.79498 12.7826C5.89269 13.0127 5.87941 13.2699 5.84333 13.4786C5.8046 13.7026 5.72545 13.9484 5.61801 14.2009C5.40251 14.7072 5.0521 15.2894 4.59139 15.8553C3.67557 16.9802 2.26451 18.111 0.500128 18.4021C0.503451 18.445 0.530724 18.5314 0.694613 18.6574C0.861821 18.786 1.11377 18.9087 1.42907 19.0191C2.0561 19.2385 2.80426 19.3661 3.28826 19.441L3.49163 19.4725L3.61392 19.638C3.69677 19.7501 3.74028 19.8898 3.76271 19.9651C3.7912 20.0608 3.81753 20.1716 3.84182 20.2783C3.85254 20.3255 3.86303 20.3725 3.87345 20.4192C3.91315 20.597 3.95173 20.7699 3.99738 20.9248C4.00955 20.9658 4.02232 20.9783 4.02256 20.9786C4.02252 20.9785 4.02256 20.9786 4.02273 20.9787C4.02293 20.9788 4.02454 20.9798 4.02829 20.9811C4.03524 20.9836 4.05669 20.9901 4.09977 20.9901C4.16968 20.9901 4.26977 20.9758 4.44186 20.9432C4.47345 20.9372 4.50706 20.9307 4.54248 20.9238C4.68508 20.8961 4.85719 20.8628 5.04602 20.8349C5.52963 20.7637 6.14433 20.7245 6.91941 20.8528L6.91997 20.8529C7.36486 20.9271 7.77481 21.1347 8.15064 21.3634C8.35729 21.4891 8.59076 21.646 8.82217 21.8015C8.98703 21.9123 9.15084 22.0224 9.30318 22.12C10.0924 22.6258 10.9535 23.0611 12.0728 23.0611C13.0966 23.0611 13.9312 22.6296 14.7204 22.118C14.8678 22.0225 15.0236 21.9173 15.1802 21.8114C15.4161 21.652 15.6541 21.4911 15.8687 21.36C16.2407 21.1328 16.6472 20.925 17.0807 20.8529L17.0811 20.8528C17.9317 20.712 18.6622 20.7587 19.4546 20.9134L19.455 20.9135C19.5812 20.9382 19.6869 20.9566 19.7797 20.9657C19.8735 20.9749 19.9326 20.9721 19.9679 20.9656C19.9756 20.9641 19.9811 20.9627 19.985 20.9616C19.9891 20.9541 19.9956 20.9398 20.0026 20.9156L20.0032 20.9136C20.0501 20.7548 20.0893 20.5803 20.1293 20.4026C20.1394 20.3576 20.1495 20.3125 20.1599 20.2673C20.184 20.1619 20.2101 20.0527 20.2382 19.9584C20.2602 19.8846 20.3034 19.746 20.3859 19.6346L20.5081 19.4695L20.7111 19.438C21.191 19.3635 21.9395 19.2365 22.568 19.0173C22.884 18.907 23.1369 18.7844 23.3048 18.6557C23.47 18.5291 23.4964 18.4428 23.4994 18.4011C21.7619 18.114 20.3494 16.9879 19.427 15.8663C18.9626 15.3018 18.6067 14.7197 18.3869 14.2117C18.2773 13.9584 18.1962 13.7111 18.1564 13.4849C18.1191 13.2733 18.1058 13.0141 18.2045 12.7817M2.44377 10.7611C2.53577 10.2811 3.12077 9.95911 3.61077 9.95911C3.77577 9.95911 3.98508 10.0364 4.21526 10.1215C4.64213 10.2791 5.14078 10.4633 5.56177 10.2301L0.41677 17.9091C3.62477 17.3811 5.66777 13.7621 5.33477 12.9781C5.14687 12.5357 4.46491 12.3183 3.97611 12.1625C3.84839 12.1218 3.73385 12.0853 3.64477 12.0501C2.53277 11.6111 2.37777 11.1071 2.44377 10.7611ZM18.2045 12.7817L18.6648 12.9771L18.2044 12.782C18.2044 12.7819 18.2045 12.7818 18.2045 12.7817ZM18.2045 12.7817C18.4076 12.303 18.8983 12.0505 19.2419 11.9075C19.4316 11.8286 19.6238 11.7649 19.7861 11.7127C19.8165 11.703 19.8453 11.6938 19.8726 11.6851C20.0012 11.644 20.0971 11.6133 20.1711 11.5841L20.1713 11.584C20.547 11.4358 20.7855 11.2865 20.9223 11.1542C21.0504 11.0302 21.069 10.9438 21.0679 10.886L21.0679 10.8855C21.0665 10.8127 21.0241 10.7117 20.8653 10.6066C20.7051 10.5005 20.4956 10.4421 20.3348 10.4421C20.2905 10.4421 20.2101 10.4572 20.0649 10.5071C19.9969 10.5305 19.9258 10.5574 19.8442 10.5884L19.8417 10.5893C19.7616 10.6196 19.6722 10.6534 19.5807 10.6848C19.2388 10.8021 18.7069 10.9475 18.1963 10.666L17.9208 10.514L17.9386 10.1999C17.9496 10.0049 17.9622 9.80331 17.9752 9.59702C18.0198 8.88698 18.0678 8.12129 18.0649 7.37796C18.0611 6.40813 17.9683 5.56362 17.7142 4.99389M17.7142 4.99389L18.17 4.79046L17.7141 4.99378C17.7141 4.99382 17.7142 4.99385 17.7142 4.99389ZM19.9804 20.9687C19.9803 20.9688 19.9806 20.9683 19.9815 20.9673L19.9804 20.9687Z" fill="white" stroke="black"/>
</svg>
