<svg width="20" height="14" viewBox="0 0 20 14" fill="none" xmlns="http://www.w3.org/2000/svg">
<path d="M13.896 3.1079C14.93 4.1539 15.5 5.53599 15.5 6.99999C15.5 8.46399 14.93 9.84608 13.896 10.8921C13.798 10.9911 13.669 11.04 13.541 11.04C13.414 11.04 13.287 10.992 13.189 10.895C12.993 10.701 12.9911 10.384 13.1851 10.188C14.0341 9.33098 14.5 8.19799 14.5 6.99999C14.5 5.80199 14.0331 4.669 13.1851 3.812C12.9911 3.616 12.993 3.29897 13.189 3.10497C13.385 2.91097 13.701 2.9119 13.896 3.1079ZM6.81201 3.10399C6.61501 2.90999 6.29798 2.9109 6.10498 3.1079C5.07098 4.1539 4.50098 5.53599 4.50098 6.99999C4.50098 8.46399 5.07098 9.84608 6.10498 10.8921C6.20298 10.9911 6.33196 11.04 6.45996 11.04C6.58696 11.04 6.71401 10.992 6.81201 10.895C7.00801 10.701 7.01004 10.384 6.81604 10.188C5.96704 9.33098 5.50098 8.19799 5.50098 6.99999C5.50098 5.80199 5.96804 4.669 6.81604 3.812C7.01004 3.615 7.00801 3.29899 6.81201 3.10399ZM17.062 0.66503C16.874 0.45903 16.56 0.444874 16.355 0.629874C16.151 0.814874 16.1349 1.13093 16.3199 1.33593C17.7259 2.88893 18.501 4.89997 18.501 7.00097C18.501 9.10197 17.7269 11.113 16.3199 12.666C16.1349 12.871 16.151 13.1871 16.355 13.3721C16.451 13.4591 16.571 13.501 16.691 13.501C16.827 13.501 16.962 13.4459 17.062 13.3359C18.634 11.5989 19.5 9.34897 19.5 7.00097C19.5 4.65297 18.634 2.40103 17.062 0.66503ZM3.646 0.628897C3.443 0.443897 3.12696 0.458054 2.93896 0.664054C1.36696 2.40105 0.500977 4.65101 0.500977 6.99901C0.500977 9.34701 1.36696 11.598 2.93896 13.334C3.03896 13.443 3.17406 13.499 3.31006 13.499C3.43006 13.499 3.55 13.4571 3.646 13.3701C3.85 13.1851 3.86603 12.8691 3.68103 12.6641C2.27503 11.1111 1.5 9.10001 1.5 6.99901C1.5 4.89801 2.27403 2.88698 3.68103 1.33398C3.86503 1.13098 3.85 0.813897 3.646 0.628897ZM12 6.99999C12 8.10299 11.103 8.99999 10 8.99999C8.897 8.99999 8 8.10299 8 6.99999C8 5.89699 8.897 4.99999 10 4.99999C11.103 4.99999 12 5.89699 12 6.99999ZM11 6.99999C11 6.44899 10.552 5.99999 10 5.99999C9.448 5.99999 9 6.44899 9 6.99999C9 7.55099 9.448 7.99999 10 7.99999C10.552 7.99999 11 7.55099 11 6.99999Z" fill="#8E8E93"/>
</svg>
