<svg width="20" height="20" viewBox="0 0 20 20" fill="none" xmlns="http://www.w3.org/2000/svg">
<path d="M10 6.5C8.07 6.5 6.5 8.07 6.5 10C6.5 11.93 8.07 13.5 10 13.5C11.93 13.5 13.5 11.93 13.5 10C13.5 8.07 11.93 6.5 10 6.5ZM10 12.5C8.622 12.5 7.5 11.378 7.5 10C7.5 8.622 8.622 7.5 10 7.5C11.378 7.5 12.5 8.622 12.5 10C12.5 11.378 11.379 12.5 10 12.5ZM19.082 12.169C18.311 11.722 17.831 10.891 17.83 10C17.829 9.11 18.306 8.28 19.085 7.828C19.481 7.598 19.616 7.08799 19.387 6.69199L17.715 3.806C17.486 3.41 16.978 3.27299 16.58 3.50299C15.803 3.95099 14.839 3.94999 14.061 3.49799C13.292 3.05299 12.815 2.22401 12.815 1.33701C12.815 0.876006 12.44 0.501007 11.978 0.501007H8.02302C7.56102 0.501007 7.18601 0.876006 7.18601 1.33701C7.18601 2.22501 6.70899 3.053 5.93799 3.5C5.16199 3.949 4.197 3.95099 3.422 3.50299C3.023 3.27399 2.51502 3.411 2.28602 3.806L0.612004 6.694C0.383004 7.09 0.518995 7.59899 0.920995 7.83099C1.69099 8.27699 2.17 9.106 2.172 9.996C2.174 10.887 1.697 11.719 0.916997 12.171C0.724997 12.282 0.587003 12.462 0.530003 12.677C0.473003 12.891 0.503018 13.115 0.614018 13.308L2.28501 16.193C2.51501 16.59 3.024 16.726 3.422 16.497C4.198 16.05 5.162 16.051 5.93 16.497L5.93201 16.498C5.93401 16.499 5.93599 16.501 5.93799 16.502C6.70699 16.948 7.18301 17.776 7.18201 18.664C7.18201 19.125 7.55701 19.5 8.01801 19.5H11.977C12.438 19.5 12.813 19.125 12.813 18.665C12.813 17.777 13.291 16.948 14.062 16.501C14.837 16.051 15.802 16.05 16.578 16.498C16.975 16.727 17.484 16.59 17.714 16.195L19.388 13.306C19.618 12.91 19.481 12.401 19.082 12.169ZM16.932 15.551C15.873 15.006 14.597 15.035 13.559 15.636C12.531 16.232 11.874 17.319 11.818 18.5H8.17801C8.12401 17.319 7.46801 16.233 6.44001 15.636C5.40401 15.035 4.126 15.006 3.068 15.55L1.56 12.948C2.56 12.306 3.17399 11.188 3.17099 9.992C3.16799 8.805 2.556 7.69399 1.56 7.04999L3.068 4.44699C4.127 4.99199 5.40301 4.96299 6.44101 4.36099C7.46901 3.76499 8.125 2.67899 8.181 1.49799H11.818C11.874 2.67899 12.53 3.76501 13.561 4.36301C14.596 4.96301 15.872 4.99199 16.932 4.44699L18.44 7.04901C17.441 7.69001 16.829 8.807 16.831 10C16.832 11.19 17.444 12.303 18.441 12.947L16.932 15.551Z" fill="#8E8E93"/>
</svg>
