<svg width="17" height="17" viewBox="0 0 17 17" fill="none" xmlns="http://www.w3.org/2000/svg">
<path d="M16.3653 8.31625L14.0177 7.65768C11.8586 7.05154 10.2005 5.42418 9.5833 3.30312L8.91268 0.997771C8.80679 0.635102 8.19039 0.635102 8.0845 0.997771L7.41388 3.30312C6.79663 5.42418 5.13857 7.05239 2.97948 7.65768L0.631842 8.31625C0.446752 8.36782 0.319336 8.53435 0.319336 8.72287C0.319336 8.91139 0.446752 9.07707 0.631842 9.12949L2.97948 9.78806C5.13857 10.3942 6.79663 12.0216 7.41388 14.1426L8.0845 16.448C8.13788 16.6297 8.3066 16.7548 8.49858 16.7548C8.69055 16.7548 8.8593 16.6297 8.91268 16.448L9.5833 14.1426C10.2005 12.0216 11.8586 10.3933 14.0177 9.78806L16.3653 9.12949C16.5504 9.07792 16.6778 8.91139 16.6778 8.72287C16.6778 8.53435 16.5504 8.36866 16.3653 8.31625Z" fill="white"/>
</svg>
