<svg width="160" height="170" viewBox="0 0 160 170" fill="none" xmlns="http://www.w3.org/2000/svg">
<path d="M67.23 0.840102C68.0506 0.294029 69.0143 0.00268555 70 0.00268555C70.9857 0.00268555 71.9494 0.294029 72.77 0.840102C91.6487 13.5671 113.169 21.8448 135.71 25.0501C136.901 25.221 137.99 25.8155 138.778 26.7248C139.566 27.634 140 28.7969 140 30.0001V76.0001C136.804 74.3646 133.454 73.0482 130 72.0701V34.2701C110.19 30.918 91.1914 23.8578 74 13.4601L70 10.9701L66 13.4601C48.8094 23.8613 29.8102 30.9249 10 34.2801V75.0001C10 107.42 27.98 131.43 64.78 147.46C66.73 151.81 69.22 155.86 72.18 159.52L71.8 159.67C70.6416 160.117 69.3584 160.117 68.2 159.67C23.08 142.3 0 113.9 0 75.0001V30.0001C0.000182515 28.7954 0.4353 27.6313 1.22533 26.7219C2.01536 25.8124 3.10718 25.2188 4.3 25.0501C26.8377 21.8434 48.3543 13.5657 67.23 0.840102ZM160 125C160 136.935 155.259 148.381 146.82 156.82C138.381 165.259 126.935 170 115 170C103.065 170 91.6193 165.259 83.1802 156.82C74.7411 148.381 70 136.935 70 125C70 113.065 74.7411 101.619 83.1802 93.1803C91.6193 84.7412 103.065 80.0001 115 80.0001C126.935 80.0001 138.381 84.7412 146.82 93.1803C155.259 101.619 160 113.065 160 125ZM138.54 106.46C138.076 105.994 137.524 105.625 136.916 105.373C136.309 105.121 135.658 104.991 135 104.991C134.342 104.991 133.691 105.121 133.084 105.373C132.476 105.625 131.924 105.994 131.46 106.46L105 132.93L98.54 126.46C97.6011 125.521 96.3278 124.994 95 124.994C93.6722 124.994 92.3989 125.521 91.46 126.46C90.5211 127.399 89.9937 128.672 89.9937 130C89.9937 131.328 90.5211 132.601 91.46 133.54L101.46 143.54C101.924 144.006 102.476 144.375 103.084 144.627C103.691 144.879 104.342 145.009 105 145.009C105.658 145.009 106.309 144.879 106.916 144.627C107.524 144.375 108.076 144.006 108.54 143.54L138.54 113.54C139.006 113.076 139.375 112.524 139.627 111.916C139.879 111.309 140.009 110.658 140.009 110C140.009 109.342 139.879 108.691 139.627 108.084C139.375 107.476 139.006 106.925 138.54 106.46Z" fill="#07AA3D"/>
</svg>
