<svg width="24" height="25" viewBox="0 0 24 25" fill="none" xmlns="http://www.w3.org/2000/svg">
<path d="M12 9.5C11.206 9.50524 10.4459 9.82299 9.88447 10.3845C9.32299 10.9459 9.00524 11.706 9 12.5C9 14.142 10.358 15.5 12 15.5C13.641 15.5 15 14.142 15 12.5C15 10.859 13.641 9.5 12 9.5Z" fill="black" fill-opacity="0.5"/>
<path d="M12 5.5C4.367 5.5 2.073 12.117 2.052 12.184L1.946 12.5L2.051 12.816C2.073 12.883 4.367 19.5 12 19.5C19.633 19.5 21.927 12.883 21.948 12.816L22.054 12.5L21.949 12.184C21.927 12.117 19.633 5.5 12 5.5ZM12 17.5C6.649 17.5 4.576 13.654 4.074 12.5C4.578 11.342 6.652 7.5 12 7.5C17.351 7.5 19.424 11.346 19.926 12.5C19.422 13.658 17.348 17.5 12 17.5V17.5Z" fill="black" fill-opacity="0.5"/>
</svg>
