<svg width="20" height="20" viewBox="0 0 20 20" fill="none" xmlns="http://www.w3.org/2000/svg">
<path d="M16 12.5C14.65 12.5 13.49 13.276 12.906 14.399L7.13989 11.516C7.36289 11.056 7.5 10.546 7.5 10C7.5 9.454 7.36389 8.94501 7.13989 8.48401L12.906 5.60101C13.49 6.72401 14.65 7.5 16 7.5C17.93 7.5 19.5 5.93 19.5 4C19.5 2.07 17.93 0.5 16 0.5C14.07 0.5 12.5 2.07 12.5 4C12.5 4.224 12.5259 4.44102 12.5659 4.65302L6.57495 7.64899C5.93495 6.94799 5.022 6.5 4 6.5C2.07 6.5 0.5 8.07 0.5 10C0.5 11.93 2.07 13.5 4 13.5C5.022 13.5 5.93395 13.052 6.57495 12.351L12.5659 15.347C12.5259 15.559 12.5 15.776 12.5 16C12.5 17.93 14.07 19.5 16 19.5C17.93 19.5 19.5 17.93 19.5 16C19.5 14.07 17.93 12.5 16 12.5ZM16 1.5C17.379 1.5 18.5 2.622 18.5 4C18.5 5.378 17.379 6.5 16 6.5C14.621 6.5 13.5 5.378 13.5 4C13.5 2.622 14.621 1.5 16 1.5ZM4 12.5C2.621 12.5 1.5 11.378 1.5 10C1.5 8.622 2.621 7.5 4 7.5C5.379 7.5 6.5 8.622 6.5 10C6.5 11.378 5.379 12.5 4 12.5ZM16 18.5C14.621 18.5 13.5 17.378 13.5 16C13.5 14.622 14.621 13.5 16 13.5C17.379 13.5 18.5 14.622 18.5 16C18.5 17.378 17.379 18.5 16 18.5Z" fill="#8E8E93"/>
</svg>
