<svg width="20" height="20" viewBox="0 0 20 20" fill="none" xmlns="http://www.w3.org/2000/svg">
<path d="M19.354 18.646L15.345 14.637C16.681 13.135 17.501 11.164 17.501 9C17.501 4.313 13.688 0.5 9.00098 0.5C4.31398 0.5 0.500977 4.313 0.500977 9C0.500977 13.687 4.31398 17.5 9.00098 17.5C11.165 17.5 13.136 16.68 14.638 15.344L18.647 19.353C18.745 19.451 18.873 19.499 19.001 19.499C19.129 19.499 19.257 19.45 19.355 19.353C19.549 19.158 19.549 18.842 19.354 18.646ZM1.5 9C1.5 4.865 4.864 1.5 9 1.5C13.136 1.5 16.5 4.865 16.5 9C16.5 13.135 13.136 16.5 9 16.5C4.864 16.5 1.5 13.135 1.5 9Z" fill="#07AA3D"/>
</svg>
