<svg width="31" height="23" viewBox="0 0 31 23" fill="none" xmlns="http://www.w3.org/2000/svg">
<path d="M3.3125 0.248779C2.56658 0.248779 1.85121 0.545095 1.32376 1.07254C0.796316 1.59999 0.5 2.31536 0.5 3.06128V19.9363C0.499836 20.3057 0.572462 20.6716 0.71373 21.013C0.854998 21.3543 1.06214 21.6645 1.32332 21.9258C1.5845 22.1871 1.8946 22.3944 2.23591 22.5358C2.57722 22.6772 2.94305 22.75 3.3125 22.75H27.6875C28.4334 22.75 29.1488 22.4537 29.6762 21.9263C30.2037 21.3988 30.5 20.6835 30.5 19.9375V3.06253C30.5 2.31661 30.2037 1.60124 29.6762 1.07379C29.1488 0.546346 28.4334 0.250029 27.6875 0.250029H3.3125V0.248779ZM16.16 5.05003L20.2288 9.11878C20.3994 9.29567 20.4938 9.53253 20.4916 9.77834C20.4893 10.0242 20.3906 10.2592 20.2167 10.433C20.0428 10.6067 19.8076 10.7052 19.5618 10.7072C19.316 10.7092 19.0792 10.6146 18.9025 10.4438L16.435 7.97628V17.285C16.435 17.5337 16.3362 17.7721 16.1604 17.9479C15.9846 18.1238 15.7461 18.2225 15.4975 18.2225C15.2489 18.2225 15.0104 18.1238 14.8346 17.9479C14.6588 17.7721 14.56 17.5337 14.56 17.285V7.97878L12.0975 10.4438C12.0111 10.5334 11.9076 10.6048 11.7933 10.654C11.6789 10.7032 11.5559 10.7291 11.4314 10.7303C11.307 10.7314 11.1835 10.7077 11.0683 10.6607C10.953 10.6136 10.8483 10.544 10.7603 10.456C10.6722 10.368 10.6025 10.2634 10.5553 10.1482C10.5082 10.033 10.4844 9.90958 10.4854 9.7851C10.4864 9.66062 10.5122 9.53759 10.5613 9.42319C10.6104 9.30878 10.6818 9.2053 10.7712 9.11878L14.8337 5.05128C14.9208 4.96416 15.0242 4.89505 15.138 4.8479C15.2518 4.80075 15.3737 4.77648 15.4969 4.77648C15.62 4.77648 15.742 4.80075 15.8558 4.8479C15.9696 4.89505 16.0729 4.96416 16.16 5.05128V5.05003Z" fill="#828282"/>
</svg>
