<svg width="33" height="29" viewBox="0 0 33 29" fill="none" xmlns="http://www.w3.org/2000/svg">
<path fill-rule="evenodd" clip-rule="evenodd" d="M29.3134 1.01416C29.7046 0.849484 30.1329 0.792686 30.5536 0.849684C30.9742 0.906681 31.3719 1.07539 31.7053 1.33825C32.0386 1.60111 32.2954 1.94851 32.4489 2.3443C32.6025 2.74008 32.6471 3.16978 32.5782 3.58867L28.9872 25.3706C28.6389 27.4717 26.3335 28.6766 24.4066 27.63C22.7948 26.7544 20.4008 25.4054 18.2474 23.9978C17.1708 23.2932 13.8727 21.037 14.278 19.4315C14.6264 18.0588 20.168 12.9002 23.3347 9.83333C24.5776 8.62842 24.0108 7.93333 22.543 9.04167C18.8966 11.7935 13.0462 15.9782 11.1114 17.1562C9.40453 18.1949 8.51469 18.3722 7.45069 18.1949C5.50953 17.8719 3.70928 17.3716 2.23994 16.762C0.254444 15.9387 0.351027 13.209 2.23836 12.4142L29.3134 1.01416Z" fill="white"/>
</svg>
