<svg width="27" height="24" viewBox="0 0 27 24" fill="none" xmlns="http://www.w3.org/2000/svg">
<path d="M20.1646 2.10783C19.506 2.40332 18.7984 2.60297 18.0546 2.69322C18.8221 2.22826 19.3963 1.49647 19.67 0.63439C18.9489 1.06803 18.1597 1.37326 17.3367 1.53682C16.7833 0.938555 16.0502 0.542011 15.2514 0.408761C14.4525 0.27551 13.6326 0.413008 12.9188 0.799905C12.205 1.1868 11.6374 1.80145 11.304 2.54843C10.9707 3.29541 10.8902 4.13292 11.0752 4.93093C9.61405 4.85666 8.18468 4.47217 6.87982 3.80242C5.57497 3.13266 4.4238 2.19262 3.50101 1.04328C3.18549 1.59432 3.00406 2.23322 3.00406 2.91364C3.00371 3.52617 3.1527 4.12932 3.43781 4.66957C3.72293 5.20983 4.13535 5.67048 4.63848 6.01066C4.05498 5.99186 3.48435 5.83224 2.97409 5.54507V5.59299C2.97403 6.45209 3.26755 7.28475 3.80485 7.94969C4.34215 8.61463 5.09013 9.07089 5.92187 9.24106C5.38058 9.38937 4.81307 9.41122 4.26222 9.30495C4.49689 10.0442 4.954 10.6906 5.56956 11.1537C6.18513 11.6168 6.92833 11.8734 7.69512 11.8877C6.39345 12.9222 4.7859 13.4834 3.13106 13.4809C2.83793 13.481 2.54504 13.4636 2.25391 13.429C3.93366 14.5224 5.88901 15.1027 7.88601 15.1005C14.6461 15.1005 18.3417 9.43192 18.3417 4.51566C18.3417 4.35593 18.3377 4.19461 18.3306 4.03489C19.0495 3.50858 19.67 2.85685 20.1631 2.11023L20.1646 2.10783V2.10783Z" fill="black"/>
</svg>
