<svg width="18" height="18" viewBox="0 0 18 18" fill="none" xmlns="http://www.w3.org/2000/svg">
<path d="M17.75 3C17.75 3.414 17.414 3.75 17 3.75H1C0.586 3.75 0.25 3.414 0.25 3C0.25 2.586 0.586 2.25 1 2.25H5.214C5.307 2.068 5.37899 1.862 5.45599 1.632L5.658 1.02499C5.862 0.412994 6.43499 0 7.08099 0H10.919C11.565 0 12.138 0.412994 12.342 1.02499L12.544 1.632C12.621 1.862 12.693 2.068 12.786 2.25H17C17.414 2.25 17.75 2.586 17.75 3ZM15.56 4.75C15.733 4.75 15.871 4.89701 15.859 5.07001L15.19 15.2C15.08 16.78 14.25 18 12.19 18H5.81C3.75 18 2.92 16.78 2.81 15.2L2.141 5.07001C2.13 4.89701 2.267 4.75 2.44 4.75H15.56ZM7.75 8C7.75 7.59 7.41 7.25 7 7.25C6.59 7.25 6.25 7.59 6.25 8V13C6.25 13.41 6.59 13.75 7 13.75C7.41 13.75 7.75 13.41 7.75 13V8ZM11.75 8C11.75 7.59 11.41 7.25 11 7.25C10.59 7.25 10.25 7.59 10.25 8V13C10.25 13.41 10.59 13.75 11 13.75C11.41 13.75 11.75 13.41 11.75 13V8Z" fill="#FF0000"/>
</svg>
