<svg width="20" height="23" viewBox="0 0 20 23" fill="none" xmlns="http://www.w3.org/2000/svg">
<path d="M17.3208 4.82315C17.169 4.7446 17.0211 4.65849 16.8778 4.56515C16.4615 4.28988 16.0798 3.96555 15.7408 3.59915C14.8918 2.62815 14.5748 1.64315 14.4588 0.954154H14.4628C14.3658 0.381154 14.4058 0.0111542 14.4128 0.0111542H10.5478V14.9542C10.5478 15.1542 10.5478 15.3532 10.5398 15.5492C10.5398 15.5732 10.5368 15.5952 10.5358 15.6222C10.5358 15.6322 10.5358 15.6442 10.5328 15.6552V15.6642C10.4922 16.2002 10.3205 16.718 10.0328 17.1721C9.74509 17.6262 9.35018 18.0025 8.88283 18.2682C8.39526 18.5455 7.84378 18.691 7.28283 18.6902C5.48283 18.6902 4.02283 17.2222 4.02283 15.4092C4.02283 13.5952 5.48283 12.1272 7.28283 12.1272C7.62383 12.1272 7.96283 12.1812 8.28683 12.2872L8.29183 8.35115C7.30784 8.2242 6.30822 8.30262 5.35607 8.58145C4.40391 8.86028 3.5199 9.33347 2.75983 9.97115C2.09368 10.5497 1.53362 11.2401 1.10483 12.0112C0.94183 12.2922 0.32583 13.4232 0.25183 15.2572C0.20483 16.2972 0.51783 17.3772 0.66683 17.8222V17.8322C0.75983 18.0942 1.12383 18.9902 1.71583 19.7452C2.19323 20.3512 2.75728 20.8835 3.38983 21.3252V21.3152L3.39883 21.3252C5.26883 22.5952 7.34383 22.5122 7.34383 22.5122C7.70283 22.4972 8.90583 22.5122 10.2718 21.8652C11.7868 21.1472 12.6488 20.0782 12.6488 20.0782C13.1999 19.4393 13.6382 18.7112 13.9448 17.9252C14.2948 17.0052 14.4108 15.9032 14.4108 15.4632V7.53415C14.4578 7.56215 15.0828 7.97515 15.0828 7.97515C15.0828 7.97515 15.9828 8.55215 17.3858 8.92715C18.3918 9.19415 19.7488 9.25115 19.7488 9.25115V5.41415C19.2738 5.46615 18.3088 5.31615 17.3198 4.82415L17.3208 4.82315Z" fill="white"/>
</svg>
