<svg width="32" height="38" viewBox="0 0 32 38" fill="none" xmlns="http://www.w3.org/2000/svg">
<path d="M29.8281 37.5H1.83008C1.00208 37.5 0.330078 36.828 0.330078 36C0.330078 35.1721 1.00208 34.5 1.83008 34.5H29.8281C30.6561 34.5 31.3281 35.1721 31.3281 36C31.3281 36.828 30.6561 37.5 29.8281 37.5ZM8.16992 16V26C8.16992 27.104 9.06592 28 10.1699 28H22.1699C23.2739 28 24.1699 27.104 24.1699 26V16H29.0161C30.8081 16 31.678 13.8121 30.376 12.5821L17.8262 0.726C16.8022 -0.242 15.1978 -0.242 14.1738 0.726L1.62402 12.5821C0.322023 13.8121 1.19189 16 2.98389 16H8.16992Z" fill="#25314C"/>
</svg>
