<svg width="14" height="14" viewBox="0 0 14 14" fill="none" xmlns="http://www.w3.org/2000/svg">
<path d="M12.0846 4.83466C11.882 5.47132 11.362 5.98802 10.724 6.18736C9.69204 6.51002 8.71064 6.06736 8.21997 5.28802C8.1813 5.22669 8.18399 5.14937 8.21932 5.08604C8.50932 4.56871 8.67399 3.97135 8.67399 3.33335C8.67399 3.11202 8.65463 2.89601 8.61597 2.68467C8.6033 2.61534 8.62463 2.54333 8.67863 2.49733C9.04863 2.18333 9.52736 2.00002 10.0407 2.00002C11.4514 2.00002 12.5513 3.36732 12.0846 4.83466ZM11.0733 7.18671H9.75334C9.64 7.18671 9.5533 7.27332 9.5533 7.38666C9.5533 7.43999 9.57336 7.49338 9.61336 7.52671C9.62003 7.53338 9.62663 7.53998 9.6333 7.54665C10.5666 8.44665 11 9.73337 11 11.0134C11 11.26 10.9867 11.5 10.9467 11.72C10.94 11.7493 10.938 11.7741 10.938 11.8007C10.938 11.9141 11.0266 12 11.1333 12H12.1067C13.3267 12 14 11.3334 14 10.1201C14 8.76672 13.2333 7.18671 11.0733 7.18671ZM5.00667 0.666687C3.53334 0.666687 2.34001 1.86002 2.34001 3.33335C2.34001 4.80669 3.53334 6.00002 5.00667 6.00002C6.47334 6.00002 7.67334 4.80669 7.67334 3.33335C7.67334 1.86002 6.47334 0.666687 5.00667 0.666687ZM6.33333 7.33335H3.66667C0.96 7.33335 0 9.31337 0 11.0134C0 12.5334 0.806667 13.3334 2.33333 13.3334H7.66667C9.19333 13.3334 10 12.5334 10 11.0134C10 9.31337 9.04 7.33335 6.33333 7.33335Z" fill="#07AA3D"/>
</svg>
