<svg width="18" height="18" viewBox="0 0 18 18" fill="none" xmlns="http://www.w3.org/2000/svg">
<path d="M17.3335 5.30005V12.7C17.3335 13.2266 16.7242 13.5184 16.3134 13.1892L14.5102 11.7417C14.451 11.6942 14.4168 11.6224 14.4168 11.5466V7.02002C14.4168 6.95335 14.4434 6.89009 14.4901 6.84342L16.5726 4.7609C16.6693 4.66424 16.791 4.67833 16.8285 4.68583C17.1027 4.74083 17.3335 4.97421 17.3335 5.30005ZM12.7585 8.57499L6.90849 14.425C6.74932 14.6142 6.9143 14.8333 7.0918 14.8333H10.6668C12.3335 14.8333 13.1668 14 13.1668 12.3333V8.77824C13.1668 8.49324 12.8785 8.45499 12.7585 8.57499ZM16.9419 1.05831C16.6977 0.814141 16.3018 0.814141 16.0577 1.05831L12.8627 4.25329C12.4902 3.53413 11.7618 3.16667 10.666 3.16667H3.16602C1.49935 3.16667 0.666016 4 0.666016 5.66667V12.3333C0.666016 13.705 1.24014 14.5033 2.3693 14.7458L1.05684 16.0583C0.812677 16.3025 0.812677 16.6983 1.05684 16.9425C1.17851 17.0642 1.33854 17.1258 1.49854 17.1258C1.65854 17.1258 1.81856 17.065 1.94023 16.9425L16.9402 1.9425C17.1861 1.6975 17.186 1.30247 16.9419 1.05831Z" fill="#48484A"/>
</svg>
