<svg width="31" height="21" viewBox="0 0 31 21" fill="none" xmlns="http://www.w3.org/2000/svg">
<path d="M13.342 10.5C13.342 11.305 12.6901 11.9584 11.8837 11.9584C11.0787 11.9584 10.4179 11.305 10.4179 10.5C10.4179 9.69502 11.0641 9.04169 11.8691 9.04169H11.8837C12.6887 9.04169 13.342 9.69502 13.342 10.5ZM28.2985 3.16883L25.1429 5.70205C25.0394 5.78517 24.9795 5.91078 24.9795 6.04349V14.9566C24.9795 15.0893 25.0394 15.2149 25.1429 15.298L28.2985 17.8312C29.0174 18.4087 30.0837 17.8966 30.0837 16.9749V4.02511C30.0837 3.10344 29.0174 2.59279 28.2985 3.16883ZM22.792 4.66669V16.3334C22.792 19.25 21.3337 20.7084 18.417 20.7084H5.29199C2.37533 20.7084 0.916992 19.25 0.916992 16.3334V4.66669C0.916992 1.75002 2.37533 0.291687 5.29199 0.291687H18.417C21.3337 0.291687 22.792 1.75002 22.792 4.66669ZM17.424 9.53907C16.6292 8.20178 14.8426 5.94273 11.8545 5.94273C8.86637 5.94273 7.08123 8.20178 6.28498 9.53907C5.93207 10.1312 5.93207 10.8689 6.28498 11.461C7.07977 12.7983 8.86637 15.0573 11.8545 15.0573C14.8426 15.0573 16.6278 12.7983 17.424 11.461C17.7769 10.8689 17.7769 10.1312 17.424 9.53907Z" fill="#828282"/>
</svg>
