<svg width="32" height="11" viewBox="0 0 32 11" fill="none" xmlns="http://www.w3.org/2000/svg">
<path fill-rule="evenodd" clip-rule="evenodd" d="M8.35749 10.6777H5.69194L3.69311 2.58987C3.59823 2.21783 3.39679 1.88893 3.10048 1.73391C2.36098 1.34435 1.54611 1.03431 0.657166 0.877947V0.566566H4.95115C5.54379 0.566566 5.98826 1.03431 6.06234 1.57754L7.09945 7.41157L9.76369 0.566566H12.3552L8.35749 10.6777ZM13.8367 10.6777H11.3194L13.3923 0.566566H15.9097L13.8367 10.6777ZM19.1665 3.36766C19.2406 2.82308 19.6851 2.5117 20.2036 2.5117C21.0185 2.43351 21.9062 2.58988 22.647 2.9781L23.0914 0.80112C22.3506 0.489739 21.5358 0.333374 20.7963 0.333374C18.353 0.333374 16.5751 1.73392 16.5751 3.67769C16.5751 5.15642 17.8344 5.93285 18.7234 6.4006C19.6851 6.86699 20.0555 7.17838 19.9814 7.64477C19.9814 8.34437 19.2406 8.65575 18.5011 8.65575C17.6122 8.65575 16.7232 8.42255 15.9097 8.03299L15.4652 10.2113C16.3541 10.5995 17.3159 10.7559 18.2048 10.7559C20.9444 10.8327 22.647 9.43353 22.647 7.33339C22.647 4.68867 19.1665 4.53365 19.1665 3.36766ZM31.4572 10.6777L29.4583 0.566566H27.3113C26.8669 0.566566 26.4224 0.877947 26.2742 1.34435L22.5729 10.6777H25.1643L25.6816 9.20033H28.8657L29.162 10.6777H31.4572ZM27.6817 3.28948L28.4212 7.1002H26.3483L27.6817 3.28948Z" fill="#172B85"/>
</svg>
