<svg width="28" height="20" viewBox="0 0 28 20" fill="none" xmlns="http://www.w3.org/2000/svg">
<path d="M27.3334 4.08007V15.9199C27.3334 16.7626 26.3585 17.2295 25.7012 16.7028L22.8161 14.3867C22.7214 14.3107 22.6667 14.1959 22.6667 14.0745V5.92545C22.6667 5.80411 22.7214 5.68927 22.8161 5.61327L25.7012 3.29719C26.3585 2.77052 27.3334 3.2374 27.3334 4.08007ZM20.6667 15.3333V4.66666C20.6667 1.99999 19.3334 0.666656 16.6667 0.666656H4.66669C2.00002 0.666656 0.666687 1.99999 0.666687 4.66666V15.3333C0.666687 18 2.00002 19.3333 4.66669 19.3333H16.6667C19.3334 19.3333 20.6667 18 20.6667 15.3333Z" fill="white"/>
</svg>
