<svg width="20" height="20" viewBox="0 0 20 20" fill="none" xmlns="http://www.w3.org/2000/svg">
<path d="M0.530169 19.7347L1.81101 15.0282C0.967037 13.5814 0.523629 11.936 0.52638 10.261C0.52638 5.0287 4.76775 0.787334 10.0001 0.787334C15.2324 0.787334 19.4737 5.0287 19.4737 10.261C19.4737 15.4933 15.2324 19.7347 10.0001 19.7347C8.32585 19.7374 6.68111 19.2943 5.2348 18.451L0.530169 19.7347ZM6.58101 5.81597C6.45867 5.82356 6.33912 5.85578 6.22954 5.9107C6.12677 5.9689 6.03295 6.04165 5.95101 6.1267C5.83733 6.23376 5.77291 6.3266 5.70375 6.4166C5.35361 6.87228 5.16527 7.43162 5.16849 8.00628C5.17038 8.47049 5.29164 8.92239 5.48112 9.34491C5.86859 10.1994 6.50617 11.1042 7.34838 11.9426C7.55112 12.1444 7.74912 12.3471 7.96227 12.5357C9.00759 13.456 10.2533 14.1197 11.6002 14.474L12.1392 14.5564C12.3145 14.5659 12.4897 14.5526 12.666 14.5441C12.9419 14.5298 13.2113 14.4551 13.4551 14.3252C13.5792 14.2613 13.7003 14.1918 13.818 14.1168C13.818 14.1168 13.8587 14.0903 13.9364 14.0315C14.0643 13.9368 14.1429 13.8695 14.249 13.7587C14.3276 13.6772 14.3959 13.5815 14.448 13.4726C14.5219 13.3182 14.5957 13.0235 14.6261 12.7782C14.6488 12.5906 14.6422 12.4883 14.6393 12.4248C14.6355 12.3234 14.5512 12.2183 14.4593 12.1738L13.908 11.9265C13.908 11.9265 13.0837 11.5674 12.5807 11.3382C12.5277 11.3151 12.4708 11.3019 12.413 11.2993C12.3482 11.2927 12.2827 11.3 12.2209 11.3207C12.1592 11.3415 12.1026 11.3752 12.0549 11.4196V11.4178C12.0502 11.4178 11.9867 11.4718 11.3017 12.3017C11.2624 12.3545 11.2083 12.3944 11.1462 12.4163C11.0841 12.4383 11.0169 12.4412 10.9531 12.4248C10.8914 12.4083 10.8309 12.3874 10.7722 12.3623C10.6547 12.313 10.614 12.2941 10.5334 12.259L10.5287 12.2571C9.98671 12.0205 9.48491 11.7009 9.04133 11.3098C8.92196 11.2055 8.81112 11.0919 8.69743 10.982C8.32472 10.625 7.9999 10.2212 7.73112 9.7807L7.67522 9.6907C7.63507 9.63023 7.60261 9.56499 7.57859 9.49649C7.54259 9.35723 7.63638 9.24544 7.63638 9.24544C7.63638 9.24544 7.86659 8.99344 7.97364 8.85702C8.06278 8.74364 8.14595 8.62569 8.2228 8.50365C8.33459 8.32365 8.36964 8.13891 8.31091 7.99586C8.04564 7.34786 7.77091 6.7027 7.48859 6.06228C7.4327 5.93533 7.26691 5.84439 7.11627 5.82639C7.06512 5.8207 7.01396 5.81502 6.9628 5.81123C6.83557 5.80491 6.70809 5.80617 6.58101 5.81502V5.81597Z" fill="white"/>
</svg>
