<svg width="24" height="17" viewBox="0 0 24 17" fill="none" xmlns="http://www.w3.org/2000/svg">
<path d="M22.5518 3.43024C22.4306 2.94596 22.1837 2.50224 21.8362 2.1439C21.4886 1.78556 21.0526 1.5253 20.5722 1.38939C18.8171 0.960816 11.7965 0.960815 11.7965 0.960815C11.7965 0.960815 4.77602 0.960815 3.02089 1.43021C2.54052 1.56612 2.10453 1.82638 1.75694 2.18472C1.40935 2.54306 1.16248 2.98678 1.04127 3.47106C0.720053 5.25227 0.562929 7.05919 0.571872 8.86911C0.560422 10.6927 0.717556 12.5134 1.04127 14.308C1.1749 14.7772 1.4273 15.2041 1.77408 15.5473C2.12086 15.8905 2.55029 16.1384 3.02089 16.2672C4.77602 16.7366 11.7965 16.7366 11.7965 16.7366C11.7965 16.7366 18.8171 16.7366 20.5722 16.2672C21.0526 16.1313 21.4886 15.871 21.8362 15.5127C22.1837 15.1543 22.4306 14.7106 22.5518 14.2263C22.8706 12.4585 23.0277 10.6654 23.0212 8.86911C23.0327 7.04556 22.8755 5.22486 22.5518 3.43024Z" fill="black"/>
<path d="M9.50098 12.2054L15.3684 8.86865L9.50098 5.53186V12.2054Z" fill="white"/>
</svg>
