<svg width="10" height="24" viewBox="0 0 10 24" fill="none" xmlns="http://www.w3.org/2000/svg">
<path d="M9.16666 0H0.833332C0.612319 0 0.40037 0.129935 0.244089 0.361223C0.0878093 0.592511 0 0.906206 0 1.2333C0 1.56039 0.0878093 1.87408 0.244089 2.10537C0.40037 2.33666 0.612319 2.46659 0.833332 2.46659H9.16666C9.38767 2.46659 9.59962 2.33666 9.7559 2.10537C9.91218 1.87408 9.99999 1.56039 9.99999 1.2333C9.99999 0.906206 9.91218 0.592511 9.7559 0.361223C9.59962 0.129935 9.38767 0 9.16666 0Z" fill="white"/>
<path d="M8.78324 4.24256C8.78324 3.92855 8.69895 3.6274 8.54892 3.40536C8.39889 3.18333 8.1954 3.05859 7.98322 3.05859H2.18323C1.97106 3.05859 1.76759 3.18333 1.61756 3.40536C1.46753 3.6274 1.38324 3.92855 1.38324 4.24256C1.38096 4.39896 1.40009 4.55442 1.43949 4.69959C1.47889 4.84475 1.53773 4.97662 1.61248 5.08724C1.68722 5.19786 1.77633 5.28494 1.87442 5.34325C1.97251 5.40156 2.07755 5.42989 2.18323 5.42652H7.98322C8.0889 5.42989 8.19397 5.40156 8.29206 5.34325C8.39015 5.28494 8.47923 5.19786 8.55398 5.08724C8.62872 4.97662 8.68756 4.84475 8.72696 4.69959C8.76636 4.55442 8.78551 4.39896 8.78324 4.24256Z" fill="white"/>
<path d="M6.66668 6.14187H3.48334C3.27117 6.14187 3.0677 6.2666 2.91767 6.48864C2.76764 6.71068 2.68335 7.01183 2.68335 7.32583C2.68761 7.63787 2.77326 7.93536 2.92238 8.15605C3.07149 8.37673 3.2725 8.50349 3.48334 8.5098H6.66668C6.87885 8.5098 7.08235 8.38506 7.23237 8.16302C7.3824 7.94098 7.46667 7.63984 7.46667 7.32583C7.46895 7.16943 7.44982 7.01396 7.41042 6.8688C7.37102 6.72363 7.31218 6.59177 7.23744 6.48115C7.16269 6.37053 7.07358 6.28344 6.97549 6.22513C6.8774 6.16682 6.77236 6.13851 6.66668 6.14187Z" fill="white"/>
<path d="M4.66663 11.5928H5.49996C5.7108 11.5865 5.91181 11.4597 6.06092 11.2391C6.21004 11.0184 6.29569 10.7209 6.29995 10.4088C6.29995 10.0948 6.21566 9.79369 6.06563 9.57165C5.9156 9.34961 5.71213 9.22488 5.49996 9.22488H4.66663C4.56095 9.22151 4.4559 9.24983 4.35782 9.30814C4.25973 9.36645 4.17062 9.45354 4.09587 9.56416C4.02113 9.67478 3.96229 9.80664 3.92289 9.9518C3.88349 10.097 3.86436 10.2524 3.86664 10.4088C3.86664 10.7228 3.95091 11.024 4.10093 11.246C4.25096 11.4681 4.45446 11.5928 4.66663 11.5928Z" fill="white"/>
<path d="M9.16667 21.5332H0.833333C0.61232 21.5332 0.40037 21.6631 0.24409 21.8944C0.0878095 22.1257 0 22.4394 0 22.7665C0 23.0936 0.0878095 23.4073 0.24409 23.6386C0.40037 23.8699 0.61232 23.9998 0.833333 23.9998H9.16667C9.38768 23.9998 9.59963 23.8699 9.75591 23.6386C9.91219 23.4073 10 23.0936 10 22.7665C10 22.4394 9.91219 22.1257 9.75591 21.8944C9.59963 21.6631 9.38768 21.5332 9.16667 21.5332Z" fill="white"/>
<path d="M2.18323 20.8184H7.98322C8.1954 20.8184 8.39889 20.6937 8.54892 20.4716C8.69895 20.2496 8.78324 19.9484 8.78324 19.6344C8.78551 19.478 8.76636 19.3226 8.72696 19.1774C8.68756 19.0322 8.62872 18.9004 8.55398 18.7897C8.47923 18.6791 8.39015 18.592 8.29206 18.5337C8.19397 18.4754 8.0889 18.4471 7.98322 18.4505H2.18323C2.07755 18.4471 1.97251 18.4754 1.87442 18.5337C1.77633 18.592 1.68722 18.6791 1.61248 18.7897C1.53773 18.9004 1.47889 19.0322 1.43949 19.1774C1.40009 19.3226 1.38096 19.478 1.38324 19.6344C1.38324 19.9484 1.46753 20.2496 1.61756 20.4716C1.76759 20.6937 1.97106 20.8184 2.18323 20.8184Z" fill="white"/>
<path d="M2.68335 16.5502C2.68335 16.8642 2.76764 17.1653 2.91767 17.3874C3.0677 17.6094 3.27117 17.7341 3.48334 17.7341H6.66668C6.77236 17.7375 6.8774 17.7092 6.97549 17.6509C7.07358 17.5926 7.16269 17.5055 7.23744 17.3949C7.31218 17.2842 7.37102 17.1524 7.41042 17.0072C7.44982 16.862 7.46895 16.7066 7.46667 16.5502C7.46667 16.2362 7.3824 15.935 7.23237 15.713C7.08235 15.491 6.87885 15.3662 6.66668 15.3662H3.48334C3.2725 15.3725 3.07149 15.4993 2.92238 15.72C2.77326 15.9406 2.68761 16.2381 2.68335 16.5502Z" fill="white"/>
<path d="M4.66663 14.6521H5.49996C5.71213 14.6521 5.9156 14.5274 6.06563 14.3053C6.21566 14.0833 6.29995 13.7821 6.29995 13.4681C6.29569 13.1561 6.21004 12.8586 6.06092 12.6379C5.91181 12.4172 5.7108 12.2905 5.49996 12.2842H4.66663C4.45446 12.2842 4.25096 12.4089 4.10093 12.631C3.95091 12.853 3.86664 13.1541 3.86664 13.4681C3.86436 13.6245 3.88349 13.78 3.92289 13.9252C3.96229 14.0703 4.02113 14.2022 4.09587 14.3128C4.17062 14.4234 4.25973 14.5105 4.35782 14.5688C4.4559 14.6272 4.56095 14.6555 4.66663 14.6521Z" fill="white"/>
</svg>
